<svg width="753" height="583" viewBox="0 0 753 583" fill="none" xmlns="http://www.w3.org/2000/svg">
<path d="M8.65309 581.613H686.614L750.6 376.455C752.743 369.58 752.871 362.234 750.971 355.285L674.487 75.7912C670.363 60.7287 657.38 49.7668 641.837 48.2181L165.596 0.781812C151.906 -0.578322 138.566 5.60962 130.77 16.9351L-33.2339 255.234C-38.7317 263.22 -40.9349 273.011 -39.3988 282.585L8.65309 581.613Z" fill="#EFEFEF"/>
<path d="M550.463 384.999H174.012C169.41 384.999 165.677 381.269 165.677 376.67V105.68C165.677 101.081 169.41 97.3511 174.012 97.3511H550.463C555.064 97.3511 558.797 101.081 558.797 105.68V376.67C558.797 381.269 555.064 384.999 550.463 384.999Z" fill="#4D61FC"/>
<path opacity="0.15" d="M550.463 384.999H174.012C169.41 384.999 165.677 381.269 165.677 376.67V105.68C165.677 101.081 169.41 97.3511 174.012 97.3511H550.463C555.064 97.3511 558.797 101.081 558.797 105.68V376.67C558.797 381.269 555.064 384.999 550.463 384.999Z" fill="white"/>
<path d="M351.423 581.074L377.504 387.006L351.423 369.459L367.613 141.01L351.423 121.672L361.381 20.2815L370.719 21.2107L362.412 118.689L376.184 146.296L362.5 358.86L388.405 383.801L357.837 581.074H351.423Z" fill="white"/>
<path d="M361.381 20.2815L164.565 0.431591C152.087 -0.827542 139.913 4.79479 132.785 15.1035L-33.9013 256.17C-38.9477 263.463 -40.9756 272.425 -39.5742 281.178L8.64605 581.606L351.416 581.067L377.497 386.999L351.416 369.452L367.613 140.997L351.416 121.665L361.381 20.2815Z" fill="white"/>
<path d="M544.217 384.999H167.644C163.076 384.999 159.371 381.296 159.371 376.731V105.62C159.371 101.054 163.076 97.3511 167.644 97.3511H544.217C548.785 97.3511 552.49 101.054 552.49 105.62V376.731C552.49 381.296 548.785 384.999 544.217 384.999Z" fill="#4D61FC"/>
<path opacity="0.3" d="M544.156 384.999H167.705C163.103 384.999 159.371 381.269 159.371 376.67V105.68C159.371 101.081 163.103 97.3511 167.705 97.3511H544.156C548.758 97.3511 552.49 101.081 552.49 105.68V376.67C552.49 381.269 548.758 384.999 544.156 384.999Z" fill="white"/>
<path opacity="0.6" d="M537.418 378.239H174.281C170.178 378.239 166.856 374.913 166.856 370.819V110.427C166.856 106.327 170.184 103.007 174.281 103.007H537.418C541.522 103.007 544.843 106.334 544.843 110.427V370.819C544.843 374.913 541.515 378.239 537.418 378.239Z" fill="white"/>
<path d="M508.393 341.919H418.737C418.016 341.919 417.43 341.333 417.43 340.612V176.885C417.43 176.164 418.016 175.578 418.737 175.578H508.393C509.114 175.578 509.7 176.164 509.7 176.885V340.612C509.7 341.333 509.114 341.919 508.393 341.919Z" fill="white"/>
<path opacity="0.8" d="M513.494 334.398H431.949C431.289 334.398 430.757 333.866 430.757 333.206V184.291C430.757 183.632 431.289 183.1 431.949 183.1H513.494C514.154 183.1 514.686 183.632 514.686 184.291V333.206C514.686 333.866 514.154 334.398 513.494 334.398Z" fill="white"/>
<path opacity="0.6" d="M517.921 187.854H514.687V329.645H517.921C518.54 329.645 519.039 329.146 519.039 328.527V188.972C519.039 188.352 518.54 187.854 517.921 187.854Z" fill="white"/>
<path d="M498.476 241.909H428.654C427.698 241.909 426.923 241.135 426.923 240.179V218.484C426.923 217.528 427.698 216.753 428.654 216.753H498.469C499.426 216.753 500.201 217.528 500.201 218.484V240.179C500.201 241.135 499.426 241.909 498.476 241.909Z" fill="#4D61FC"/>
<path opacity="0.5" d="M498.476 241.909H428.654C427.698 241.909 426.923 241.135 426.923 240.179V218.484C426.923 217.528 427.698 216.753 428.654 216.753H498.469C499.426 216.753 500.201 217.528 500.201 218.484V240.179C500.201 241.135 499.426 241.909 498.476 241.909Z" fill="white"/>
<path d="M498.476 210.128H428.654C427.698 210.128 426.923 209.354 426.923 208.397V186.703C426.923 185.747 427.698 184.972 428.654 184.972H498.469C499.426 184.972 500.201 185.747 500.201 186.703V208.397C500.201 209.354 499.426 210.128 498.476 210.128Z" fill="#6562CF"/>
<path d="M495.781 275.501C495.592 275.501 495.444 275.353 495.444 275.164C495.444 274.976 495.592 274.828 495.781 274.828H498.476C498.664 274.828 498.826 274.976 498.826 275.164C498.826 275.353 498.685 275.501 498.503 275.501V275.164L498.496 275.501H495.781ZM493.092 275.501H490.397C490.208 275.501 490.06 275.353 490.06 275.164C490.06 274.976 490.208 274.828 490.397 274.828H493.092C493.28 274.828 493.429 274.976 493.429 275.164C493.429 275.353 493.274 275.501 493.092 275.501ZM487.702 275.501H485.007C484.818 275.501 484.67 275.353 484.67 275.164C484.67 274.976 484.818 274.828 485.007 274.828H487.702C487.89 274.828 488.039 274.976 488.039 275.164C488.039 275.353 487.89 275.501 487.702 275.501ZM482.319 275.501H479.624C479.435 275.501 479.287 275.353 479.287 275.164C479.287 274.976 479.435 274.828 479.624 274.828H482.319C482.507 274.828 482.655 274.976 482.655 275.164C482.655 275.353 482.5 275.501 482.319 275.501ZM476.929 275.501H474.234C474.045 275.501 473.897 275.353 473.897 275.164C473.897 274.976 474.045 274.828 474.234 274.828H476.929C477.117 274.828 477.265 274.976 477.265 275.164C477.265 275.353 477.117 275.501 476.929 275.501ZM471.545 275.501H468.85C468.662 275.501 468.513 275.353 468.513 275.164C468.513 274.976 468.662 274.828 468.85 274.828H471.545C471.734 274.828 471.882 274.976 471.882 275.164C471.882 275.353 471.727 275.501 471.545 275.501ZM466.155 275.501H463.46C463.272 275.501 463.123 275.353 463.123 275.164C463.123 274.976 463.272 274.828 463.46 274.828H466.155C466.344 274.828 466.492 274.976 466.492 275.164C466.492 275.353 466.344 275.501 466.155 275.501ZM460.772 275.501H458.077C457.888 275.501 457.74 275.353 457.74 275.164C457.74 274.976 457.888 274.828 458.077 274.828H460.772C460.961 274.828 461.109 274.976 461.109 275.164C461.109 275.353 460.954 275.501 460.772 275.501ZM455.382 275.501H452.687C452.498 275.501 452.35 275.353 452.35 275.164C452.35 274.976 452.498 274.828 452.687 274.828H455.382C455.571 274.828 455.719 274.976 455.719 275.164C455.719 275.353 455.571 275.501 455.382 275.501ZM449.999 275.501H447.304C447.115 275.501 446.967 275.353 446.967 275.164C446.967 274.976 447.115 274.828 447.304 274.828H449.999C450.187 274.828 450.336 274.976 450.336 275.164C450.336 275.353 450.187 275.501 449.999 275.501ZM444.609 275.501H441.914C441.725 275.501 441.577 275.353 441.577 275.164C441.577 274.976 441.725 274.828 441.914 274.828H444.609C444.797 274.828 444.946 274.976 444.946 275.164C444.946 275.353 444.797 275.501 444.609 275.501ZM439.225 275.501H436.53C436.342 275.501 436.194 275.353 436.194 275.164C436.194 274.976 436.342 274.828 436.53 274.828H439.225C439.414 274.828 439.562 274.976 439.562 275.164C439.562 275.353 439.414 275.501 439.225 275.501ZM433.835 275.501H431.14C430.952 275.501 430.804 275.353 430.804 275.164C430.804 274.976 430.952 274.828 431.14 274.828H433.835C434.024 274.828 434.172 274.976 434.172 275.164C434.172 275.353 434.024 275.501 433.835 275.501ZM428.452 275.487C428.439 275.487 428.425 275.487 428.412 275.487C427.368 275.366 426.586 274.484 426.586 273.434V273.259C426.586 273.07 426.734 272.922 426.923 272.922C427.111 272.922 427.26 273.07 427.26 273.259V273.434C427.26 274.141 427.792 274.74 428.493 274.821C428.675 274.841 428.809 275.009 428.789 275.191C428.769 275.366 428.621 275.487 428.452 275.487ZM500.201 273.77C500.012 273.77 499.864 273.622 499.864 273.434V270.74C499.864 270.552 500.012 270.404 500.201 270.404C500.389 270.404 500.537 270.552 500.537 270.74V273.434C500.537 273.622 500.389 273.77 500.201 273.77ZM426.923 270.902C426.734 270.902 426.586 270.754 426.586 270.565V267.872C426.586 267.684 426.734 267.535 426.923 267.535C427.111 267.535 427.26 267.684 427.26 267.872V270.565C427.26 270.754 427.111 270.902 426.923 270.902ZM500.201 268.391C500.012 268.391 499.864 268.242 499.864 268.054V265.361C499.864 265.172 500.012 265.024 500.201 265.024C500.389 265.024 500.537 265.172 500.537 265.361V268.054C500.537 268.236 500.389 268.391 500.201 268.391ZM426.923 265.522C426.734 265.522 426.586 265.374 426.586 265.186V262.492C426.586 262.304 426.734 262.156 426.923 262.156C427.111 262.156 427.26 262.304 427.26 262.492V265.186C427.26 265.374 427.111 265.522 426.923 265.522ZM500.201 263.004C500.012 263.004 499.864 262.856 499.864 262.667V259.974C499.864 259.785 500.012 259.637 500.201 259.637C500.389 259.637 500.537 259.785 500.537 259.974V262.667C500.537 262.856 500.389 263.004 500.201 263.004ZM426.923 260.142C426.734 260.142 426.586 259.994 426.586 259.806V257.112C426.586 256.924 426.734 256.776 426.923 256.776C427.111 256.776 427.26 256.924 427.26 257.112V259.806C427.26 259.987 427.111 260.142 426.923 260.142ZM500.201 257.624C500.012 257.624 499.864 257.476 499.864 257.287V254.594C499.864 254.405 500.012 254.257 500.201 254.257C500.389 254.257 500.537 254.405 500.537 254.594V257.287C500.537 257.469 500.389 257.624 500.201 257.624ZM426.923 254.756C426.734 254.756 426.586 254.607 426.586 254.419V251.739C426.586 251.55 426.734 251.396 426.923 251.396C427.111 251.396 427.26 251.544 427.26 251.726V254.419C427.26 254.607 427.111 254.756 426.923 254.756ZM500.201 252.237C500.012 252.237 499.864 252.089 499.864 251.901V251.739C499.864 251.025 499.331 250.433 498.624 250.352C498.442 250.332 498.307 250.163 498.328 249.982C498.348 249.8 498.516 249.658 498.698 249.685C499.749 249.8 500.537 250.682 500.537 251.739V251.901C500.537 252.089 500.389 252.237 500.201 252.237ZM495.969 250.345H493.274C493.085 250.345 492.937 250.197 492.937 250.009C492.937 249.82 493.085 249.672 493.274 249.672H495.969C496.158 249.672 496.306 249.82 496.306 250.009C496.306 250.197 496.151 250.345 495.969 250.345ZM490.579 250.345H487.884C487.695 250.345 487.547 250.197 487.547 250.009C487.547 249.82 487.695 249.672 487.884 249.672H490.579C490.767 249.672 490.916 249.82 490.916 250.009C490.916 250.197 490.767 250.345 490.579 250.345ZM485.195 250.345H482.5C482.312 250.345 482.164 250.197 482.164 250.009C482.164 249.82 482.312 249.672 482.5 249.672H485.195C485.384 249.672 485.532 249.82 485.532 250.009C485.532 250.197 485.377 250.345 485.195 250.345ZM479.805 250.345H477.11C476.922 250.345 476.774 250.197 476.774 250.009C476.774 249.82 476.922 249.672 477.11 249.672H479.805C479.994 249.672 480.142 249.82 480.142 250.009C480.142 250.197 479.994 250.345 479.805 250.345ZM474.422 250.345H471.727C471.539 250.345 471.39 250.197 471.39 250.009C471.39 249.82 471.539 249.672 471.727 249.672H474.422C474.611 249.672 474.759 249.82 474.759 250.009C474.759 250.197 474.611 250.345 474.422 250.345ZM469.032 250.345H466.337C466.149 250.345 466 250.197 466 250.009C466 249.82 466.149 249.672 466.337 249.672H469.032C469.221 249.672 469.369 249.82 469.369 250.009C469.369 250.197 469.221 250.345 469.032 250.345ZM463.649 250.345H460.954C460.765 250.345 460.617 250.197 460.617 250.009C460.617 249.82 460.765 249.672 460.954 249.672H463.649C463.838 249.672 463.986 249.82 463.986 250.009C463.986 250.197 463.838 250.345 463.649 250.345ZM458.266 250.345H455.571C455.382 250.345 455.234 250.197 455.234 250.009C455.234 249.82 455.382 249.672 455.571 249.672H458.266C458.454 249.672 458.603 249.82 458.603 250.009C458.603 250.197 458.448 250.345 458.266 250.345ZM452.876 250.345H450.181C449.992 250.345 449.844 250.197 449.844 250.009C449.844 249.82 449.992 249.672 450.181 249.672H452.876C453.064 249.672 453.213 249.82 453.213 250.009C453.213 250.197 453.064 250.345 452.876 250.345ZM447.492 250.345H444.797C444.609 250.345 444.461 250.197 444.461 250.009C444.461 249.82 444.609 249.672 444.797 249.672H447.492C447.681 249.672 447.829 249.82 447.829 250.009C447.829 250.197 447.674 250.345 447.492 250.345ZM442.102 250.345H439.407C439.219 250.345 439.071 250.197 439.071 250.009C439.071 249.82 439.219 249.672 439.407 249.672H442.102C442.291 249.672 442.439 249.82 442.439 250.009C442.439 250.197 442.291 250.345 442.102 250.345ZM436.719 250.345H434.024C433.836 250.345 433.687 250.197 433.687 250.009C433.687 249.82 433.836 249.672 434.024 249.672H436.719C436.908 249.672 437.056 249.82 437.056 250.009C437.056 250.197 436.901 250.345 436.719 250.345ZM431.329 250.345H428.654C428.466 250.345 428.311 250.197 428.311 250.009C428.311 249.82 428.452 249.672 428.641 249.672H431.336C431.525 249.672 431.673 249.82 431.673 250.009C431.673 250.197 431.518 250.345 431.329 250.345Z" fill="#61656D"/>
<path d="M486.752 205.879H433.843C433.216 205.879 432.711 205.374 432.711 204.748V201.22C432.711 200.593 433.216 200.088 433.843 200.088H486.759C487.386 200.088 487.891 200.593 487.891 201.22V204.748C487.891 205.374 487.379 205.879 486.752 205.879Z" fill="white"/>
<path opacity="0.5" d="M445.122 236.711H433.937C432.718 236.711 431.728 235.721 431.728 234.503V224.153C431.728 222.935 432.718 221.945 433.937 221.945H445.122C446.341 221.945 447.332 222.935 447.332 224.153V234.503C447.332 235.721 446.341 236.711 445.122 236.711Z" fill="white"/>
<path d="M492.978 194.445H445.317C444.771 194.445 444.327 194.001 444.327 193.455C444.327 192.91 444.771 192.466 445.317 192.466H492.978C493.524 192.466 493.969 192.91 493.969 193.455C493.969 194.001 493.524 194.445 492.978 194.445Z" fill="#4D61FC"/>
<path opacity="0.3" d="M492.978 194.445H445.317C444.771 194.445 444.327 194.001 444.327 193.455C444.327 192.91 444.771 192.466 445.317 192.466H492.978C493.524 192.466 493.969 192.91 493.969 193.455C493.969 194.001 493.524 194.445 492.978 194.445Z" fill="white"/>
<path d="M493.281 234.415H452.162C451.536 234.415 451.03 233.91 451.03 233.284V229.755C451.03 229.129 451.536 228.624 452.162 228.624H493.281C493.908 228.624 494.413 229.129 494.413 229.755V233.284C494.413 233.91 493.908 234.415 493.281 234.415Z" fill="white"/>
<path opacity="0.3" d="M487.884 225.284H452.021C451.475 225.284 451.03 224.839 451.03 224.294C451.03 223.749 451.475 223.304 452.021 223.304H487.884C488.43 223.304 488.875 223.749 488.875 224.294C488.875 224.839 488.43 225.284 487.884 225.284Z" fill="white"/>
<path d="M436.753 197.502C438.99 197.502 440.803 195.691 440.803 193.455C440.803 191.221 438.99 189.409 436.753 189.409C434.517 189.409 432.704 191.221 432.704 193.455C432.704 195.691 434.517 197.502 436.753 197.502Z" fill="#4D61FC"/>
<path opacity="0.3" d="M436.753 197.502C438.99 197.502 440.803 195.691 440.803 193.455C440.803 191.221 438.99 189.409 436.753 189.409C434.517 189.409 432.704 191.221 432.704 193.455C432.704 195.691 434.517 197.502 436.753 197.502Z" fill="white"/>
<path d="M544.83 125.409H166.856V110.098C166.856 106.179 170.036 103.007 173.951 103.007H537.735C541.656 103.007 544.83 106.185 544.83 110.098V125.409Z" fill="#6562CF"/>
<path d="M326.535 576.084H229.542C228.754 576.084 228.06 576.778 228.06 577.566V580.023C228.06 580.811 228.754 581.505 229.542 581.505H326.542C327.33 581.505 328.024 580.811 328.024 580.023V577.566C328.017 576.765 327.418 576.084 326.535 576.084Z" fill="#21252B"/>
<path opacity="0.6" d="M326.535 576.084H229.542C228.754 576.084 228.06 576.778 228.06 577.566V580.023C228.06 580.811 228.754 581.505 229.542 581.505H326.542C327.33 581.505 328.024 580.811 328.024 580.023V577.566C328.017 576.765 327.418 576.084 326.535 576.084Z" fill="black"/>
<path d="M258.466 576.084H89.3612C88.5729 576.084 87.8789 576.778 87.8789 577.566V580.023C87.8789 580.811 88.5729 581.505 89.3612 581.505H258.466C259.254 581.505 259.948 580.811 259.948 580.023V577.566C259.84 576.765 259.254 576.084 258.466 576.084Z" fill="#21252B"/>
<g opacity="0.6">
<path opacity="0.6" d="M89.2335 577.061H261.377C261.673 577.061 261.868 576.872 261.868 576.569C261.868 576.266 261.68 576.078 261.377 576.078H89.2335C88.9371 576.078 88.7417 576.266 88.7417 576.569C88.7417 576.872 89.0314 577.061 89.2335 577.061Z" fill="black"/>
</g>
<path d="M258.358 576.085H232.883C230.916 576.085 229.245 574.711 228.848 572.745L217.663 460.574C217.172 458.022 219.146 455.753 221.699 455.753H247.174C249.141 455.753 250.812 457.127 251.209 459.093L262.394 571.264C262.784 573.815 260.911 576.085 258.358 576.085Z" fill="#21252B"/>
<path opacity="0.6" d="M258.358 576.085H232.883C230.916 576.085 229.245 574.711 228.848 572.745L217.663 460.574C217.172 458.022 219.146 455.753 221.699 455.753H247.174C249.141 455.753 250.812 457.127 251.209 459.093L262.394 571.264C262.784 573.815 260.911 576.085 258.358 576.085Z" fill="black"/>
<path opacity="0.6" d="M256.101 576.085H230.627C228.659 576.085 226.988 574.711 226.591 572.745L215.407 460.574C214.915 458.022 216.889 455.753 219.442 455.753H244.917C246.884 455.753 248.555 457.127 248.953 459.093L260.137 571.264C260.528 573.815 258.655 576.085 256.101 576.085Z" fill="black"/>
<path d="M256.249 576.085H92.6628C90.6954 576.085 89.0245 574.711 88.627 572.745L77.4427 460.574C76.9509 458.022 78.925 455.753 81.4785 455.753H244.957C246.925 455.753 248.595 457.127 248.993 459.093L260.177 571.264C260.662 573.815 258.803 576.085 256.249 576.085Z" fill="#21252B"/>
<path d="M252.51 573.229H95.1554C93.2824 573.229 91.6923 571.916 91.3083 570.045L81.1347 463.166C80.6698 460.736 82.5428 458.574 84.9818 458.574H242.242C244.115 458.574 245.705 459.887 246.089 461.759L256.269 568.631C256.727 571.081 254.949 573.229 252.51 573.229Z" fill="white"/>
<path d="M252.611 573.23H95.0611C92.9994 573.23 91.2746 571.661 91.0793 569.607L81.0606 462.641C80.8383 460.298 82.6911 458.271 85.0492 458.278L241.77 458.574C243.818 458.581 245.53 460.13 245.739 462.163L256.593 568.833C256.829 571.183 254.976 573.23 252.611 573.23Z" fill="#4D61FC"/>
<path opacity="0.7" d="M252.611 573.23H95.0611C92.9994 573.23 91.2746 571.661 91.0793 569.607L81.0606 462.641C80.8383 460.298 82.6911 458.271 85.0492 458.278L241.77 458.574C243.818 458.581 245.53 460.13 245.739 462.163L256.593 568.833C256.829 571.183 254.976 573.23 252.611 573.23Z" fill="white"/>
<path d="M137.346 531.665H117.322L114.56 524.056C110.147 526.951 106.34 524.695 106.34 524.695L103.416 498.719H133.634L137.346 531.665Z" fill="white"/>
<path d="M216.323 488.659H108.348C104.46 488.659 101.179 485.756 100.714 481.898C100.162 477.326 103.733 473.3 108.348 473.3H216.323C220.21 473.3 223.492 476.202 223.957 480.061C224.502 484.632 220.931 488.659 216.323 488.659Z" fill="white"/>
<path d="M126.007 560.423H109.318L107.276 542.229H123.958L126.007 560.423Z" fill="white"/>
<path d="M148.954 560.423H132.266L130.224 542.229H146.906L148.954 560.423Z" fill="white"/>
<path d="M204.761 357.352C209.599 361.049 214.659 376.401 216.936 389.484C219.362 403.422 214.335 406.189 226.571 413.791C233.261 417.945 229.272 422.046 230.465 427.13C231.651 432.207 231.469 437.93 228.437 442.165C226.335 445.108 221.032 449.208 217.67 450.528C213.864 452.03 209.646 452.838 205.664 451.929C200.652 450.791 196.548 447.033 193.874 442.65C187.588 432.361 188.396 419.474 188.147 407.414C187.763 389.221 184.502 371.229 181.248 353.332" fill="#263238"/>
<path d="M221.76 435.526C228.064 435.526 233.174 430.42 233.174 424.12C233.174 417.82 228.064 412.714 221.76 412.714C215.457 412.714 210.347 417.82 210.347 424.12C210.347 430.42 215.457 435.526 221.76 435.526Z" fill="#263238"/>
<path d="M267.198 496.119C267.198 496.119 246.54 443.208 245.766 441.922L245.678 441.666C243.098 437.195 239.136 433.835 233.625 432.118L215.636 427.13L210.987 425.837L170.959 425.493L163.898 426.955L144.528 431.17C135.749 433.062 130.238 441.667 132.131 450.44C134.887 462.742 137.211 474.27 137.211 474.27L143.154 511.263C144.528 518.144 145.222 525.201 144.703 532.17C143.329 551.696 137.568 573.23 137.568 573.23H244.371C244.371 573.23 231.651 532.769 237.418 512.899L240.861 502.233L250.421 518.426C253.264 524.102 258.769 526.581 264.624 523.915L267.198 496.119Z" fill="#FFB000"/>
<path d="M240.686 502.057L253.507 523.577C255.953 527.685 260.386 530.203 265.176 530.203C273.066 530.203 279.298 523.503 278.719 515.639L277.263 495.809L273.814 440.952L256.849 440.649L252.274 483.352" fill="#FFB000"/>
<path opacity="0.6" d="M256.417 444.656L274.07 445.046L273.807 440.952L256.828 440.777L256.417 444.656Z" fill="black"/>
<path d="M261.687 449.82C262.441 450.11 262.812 450.958 262.522 451.712C262.232 452.467 261.383 452.837 260.629 452.547C259.874 452.258 259.504 451.409 259.793 450.655C260.09 449.901 260.939 449.531 261.687 449.82Z" fill="white"/>
<path opacity="0.6" d="M269.872 464.896C270.276 465.051 270.472 465.495 270.344 465.819L268.983 470.276C268.828 470.68 268.383 470.875 268.06 470.747C267.656 470.593 267.46 470.148 267.588 469.825L268.949 465.368C269.023 464.937 269.468 464.741 269.872 464.896Z" fill="black"/>
<path opacity="0.6" d="M188.261 446.394C188.78 446.481 189.292 446.481 189.811 446.481C198.765 446.481 207.025 441.835 212.105 434.523L216.841 427.466L215.548 427.123L213.223 426.436L181.719 428.16L166.654 426.355L163.898 426.955L162.604 427.21L163.204 428.072L167.853 434.698C172.509 441.492 179.994 445.882 188.261 446.394Z" fill="black"/>
<path d="M146.253 421.109C146.253 421.109 172.064 416.827 156.46 387.322L174.833 366.933C174.833 366.933 170.804 368.805 173.21 379.242C175.325 388.433 181.241 400.196 183.147 411.939C183.68 415.211 183.026 423.789 179.826 428.604C178.438 430.698 175.197 431.984 175.197 431.984L163.77 437.243L146.253 421.109Z" fill="#263238"/>
<path d="M152.788 358.361C148.557 353.621 141.947 351.237 135.297 352.726C125.528 354.907 119.377 364.583 121.553 374.36C123.736 384.123 133.418 390.271 143.2 388.096C146.118 387.443 148.712 386.123 150.854 384.332C148.86 382.103 147.398 379.356 146.697 376.238C145.161 369.384 147.735 362.57 152.788 358.361Z" fill="#263238"/>
<path d="M156.939 366.462C156.238 363.344 154.776 360.597 152.788 358.368C147.742 362.576 145.162 369.384 146.691 376.238C147.392 379.356 148.854 382.103 150.848 384.332C155.888 380.117 158.461 373.309 156.939 366.462Z" fill="#FFB000"/>
<path d="M180.533 344.565C177.265 344.861 174.523 346.45 172.67 348.726C172.172 349.345 171.485 349.77 170.71 349.925C169.409 350.18 167.206 350.78 164.363 352.355C154.115 358.025 149.466 367.694 153.92 381.167C156.959 390.385 162.045 396.863 170.757 399.401C172.677 399.953 168.473 381.612 173.742 370.906C174.591 369.189 175.594 367.647 176.679 366.246C178.889 367.283 181.436 367.64 184.003 367.061C190.572 365.6 194.547 358.732 192.29 352.187C190.599 347.292 185.681 344.1 180.533 344.565Z" fill="#263238"/>
<path d="M201.345 385.141L205.307 420.76C205.563 422.995 207.2 424.887 209.356 425.493L213.23 426.524L209.356 432.112C204.882 438.563 197.646 442.61 189.817 442.522C189.386 442.435 188.867 442.435 188.443 442.435C181.214 442.004 174.671 438.132 170.535 432.2L166.485 426.349L169.928 425.399C172.253 424.8 173.89 422.645 173.977 420.235L174.84 390.211L201.345 385.141Z" fill="#FB9C9C"/>
<path d="M213.951 385.067L204.788 362.759C203.137 358.692 198.401 356.739 194.331 358.396L171.929 367.58C168.749 368.913 167.206 372.489 168.54 375.667L178.431 399.725C182.318 409.206 193.105 413.73 202.592 409.845L203.858 409.3C213.338 405.408 217.832 394.547 213.951 385.067Z" fill="#FB9C9C"/>
<path d="M193.206 385.686C194.301 385.686 195.187 384.799 195.187 383.706C195.187 382.613 194.301 381.727 193.206 381.727C192.112 381.727 191.226 382.613 191.226 383.706C191.226 384.799 192.112 385.686 193.206 385.686Z" fill="#21252B"/>
<path d="M194.264 384.467C194.503 384.467 194.695 384.274 194.695 384.036C194.695 383.798 194.503 383.605 194.264 383.605C194.026 383.605 193.833 383.798 193.833 384.036C193.833 384.274 194.026 384.467 194.264 384.467Z" fill="white"/>
<path d="M207.773 380.42C208.867 380.42 209.754 379.534 209.754 378.44C209.754 377.347 208.867 376.461 207.773 376.461C206.679 376.461 205.792 377.347 205.792 378.44C205.792 379.534 206.679 380.42 207.773 380.42Z" fill="#21252B"/>
<path d="M208.965 379.06C209.204 379.06 209.397 378.867 209.397 378.629C209.397 378.391 209.204 378.198 208.965 378.198C208.728 378.198 208.534 378.391 208.534 378.629C208.534 378.867 208.728 379.06 208.965 379.06Z" fill="white"/>
<g opacity="0.3">
<path opacity="0.3" d="M205.455 388.406C204.91 387.14 203.454 386.662 202.269 387.181C202.026 387.268 201.871 387.598 201.986 387.921C202.073 388.164 202.403 388.319 202.727 388.204C203.347 387.888 204.007 388.197 204.324 388.817C204.64 389.436 204.33 390.096 203.71 390.413L201.258 391.483C201.015 391.571 200.86 391.901 200.975 392.224C201.063 392.466 201.393 392.621 201.716 392.507L204.169 391.436C205.354 390.911 205.947 389.51 205.455 388.406Z" fill="black"/>
</g>
<path d="M212.105 371.371C211.505 374.515 210.468 376.717 210.468 376.717L206.034 365.971C205.657 364.92 204.417 364.543 203.508 365.055C199.452 367.25 189.191 371.782 180.439 367.075C180.439 367.075 180.203 374.024 174.213 377.188L175.426 380.043C176.726 383.141 177.494 386.521 177.636 389.948C177.683 390.844 176.612 391.416 175.864 390.864C174.644 390.022 172.818 388.763 172.684 388.904C171.653 390.103 171.127 397.516 170.009 396.183C167.429 393.093 163.656 389.241 160.462 384.723L156.561 384.575C158.757 382.043 157.268 379.195 157.268 379.195C154.135 372.549 153.28 364.624 158.764 355.238C164.767 343.057 191.34 335.361 202.079 352.767C202.396 353.386 203.036 353.884 203.69 353.925C205.569 354.066 208.318 356.153 210.346 362.011C210.939 363.89 212.105 371.371 212.105 371.371Z" fill="#263238"/>
<path d="M178.647 402.519L176.78 393.032C174.645 384.319 163.939 386.77 166.425 395.321C168.904 403.954 177.703 402.593 177.703 402.593L178.647 402.519Z" fill="#FB9C9C"/>
<path opacity="0.3" d="M168.621 391.308C168.79 391.571 169.133 391.571 169.396 391.403C170.002 390.891 170.609 390.642 171.128 390.736C171.646 390.743 172.071 391.18 172.576 391.786C173.257 392.655 173.58 394.291 173.58 394.554C173.58 394.554 173.58 394.554 173.742 395.591C173.816 396.453 175.029 396.123 174.948 395.436L174.874 394.486C174.719 393.281 174.301 392.157 173.621 391.201C173.028 390.244 172.26 389.719 171.404 389.625C170.548 389.531 169.679 389.861 168.81 390.541C168.54 390.702 168.54 391.046 168.621 391.308Z" fill="black"/>
<path d="M205.705 372.401C203.414 373.411 201.75 375.384 201.211 377.687C198.812 377.64 197.209 378.764 196.515 379.384C194.21 377.566 190.983 376.993 188.153 378.286C184.145 380.104 182.298 384.885 184.118 388.891C185.937 392.897 190.72 394.742 194.729 392.924C198.738 391.106 200.584 386.326 198.765 382.319C198.394 381.538 197.828 380.737 197.242 380.124C197.801 379.646 199.142 378.798 200.934 378.697C200.699 380.064 200.948 381.525 201.561 382.952C203.38 386.959 208.164 388.804 212.173 386.986C216.181 385.168 218.027 380.387 216.208 376.381C214.362 372.293 209.606 370.529 205.705 372.401ZM194.244 392.089C190.687 393.645 186.482 392.15 184.926 388.595C183.37 385.04 184.865 380.838 188.423 379.283C191.98 377.727 196.184 379.222 197.741 382.777C199.351 386.218 197.774 390.446 194.244 392.089ZM211.768 386.124C208.211 387.679 204.007 386.184 202.45 382.629C200.894 379.074 202.39 374.872 205.947 373.317C209.504 371.762 213.709 373.256 215.265 376.811C216.875 380.259 215.292 384.487 211.768 386.124Z" fill="white"/>
<path d="M175.157 401.367C176.11 401.367 176.882 400.596 176.882 399.644C176.882 398.692 176.11 397.92 175.157 397.92C174.204 397.92 173.432 398.692 173.432 399.644C173.432 400.596 174.204 401.367 175.157 401.367Z" fill="#FFB000"/>
<path opacity="0.15" d="M176.255 401.031C175.992 401.287 175.649 401.455 175.305 401.448C174.355 401.522 173.506 400.741 173.432 399.792C173.351 399.186 173.614 398.674 174.052 398.337C173.877 398.681 173.782 399.024 173.782 399.368C173.856 400.398 174.793 401.186 175.831 401.112C175.999 401.112 176.087 401.118 176.255 401.031Z" fill="black"/>
<path opacity="0.15" d="M174.368 408.545L177.312 402.492L174.477 402.525L174.368 408.545Z" fill="black"/>
<path opacity="0.15" d="M204.364 412.302C202.794 412.215 201.406 411.912 200.335 411.595C196.548 412.504 193.436 412.255 191.381 411.898C191.077 411.824 190.882 411.528 190.956 411.231C191.03 410.928 191.327 410.733 191.623 410.807C193.294 411.117 195.666 411.359 198.597 410.848C198.758 410.787 198.947 410.814 199.109 410.753C199.54 410.686 199.951 410.545 200.382 410.477C200.463 410.45 200.463 410.45 200.544 410.417C200.813 410.41 201.137 410.296 201.386 410.208C202.113 409.945 202.76 409.71 203.488 409.447C203.67 409.373 203.852 409.306 204.034 409.232L204.364 412.302Z" fill="black"/>
<path d="M197.64 397.173C197.316 397.288 197.323 397.564 197.492 397.772C199.136 399.281 201.359 399.853 203.461 399.092C205.563 398.331 206.911 396.473 207.207 394.264C207.2 393.995 206.951 393.806 206.709 393.894L197.64 397.173Z" fill="white"/>
<path opacity="0.15" d="M236.987 466.957V474.956L239.055 478.572C242.673 485.11 243.529 492.765 241.38 499.822L240.692 502.057L253.514 523.577C256.364 528.708 264.314 531.805 270.169 529.132L272.237 528.183C267.332 529.819 260.622 526.877 258.641 523.005L246.116 501.276C247.753 493.19 246.291 484.76 242.067 477.703L239.655 473.656L237.762 466.862C237.586 466.438 236.899 466.526 236.987 466.957Z" fill="black"/>
<path d="M273.914 519.349L275.033 518.831L273.914 519.349Z" fill="black"/>
<path d="M224.678 438.394C225.485 438.394 226.139 437.74 226.139 436.933C226.139 436.126 225.485 435.472 224.678 435.472C223.87 435.472 223.215 436.126 223.215 436.933C223.215 437.74 223.87 438.394 224.678 438.394Z" fill="white"/>
<path d="M251.708 470.916C252.515 470.916 253.17 470.262 253.17 469.455C253.17 468.648 252.515 467.994 251.708 467.994C250.9 467.994 250.246 468.648 250.246 469.455C250.246 470.262 250.9 470.916 251.708 470.916Z" fill="white"/>
<path d="M260.918 519.174C261.726 519.174 262.38 518.52 262.38 517.713C262.38 516.906 261.726 516.252 260.918 516.252C260.111 516.252 259.457 516.906 259.457 517.713C259.457 518.52 260.111 519.174 260.918 519.174Z" fill="white"/>
<path d="M146.509 452.332C147.316 452.332 147.971 451.678 147.971 450.871C147.971 450.064 147.316 449.41 146.509 449.41C145.702 449.41 145.047 450.064 145.047 450.871C145.047 451.678 145.702 452.332 146.509 452.332Z" fill="white"/>
<path d="M148.577 492.766C148.577 493.574 147.924 494.227 147.115 494.227C146.307 494.227 145.653 493.574 145.653 492.766C145.653 491.958 146.307 491.305 147.115 491.305C147.917 491.305 148.577 491.958 148.577 492.766Z" fill="white"/>
<path d="M178.964 493.196C178.964 494.004 178.31 494.658 177.502 494.658C176.693 494.658 176.04 494.004 176.04 493.196C176.04 492.388 176.693 491.735 177.502 491.735C178.31 491.735 178.964 492.388 178.964 493.196Z" fill="white"/>
<path d="M199.883 466.614C200.691 466.614 201.345 465.959 201.345 465.153C201.345 464.346 200.691 463.692 199.883 463.692C199.076 463.692 198.421 464.346 198.421 465.153C198.421 465.959 199.076 466.614 199.883 466.614Z" fill="white"/>
<path d="M174.914 530.19C175.722 530.19 176.376 529.536 176.376 528.729C176.376 527.922 175.722 527.268 174.914 527.268C174.107 527.268 173.452 527.922 173.452 528.729C173.452 529.536 174.107 530.19 174.914 530.19Z" fill="white"/>
<path d="M212.105 512.38C212.913 512.38 213.567 511.726 213.567 510.919C213.567 510.112 212.913 509.458 212.105 509.458C211.298 509.458 210.643 510.112 210.643 510.919C210.643 511.726 211.298 512.38 212.105 512.38Z" fill="white"/>
<path d="M231.563 480.983C231.563 481.791 230.91 482.444 230.101 482.444C229.293 482.444 228.639 481.791 228.639 480.983C228.639 480.175 229.293 479.522 230.101 479.522C230.903 479.515 231.563 480.175 231.563 480.983Z" fill="white"/>
<path d="M154.857 561.332C155.665 561.332 156.319 561.985 156.319 562.793C156.319 563.601 155.665 564.254 154.857 564.254C154.048 564.254 153.395 563.601 153.395 562.793C153.395 561.985 154.048 561.332 154.857 561.332Z" fill="white"/>
<path d="M220.372 559.44C221.179 559.44 221.834 558.786 221.834 557.978C221.834 557.17 221.179 556.517 220.372 556.517C219.564 556.517 218.91 557.17 218.91 557.978C218.91 558.786 219.564 559.44 220.372 559.44Z" fill="white"/>
<path opacity="0.6" d="M186.536 553.932C186.88 554.107 186.967 554.531 186.792 554.881L184.468 558.928C184.292 559.271 183.868 559.359 183.518 559.184C183.174 559.009 183.086 558.584 183.262 558.234L185.586 554.188C185.761 553.851 186.192 553.676 186.536 553.932Z" fill="black"/>
<path opacity="0.6" d="M234.662 441.236C235.006 441.411 235.093 441.835 234.918 442.185L232.594 446.232C232.419 446.575 231.994 446.663 231.644 446.488C231.3 446.313 231.212 445.889 231.388 445.539L233.712 441.492C233.887 441.148 234.318 441.061 234.662 441.236Z" fill="black"/>
<path opacity="0.6" d="M208.063 491.304C208.063 491.648 207.719 491.991 207.375 491.991H202.639C202.295 491.991 201.952 491.648 201.952 491.304C201.952 490.961 202.295 490.618 202.639 490.618H207.375C207.8 490.618 208.143 490.961 208.063 491.304Z" fill="black"/>
<path opacity="0.6" d="M168.291 472.121C168.035 472.296 167.604 472.296 167.341 471.946L164.586 468.162C164.411 467.906 164.411 467.475 164.761 467.213C165.017 467.038 165.448 467.038 165.711 467.388L168.467 471.172C168.723 471.428 168.635 471.859 168.291 472.121Z" fill="black"/>
<path opacity="0.6" d="M159.337 433.061C159.425 433.492 159.081 433.836 158.737 433.836L154.088 434.266C153.657 434.354 153.314 434.011 153.314 433.667C153.226 433.236 153.57 432.893 153.913 432.893L158.562 432.462C158.906 432.374 159.249 432.63 159.337 433.061Z" fill="black"/>
<path opacity="0.6" d="M222.09 538.795C221.834 538.97 221.403 538.97 221.14 538.62L218.385 534.836C218.209 534.58 218.209 534.149 218.56 533.887C218.816 533.712 219.247 533.712 219.51 534.062L222.265 537.846C222.521 538.109 222.434 538.62 222.09 538.795Z" fill="black"/>
<path opacity="0.6" d="M254.288 486.571C254.464 486.914 254.376 487.345 254.032 487.52L249.983 489.843C249.64 490.018 249.208 489.931 249.033 489.587C248.858 489.244 248.946 488.813 249.289 488.638L253.338 486.315C253.682 486.052 254.113 486.227 254.288 486.571Z" fill="black"/>
<path opacity="0.6" d="M153.482 530.189C153.482 530.533 153.226 530.876 152.883 530.964L148.234 531.826C147.89 531.826 147.547 531.57 147.459 531.226C147.459 530.883 147.715 530.539 148.059 530.452L152.707 529.59C153.051 529.503 153.395 529.758 153.482 530.189Z" fill="black"/>
<path d="M269.535 535.287C269.589 535.388 269.542 535.516 269.441 535.57L268.8 535.893L268.612 535.523L269.252 535.2C269.353 535.146 269.481 535.186 269.535 535.287Z" fill="#3F4249"/>
<path d="M269.535 535.287C269.589 535.388 269.542 535.516 269.441 535.57L268.8 535.893L268.612 535.523L269.252 535.2C269.353 535.146 269.481 535.186 269.535 535.287Z" fill="black"/>
<path d="M261.888 537.192L262.293 537.993L225.701 556.349L225.391 555.73C225.344 555.629 225.385 555.507 225.479 555.454L261.888 537.192Z" fill="#3F4249"/>
<path d="M262.468 538.358L263.424 540.263L227.015 558.524C226.914 558.571 226.793 558.531 226.739 558.436L225.87 556.713L262.468 538.358Z" fill="#3F4249"/>
<path d="M261.888 537.192L262.293 537.993L225.701 556.349L225.391 555.73C225.344 555.629 225.385 555.507 225.479 555.454L261.888 537.192Z" fill="black"/>
<path d="M262.468 538.358L263.424 540.263L227.015 558.524C226.914 558.571 226.793 558.531 226.739 558.436L225.87 556.713L262.468 538.358Z" fill="black"/>
<path d="M223.411 557.521L224.125 558.942C224.206 559.103 224.401 559.17 224.57 559.09L226.571 558.086L225.56 556.08L223.559 557.083C223.397 557.164 223.33 557.359 223.411 557.521Z" fill="#3F4249"/>
<path d="M261.889 537.192L263.432 540.262L265.473 539.239C266.322 538.815 269.32 536.451 268.896 535.603C268.471 534.754 264.779 535.744 263.93 536.168L261.889 537.192Z" fill="#3F4249"/>
<path d="M232.034 556.006L228.355 557.851L230.336 558.483L231.05 558.127L234.022 556.639L243.097 552.087L244.66 551.306L244.519 551.016C244.303 550.585 243.778 550.41 243.346 550.626C243.023 550.787 242.841 551.124 242.868 551.467L233.126 556.356L232.034 556.006Z" fill="#3F4249"/>
<path d="M262.296 538.038L225.701 556.389L225.882 556.753L262.477 538.399L262.296 538.038Z" fill="white"/>
<path d="M164.248 466.122L163.972 520.77L205.408 531.065L204.626 549.589L150.295 544.478C143.726 543.878 138.619 538.607 138.127 532.116L131.76 448.219L164.248 466.122Z" fill="#FFB000"/>
<path opacity="0.15" d="M163.945 518.447C163.979 519.847 164.976 521.059 166.33 521.335L169.612 522.029L201.81 530.203L169.43 519.861L165.973 477.946C165.919 477.299 165.279 476.868 164.659 477.063C164.242 477.198 163.952 477.589 163.952 478.026L163.945 518.447Z" fill="black"/>
<path opacity="0.6" d="M204.687 549.649L200.82 549.239L201.81 530.209L205.529 531.058L204.687 549.649Z" fill="black"/>
<path opacity="0.6" d="M150.586 526.783C150.545 527.093 150.263 527.416 149.831 527.382L145.169 526.958C144.859 526.918 144.536 526.635 144.569 526.204C144.61 525.894 144.893 525.571 145.324 525.605L149.986 526.029C150.35 526.002 150.62 526.352 150.586 526.783Z" fill="black"/>
<path opacity="0.6" d="M139.212 466.748C139.582 466.842 139.852 467.192 139.751 467.563L138.835 472.135C138.74 472.505 138.39 472.774 138.019 472.673C137.649 472.579 137.379 472.229 137.48 471.859L138.397 467.287C138.491 466.916 138.841 466.654 139.212 466.748Z" fill="black"/>
<path opacity="0.6" d="M191.866 532.028C192.236 532.123 192.506 532.473 192.405 532.843L191.488 537.415C191.394 537.785 191.044 538.055 190.673 537.954C190.303 537.859 190.033 537.509 190.134 537.139L191.05 532.567C191.084 532.143 191.495 531.927 191.866 532.028Z" fill="black"/>
<g opacity="0.15">
<path opacity="0.15" d="M151.043 544.673L204.694 549.649L204.836 545.313L151.98 539.435C145.283 538.721 139.718 533.967 137.838 527.631L138.202 532.183C138.727 538.358 142.992 543.805 151.043 544.673Z" fill="black"/>
</g>
<path d="M205.408 531.065L240.227 538.607L246.338 537.981C246.844 537.88 247.396 537.866 247.895 538.109L254.524 540.916L252.557 542.351C251.823 542.882 251.924 544.007 252.658 544.438L258.014 547.374L257.684 548.269C257.354 549.165 256.579 549.548 255.629 549.481L254.827 549.373C254.417 549.353 254.006 549.676 253.803 549.979L253.48 550.531C252.968 551.319 251.89 551.501 250.953 551.366L250.098 551.185C249.64 551.084 249.235 551.346 249.006 551.777C248.582 552.787 247.955 553.137 246.884 552.976L245.206 552.754L244.694 553.225C243.744 554.12 242.801 554.329 241.595 553.864L234.878 551.232L204.62 549.596L205.408 531.065Z" fill="#FA9B9B"/>
<path opacity="0.15" d="M250.105 551.185C249.647 551.084 249.243 551.346 249.014 551.777C248.589 552.787 247.963 553.137 246.891 552.976L245.214 552.754L244.702 553.225C243.752 554.12 242.808 554.329 241.602 553.865L234.885 551.232L204.627 549.596L204.829 545.65L235.087 547.286L241.804 549.919C241.804 549.919 245.955 551.676 246.75 551.676C247.545 551.676 248.185 551.259 248.643 550.808C249.094 550.35 250.105 551.185 250.105 551.185Z" fill="black"/>
<path d="M273.767 403.321C273.767 403.321 273.773 417.205 272.23 418.296L273.807 440.953L256.842 440.65C256.842 440.65 261.012 422.679 257.3 412.337C256.02 408.768 254.807 405.361 255.36 402.647L272.716 402.311C273.295 402.304 273.76 402.755 273.767 403.321Z" fill="#FB9C9C"/>
<path d="M255.332 402.829L255.595 385.053C255.608 384.333 256.215 383.76 256.936 383.801C257.562 383.834 258.067 384.319 258.128 384.945L260.069 402.647L255.332 402.829Z" fill="#FB9C9C"/>
<path d="M256.842 440.65L257.192 418.645C252.503 415.682 252.961 402.418 252.941 402.189C252.591 400.297 251.789 395.618 251.789 395.618C251.715 395.342 251.883 395.078 252.166 395.004C253.278 394.694 254.592 395.314 255.191 396.661L256.505 399.691L258.008 404.175C258.008 404.175 261.073 404.774 261.969 407.299C263.66 412.073 261.531 414.787 261.531 414.787L256.842 440.65Z" fill="#FB9C9C"/>
<path opacity="0.15" d="M259.53 401.671L259.773 413.023C259.786 413.804 260.345 414.471 261.107 414.626C262.057 414.821 262.98 414.168 263.101 413.198L264.779 402.23L259.53 401.671Z" fill="black"/>
<path opacity="0.15" d="M264.772 402.236L263.162 414.396C263.068 415.231 263.674 416.033 264.557 416.222C265.453 416.417 266.322 415.919 266.524 415.097L269.179 402.397L264.772 402.236Z" fill="black"/>
<path opacity="0.15" d="M269.798 402.149L267.42 412.417C267.238 413.212 267.925 414.141 268.72 414.303C269.435 414.451 270.142 414.047 270.378 413.353L273.774 403.691C273.774 403.691 273.989 402.715 273.026 402.311L269.798 402.149Z" fill="black"/>
<path d="M259.928 401.913L260.13 412.35C260.144 413.131 260.703 413.798 261.464 413.953C262.414 414.148 263.337 413.495 263.459 412.525L264.772 402.236C264.907 401.2 264.166 400.257 263.122 400.142L262.003 400.014C260.885 399.893 259.908 400.782 259.928 401.913Z" fill="#FB9C9C"/>
<path d="M264.725 402.533L263.249 413.629C263.142 414.464 263.687 415.239 264.516 415.407C265.351 415.575 266.173 415.063 266.389 414.242L269.205 403.435C269.488 402.358 268.821 401.26 267.737 401.004L267.157 400.87C266.012 400.587 264.88 401.368 264.725 402.533Z" fill="#FB9C9C"/>
<path d="M269.084 402.694L267.4 411.65C267.251 412.451 267.79 413.212 268.592 413.34C269.313 413.454 270 413.023 270.209 412.323L272.816 403.556C273.052 402.762 272.56 401.94 271.745 401.772L270.748 401.57C269.987 401.415 269.232 401.92 269.084 402.694Z" fill="#FB9C9C"/>
<path opacity="0.15" d="M254.403 463.476L252.53 480.983L249.95 452.016L254.403 463.476Z" fill="black"/>
<path d="M105.996 296.951C104.111 287.609 110.155 278.506 119.503 276.621C128.851 274.732 137.96 280.778 139.845 290.12C140.599 293.846 140.089 297.53 138.613 300.736C136.934 304.86 131.485 310.237 131.984 312.7L132.553 315.513C132.664 316.076 132.303 316.622 131.74 316.734L129.021 317.281L126.519 317.785L123.8 318.332C123.237 318.443 122.69 318.082 122.578 317.519L122.01 314.706C121.511 312.243 114.404 309.403 111.254 306.256C108.652 303.873 106.751 300.677 105.996 296.951Z" fill="#FFB000"/>
<path d="M129.637 316.861C129.531 316.442 127.858 309.711 127.199 303.65C126.546 303.862 125.845 304.048 125.08 304.202C124.315 304.356 123.593 304.457 122.913 304.515C124.66 310.354 125.728 317.206 125.797 317.636L125.494 317.684C125.478 317.578 124.374 310.492 122.589 304.541C117.426 304.855 114.606 302.471 113.661 299.87C113.108 298.352 113.326 296.68 114.187 295.905C114.707 295.433 115.403 295.215 116.21 295.284C117.474 295.385 118.818 296.187 119.806 297.423C120.948 298.857 121.962 301.404 122.823 304.223C123.513 304.17 124.246 304.069 125.022 303.91C125.797 303.756 126.509 303.565 127.167 303.347C126.865 300.417 126.811 297.668 127.305 295.905C127.736 294.382 128.66 293.124 129.786 292.54C130.503 292.169 131.23 292.094 131.894 292.328C132.983 292.715 133.838 294.164 133.918 295.778C134.056 298.543 132.383 301.84 127.507 303.549C128.176 309.722 129.908 316.686 129.934 316.787L129.637 316.861ZM130.662 292.54C130.418 292.588 130.173 292.678 129.929 292.806C128.877 293.352 128.006 294.541 127.597 295.985C127.119 297.678 127.173 300.359 127.47 303.236C132.139 301.574 133.743 298.427 133.61 295.794C133.535 294.318 132.755 292.954 131.788 292.614C131.432 292.487 131.05 292.461 130.662 292.54ZM115.408 295.619C115.015 295.698 114.675 295.868 114.394 296.123C113.639 296.813 113.448 298.374 113.953 299.759C114.856 302.238 117.554 304.515 122.504 304.234C121.659 301.463 120.666 298.973 119.572 297.599C118.637 296.426 117.373 295.667 116.189 295.571C115.913 295.555 115.647 295.571 115.408 295.619Z" fill="white" stroke="white" stroke-width="2" stroke-miterlimit="10"/>
<path d="M132.627 313.814L121.856 315.99L122.892 321.123C123.062 321.962 123.465 322.732 124.06 323.353C125.181 324.52 126.817 325.03 128.405 324.711L129.982 324.393C131.565 324.075 132.877 322.965 133.456 321.458C133.764 320.661 133.833 319.791 133.663 318.952L132.627 313.814Z" fill="#28364C"/>
<path d="M122.556 319.451C122.588 319.446 122.62 319.441 122.646 319.43L133.194 316.139C133.556 316.028 133.747 315.646 133.619 315.285C133.492 314.924 133.099 314.727 132.738 314.839L122.19 318.13C121.828 318.241 121.637 318.623 121.765 318.984C121.881 319.308 122.221 319.505 122.556 319.451Z" fill="#475577"/>
<path d="M123.03 321.798C123.061 321.792 123.093 321.787 123.12 321.776L133.668 318.485C134.029 318.374 134.22 317.992 134.093 317.631C133.966 317.27 133.573 317.074 133.211 317.185L122.663 320.476C122.302 320.587 122.111 320.97 122.238 321.331C122.355 321.66 122.695 321.851 123.03 321.798Z" fill="#475577"/>
<path d="M123.927 324.037C123.958 324.032 123.99 324.027 124.017 324.016L134.013 320.895C134.374 320.784 134.565 320.401 134.438 320.041C134.31 319.68 133.917 319.483 133.556 319.595L123.56 322.716C123.199 322.827 123.008 323.209 123.135 323.57C123.257 323.894 123.597 324.091 123.927 324.037Z" fill="#475577"/>
<path d="M118.493 262.693C118.387 262.178 117.888 261.844 117.373 261.95C116.857 262.056 116.523 262.555 116.629 263.07L118.159 270.645C118.244 271.075 118.615 271.382 119.035 271.409C119.115 271.414 119.2 271.409 119.285 271.393C119.8 271.292 120.134 270.788 120.028 270.273L118.493 262.693Z" fill="#32353A"/>
<path d="M132.048 262.21C131.798 262.152 131.543 262.2 131.331 262.338C131.113 262.476 130.969 262.688 130.911 262.937L129.249 270.485C129.137 271 129.461 271.504 129.976 271.621C130.024 271.632 130.072 271.637 130.12 271.643C130.199 271.648 130.284 271.643 130.364 271.627C130.736 271.552 131.028 271.266 131.107 270.899L132.77 263.351C132.823 263.102 132.781 262.847 132.642 262.635C132.504 262.412 132.292 262.263 132.048 262.21Z" fill="#32353A"/>
<path d="M145.996 269.047C145.958 268.798 145.82 268.575 145.619 268.426C145.194 268.118 144.599 268.208 144.285 268.633L139.718 274.87C139.41 275.295 139.5 275.889 139.925 276.197C140.074 276.308 140.249 276.367 140.429 276.377C140.509 276.383 140.594 276.377 140.674 276.362C140.907 276.314 141.115 276.181 141.253 275.99L145.82 269.758C145.974 269.551 146.038 269.302 145.996 269.047Z" fill="#32353A"/>
<path d="M105.279 268.107C105.131 267.9 104.913 267.762 104.663 267.72C104.414 267.677 104.159 267.736 103.952 267.879C103.744 268.028 103.606 268.245 103.564 268.495C103.521 268.744 103.58 268.999 103.723 269.206L108.185 275.517C108.355 275.756 108.62 275.899 108.902 275.921C108.981 275.926 109.066 275.921 109.151 275.905C109.284 275.878 109.401 275.825 109.512 275.751C109.72 275.602 109.858 275.385 109.9 275.135C109.943 274.886 109.884 274.631 109.741 274.424L105.279 268.107Z" fill="#32353A"/>
<path d="M101.795 282.524L95.1609 278.553C94.7095 278.283 94.1252 278.431 93.8544 278.882C93.7216 279.1 93.6844 279.355 93.7481 279.604C93.8119 279.848 93.9659 280.061 94.1836 280.188L100.817 284.158C100.95 284.238 101.099 284.286 101.248 284.291C101.327 284.296 101.412 284.291 101.492 284.275C101.752 284.222 101.981 284.058 102.119 283.835C102.395 283.378 102.246 282.794 101.795 282.524Z" fill="#32353A"/>
<path d="M705.445 582.151H-0.725636C-0.995136 582.151 -1.26465 581.949 -1.26465 581.612C-1.26465 581.276 -0.995136 581.074 -0.725636 581.074H705.513C705.782 581.074 706.052 581.276 706.052 581.612C706.052 581.949 705.782 582.151 705.445 582.151Z" fill="#ADB1B6"/>
<path d="M379.202 576.084H476.202C476.991 576.084 477.684 576.778 477.684 577.566V580.023C477.684 580.811 476.991 581.505 476.202 581.505H379.202C378.414 581.505 377.72 580.811 377.72 580.023V577.566C377.72 576.765 378.32 576.084 379.202 576.084Z" fill="#21252B"/>
<path opacity="0.6" d="M379.202 576.084H476.202C476.991 576.084 477.684 576.778 477.684 577.566V580.023C477.684 580.811 476.991 581.505 476.202 581.505H379.202C378.414 581.505 377.72 580.811 377.72 580.023V577.566C377.72 576.765 378.32 576.084 379.202 576.084Z" fill="black"/>
<path d="M447.271 576.084H616.375C617.163 576.084 617.857 576.778 617.857 577.566V580.023C617.857 580.811 617.163 581.505 616.375 581.505H447.271C446.483 581.505 445.789 580.811 445.789 580.023V577.566C445.904 576.765 446.483 576.084 447.271 576.084Z" fill="#21252B"/>
<g opacity="0.6">
<path opacity="0.6" d="M616.51 577.061H444.368C444.071 577.061 443.876 576.872 443.876 576.569C443.876 576.266 444.065 576.078 444.368 576.078H616.51C616.807 576.078 617.002 576.266 617.002 576.569C617.002 576.872 616.712 577.061 616.51 577.061Z" fill="black"/>
</g>
<path d="M588.617 576.085H614.091C616.059 576.085 617.729 574.711 618.127 572.745L629.311 460.574C629.803 458.022 627.829 455.753 625.275 455.753H599.801C597.834 455.753 596.163 457.127 595.765 459.093L584.581 571.264C584.19 573.815 586.063 576.085 588.617 576.085Z" fill="#21252B"/>
<path opacity="0.6" d="M588.617 576.085H614.091C616.059 576.085 617.729 574.711 618.127 572.745L629.311 460.574C629.803 458.022 627.829 455.753 625.275 455.753H599.801C597.834 455.753 596.163 457.127 595.765 459.093L584.581 571.264C584.19 573.815 586.063 576.085 588.617 576.085Z" fill="black"/>
<path d="M447.858 576.085H611.444C613.411 576.085 615.082 574.711 615.479 572.745L626.664 460.574C627.155 458.022 625.181 455.753 622.628 455.753H459.15C457.182 455.753 455.512 457.127 455.114 459.093L443.93 571.264C443.445 573.815 445.304 576.085 447.858 576.085Z" fill="#21252B"/>
<path d="M451.597 573.23H608.951C610.824 573.23 612.414 571.917 612.798 570.045L622.978 463.173C623.443 460.742 621.57 458.581 619.131 458.581H461.872C459.999 458.581 458.408 459.894 458.024 461.766L447.844 568.637C447.379 571.082 449.158 573.23 451.597 573.23Z" fill="#4D61FC"/>
<g opacity="0.7">
<path opacity="0.7" d="M451.597 573.23H608.951C610.824 573.23 612.414 571.917 612.798 570.045L622.978 463.173C623.443 460.742 621.57 458.581 619.131 458.581H461.872C459.999 458.581 458.408 459.894 458.024 461.766L447.844 568.637C447.379 571.082 449.158 573.23 451.597 573.23Z" fill="white"/>
</g>
<path d="M597.564 485.05H525.736C522.434 485.05 519.867 482.181 520.231 478.902C520.541 476.101 522.913 473.98 525.736 473.98H597.564C600.866 473.98 603.433 476.849 603.069 480.128C602.759 482.929 600.387 485.05 597.564 485.05Z" fill="white"/>
<path d="M492.615 559.695H460.12L463.199 527.12H495.693L492.615 559.695Z" fill="white"/>
<path d="M598.11 514.246H578.45L580.316 494.544H599.97L598.11 514.246Z" fill="white"/>
<path d="M594.364 557.965H574.704L578.504 521.174H598.164L594.364 557.965Z" fill="white"/>
<path d="M514.201 286.188H440.203C439.193 286.188 438.371 285.366 438.371 284.356V261.362C438.371 260.352 439.193 259.53 440.203 259.53H514.201C515.212 259.53 516.034 260.352 516.034 261.362V284.356C516.04 285.366 515.219 286.188 514.201 286.188Z" fill="#4D61FC"/>
<path opacity="0.2" d="M514.201 286.188H440.203C439.193 286.188 438.371 285.366 438.371 284.356V261.362C438.371 260.352 439.193 259.53 440.203 259.53H514.201C515.212 259.53 516.034 260.352 516.034 261.362V284.356C516.04 285.366 515.219 286.188 514.201 286.188Z" fill="white"/>
<path d="M501.272 267.024H447.109C446.233 267.024 445.512 266.311 445.512 265.429C445.512 264.553 446.226 263.833 447.109 263.833H501.272C502.148 263.833 502.869 264.546 502.869 265.429C502.862 266.304 502.154 267.024 501.272 267.024Z" fill="#4D61FC"/>
<path opacity="0.15" d="M467.834 281.871H447.776C446.53 281.871 445.519 280.861 445.519 279.616V275.899C445.519 274.653 446.53 273.643 447.776 273.643H467.834C469.08 273.643 470.091 274.653 470.091 275.899V279.616C470.091 280.861 469.08 281.871 467.834 281.871Z" fill="white"/>
<path opacity="0.5" d="M501.272 267.024H447.109C446.233 267.024 445.512 266.311 445.512 265.429C445.512 264.553 446.226 263.833 447.109 263.833H501.272C502.148 263.833 502.869 264.546 502.869 265.429C502.862 266.304 502.154 267.024 501.272 267.024Z" fill="white"/>
<path d="M467.834 281.871H447.777C446.53 281.871 445.52 280.861 445.52 279.616V275.899C445.52 274.653 446.53 273.643 447.777 273.643H467.834C469.081 273.643 470.091 274.653 470.091 275.899V279.616C470.091 280.861 469.081 281.871 467.834 281.871Z" fill="#4D61FC"/>
<path opacity="0.15" d="M467.834 281.871H447.777C446.53 281.871 445.52 280.861 445.52 279.616V275.899C445.52 274.653 446.53 273.643 447.777 273.643H467.834C469.081 273.643 470.091 274.653 470.091 275.899V279.616C470.091 280.861 469.081 281.871 467.834 281.871Z" fill="white"/>
<path d="M467.834 281.871H447.777C446.53 281.871 445.52 280.861 445.52 279.616V275.899C445.52 274.653 446.53 273.643 447.777 273.643H467.834C469.081 273.643 470.091 274.653 470.091 275.899V279.616C470.091 280.861 469.081 281.871 467.834 281.871Z" fill="white"/>
<path d="M391.155 448.151L384.397 441.135L380.281 429.897C379.971 428.934 380.503 428.045 381.48 428.025C382.167 428.018 382.787 428.449 383.083 429.123L387.948 439.216L393.816 443.418L387.948 439.216L384.451 429.897C384.168 429.116 384.626 428.382 385.327 428.261C385.967 428.187 386.587 428.624 386.836 429.23L391.088 438.092L399.509 444.279L391.088 438.092L389.268 430.914C389.174 430.389 389.531 429.924 390.043 429.944C390.441 429.951 390.852 430.24 391.013 430.719L394.207 438.28L401.659 444.488L391.155 448.151Z" fill="#FB9C9C"/>
<path opacity="0.15" d="M391.155 448.151L384.397 441.135L380.281 429.897C379.971 428.934 380.503 428.045 381.48 428.025C382.167 428.018 382.787 428.449 383.083 429.123L387.948 439.216L393.816 443.418L387.948 439.216L384.451 429.897C384.168 429.116 384.626 428.382 385.327 428.261C385.967 428.187 386.587 428.624 386.836 429.23L391.088 438.092L399.509 444.279L391.088 438.092L389.268 430.914C389.174 430.389 389.531 429.924 390.043 429.944C390.441 429.951 390.852 430.24 391.013 430.719L394.207 438.28L401.659 444.488L391.155 448.151Z" fill="black"/>
<path d="M388.271 449.485L403.315 456.043C404.178 456.4 404.932 457.033 405.566 457.754L423.4 479.798L435.474 466.85L418.428 451.256C417.828 450.71 417.35 450.064 417.053 449.391L416.487 448.219C414.581 443.479 411.245 439.89 406.785 438.018L406.738 437.951C406.152 437.688 405.579 437.318 405.087 436.786C403.43 434.934 399.36 430.497 399.36 430.497C399.125 430.174 398.727 430.174 398.464 430.362C397.245 431.265 396.908 433.096 397.804 434.712L399.866 438.449C400.937 440.435 400.021 442.698 398.04 442.967L389.551 443.964C389.025 444.058 388.479 443.856 388.021 443.506L375.968 433.749C375.463 433.332 374.728 433.278 374.371 433.736C373.839 434.227 373.926 435.15 374.465 435.749C377.127 438.55 385.387 446.933 387.381 448.832C387.631 449.162 387.887 449.371 388.271 449.485Z" fill="#FB9C9C"/>
<path opacity="0.15" d="M423.616 479.549L427.82 471.799C429.309 469.112 428.797 465.725 426.614 463.57L416.528 453.652C415.672 452.898 415.026 451.881 414.668 450.858C413.739 447.976 411.3 441.842 406.415 437.91C406.53 437.93 406.577 437.99 406.624 438.058L406.671 438.125C411.125 439.997 414.466 443.586 416.373 448.326L416.939 449.498C417.283 450.232 417.754 450.878 418.313 451.363L435.359 466.957L423.616 479.549Z" fill="black"/>
<path d="M489.65 289.993C486.241 289.104 482.987 286.592 482.239 283.165C482.091 282.364 481.747 281.199 482.084 280.404C478.116 282.33 477.024 286.181 477.024 286.181H467.194C467.962 293.608 473.709 297.648 473.709 297.648L473.878 300.853C475.515 301.082 477.88 301.453 479.416 301.042C484.577 299.776 488.444 295.13 489.65 289.993Z" fill="#F79898"/>
<path d="M493.558 324.124L490.385 297.972C490.385 297.972 494.461 284.949 495.41 282.142C496.077 280.169 497.795 274.149 497.984 270.655C498.018 270.062 497.667 269.517 497.121 269.294C496.704 269.126 496.232 269.166 495.855 269.409C495.033 269.941 493.484 271.079 491.712 273.011C489.873 275.018 488.438 277.839 487.75 278.553C487.629 278.674 487.481 278.761 487.312 278.795C485.837 279.098 484.227 279.246 482.077 280.404C481.74 281.206 482.091 282.371 482.232 283.165C482.987 286.592 486.234 289.104 489.644 289.993C488.438 295.123 484.577 299.776 479.403 301.035C477.873 301.446 475.501 301.069 473.864 300.847L474.733 326.595L493.558 324.124Z" fill="#F79898"/>
<g opacity="0.15">
<path opacity="0.15" d="M494.413 270.432C492.648 271.906 491.065 273.576 489.737 275.455C489.124 276.323 488.579 277.232 488.06 278.155C487.689 278.815 487.271 278.801 486.571 278.909C486.079 278.99 485.594 279.091 485.109 279.212C481.012 280.242 477.354 283.299 476.646 287.588C476.417 287.635 476.134 291.803 476.707 293.581C476.97 294.409 478.243 293.944 477.974 293.116C477.509 291.669 477.886 288.443 477.927 288.147C478.506 283.71 482.508 280.915 486.692 280.256C487.682 280.101 488.511 280.006 489.077 279.084C489.643 278.162 490.135 277.212 490.762 276.33C492.021 274.546 493.504 272.936 495.181 271.536C495.842 270.99 495.08 269.879 494.413 270.432Z" fill="black"/>
</g>
<path d="M512.375 453.774L483.587 402.089C480.184 395.989 478.217 389.188 477.833 382.219L474.747 326.595L493.565 324.124L505.995 382.381L538.126 415.63L512.375 453.774Z" fill="#3F4D79"/>
<path opacity="0.15" d="M493.558 324.124L489.272 324.683L508.171 420.074L497.991 427.945L500.76 432.928L515.171 423.791L493.558 324.124Z" fill="black"/>
<path d="M499.52 406.621L500.679 407.153C509.114 410.863 518.89 407.058 522.569 398.709L531.981 377.404C533.241 374.603 531.941 371.365 529.138 370.106L509.215 361.244C505.577 359.655 501.319 361.285 499.729 364.914L490.991 384.71C487.38 393.1 491.159 402.938 499.52 406.621Z" fill="#F49595"/>
<path d="M493.396 379.464C493.396 379.464 490.425 381.457 488.997 383.02C487.562 384.582 490.863 385.942 490.863 385.942L493.396 379.464Z" fill="#F49595"/>
<path d="M504.621 405.751L512.739 425.446L503.313 431.412L515.279 434.24L537.082 411.131L530.007 394.163L534.063 365.587L507.039 360.638L504.621 405.751Z" fill="#F49595"/>
<g opacity="0.15">
<g opacity="0.15">
<path opacity="0.15" d="M530.007 394.722C529.219 393.638 528.485 392.069 527.851 389.995L519.558 392.689C519.174 392.574 518.81 392.426 518.486 392.224L522.185 397.436L530.007 394.722Z" fill="black"/>
</g>
</g>
<path d="M495.983 371.126L495.458 372.473L522.253 382.987L522.785 381.639L495.983 371.126Z" fill="white"/>
<path d="M492.864 379.06C493.134 379.06 493.396 378.906 493.518 378.643L499.156 366.617C499.325 366.254 499.17 365.823 498.806 365.654C498.442 365.486 498.011 365.641 497.842 366.004L492.211 378.03C492.042 378.394 492.197 378.825 492.561 378.993C492.655 379.04 492.763 379.06 492.864 379.06Z" fill="white"/>
<g opacity="0.3">
<g opacity="0.3">
<g opacity="0.3">
<path opacity="0.3" d="M493.645 392.163C491.469 392.702 489.744 392.264 489.629 392.238L489.717 390.783C489.744 390.79 492.446 391.443 494.709 390.211C495.026 390.036 495.43 390.137 495.639 390.433C495.889 390.79 495.774 391.288 495.39 391.497C494.817 391.807 494.224 392.022 493.645 392.163Z" fill="black"/>
</g>
</g>
</g>
<path d="M578.45 436.731C577.931 429.843 563.533 427.231 559.396 422.073C555.253 416.935 549.573 413.01 542.943 411.023C542.943 411.023 526.834 426.988 518.648 430.84C514.976 432.57 503.313 431.405 503.313 431.405L496.266 435.593C490.168 439.216 485.58 444.906 483.33 451.632L481.963 455.739L510.778 487.642L492.264 532.351L489.799 573.223H576.88L578.45 436.731Z" fill="#3F4D79"/>
<path opacity="0.15" d="M498.388 434.341C498.388 434.341 512.274 438.819 522.973 434.24C535.943 428.692 545.914 412.539 545.914 412.539L542.943 411.03C542.943 411.03 522.751 429.655 518.648 430.846C512.416 432.658 503.313 431.412 503.313 431.412L498.388 434.341Z" fill="black"/>
<path d="M510.779 487.656L492.265 532.365C488.923 538.061 483.041 541.011 477.132 541.011C472.187 541.011 467.208 538.937 463.671 534.681L414.999 469.462L427.511 459.571L468.07 497.385L481.963 455.753L510.779 487.656Z" fill="#3F4D79"/>
<path d="M515.36 365.435C523.647 364.09 529.603 358.322 528.666 352.552C527.723 346.782 520.251 343.194 511.964 344.539C503.677 345.883 497.721 351.652 498.657 357.422C499.594 363.192 507.073 366.78 515.36 365.435Z" fill="#263238"/>
<path d="M503.313 431.412C523.135 414.316 525.81 406.519 520.777 393.005C519.874 390.581 519.214 387.666 519.921 384.791L519.578 384.319C519.423 384.11 519.375 383.841 519.443 383.592C523.883 367.897 542.829 375.936 542.829 375.936L558.15 383.72L576.644 400.358L573.552 445.081L566.167 466.277L531.463 457.006C531.456 457.006 499.224 438.819 503.313 431.412Z" fill="#263238"/>
<path d="M549.378 457.2C553.757 443.051 545.827 428.031 531.672 423.653C517.516 419.274 502.485 427.196 498.105 441.345C493.722 455.494 501.649 470.515 515.805 474.893C529.967 479.271 544.992 471.349 549.378 457.2Z" fill="#263238"/>
<path d="M569.28 468.055C581.159 468.055 590.793 458.429 590.793 446.555C590.793 434.682 581.159 425.056 569.28 425.056C557.402 425.056 547.768 434.682 547.768 446.555C547.768 458.429 557.402 468.055 569.28 468.055Z" fill="#263238"/>
<path d="M565.702 436.886C577.23 436.886 586.575 427.547 586.575 416.027C586.575 404.506 577.23 395.167 565.702 395.167C554.175 395.167 544.83 404.506 544.83 416.027C544.83 427.547 554.175 436.886 565.702 436.886Z" fill="#263238"/>
<path d="M554.276 365.702C555.879 354.289 547.915 343.744 536.502 342.148C525.082 340.546 500.995 347.623 502.633 359.029C505.058 375.822 523.101 380.737 534.521 382.333C545.935 383.929 552.672 377.115 554.276 365.702Z" fill="#263238"/>
<path d="M576.644 398.257C576.644 398.257 567.434 393.194 562.772 387.006C553.103 374.172 559.774 357.056 545.584 345.717C540.72 341.744 538.995 392.702 538.995 392.702L576.644 398.257Z" fill="#263238"/>
<path d="M577.217 466.634C577.217 466.634 560.184 483.529 521.242 475.866L535.842 453.774L577.217 466.634Z" fill="#263238"/>
<path d="M523.176 380.172C523.176 380.172 526.436 376.589 530.001 380.34C534.077 384.636 528.33 395.591 519.564 392.689C514.969 391.167 516.95 388.992 519.14 385.881L523.176 380.172Z" fill="#F49595"/>
<g opacity="0.3">
<g opacity="0.3">
<g opacity="0.3">
<path opacity="0.3" d="M529.017 383.403C528.397 382.461 527.663 381.902 526.834 381.754C526.005 381.606 525.136 381.855 524.247 382.508C523.351 383.161 522.61 384.117 522.111 385.255L521.613 386.211C521.485 386.494 521.619 386.831 521.902 386.953C522.185 387.081 522.522 386.945 522.643 386.662L523.142 385.706C523.236 385.43 524.031 384.044 524.914 383.418C525.554 382.96 526.127 382.771 526.632 382.858C527.144 382.952 527.629 383.343 528.074 384.016C528.242 384.279 528.593 384.353 528.855 384.178C529.111 384.016 529.185 383.666 529.017 383.403Z" fill="black"/>
</g>
</g>
</g>
<path opacity="0.15" d="M505.752 408.492L509.64 408.896C510.637 408.997 510.94 410.303 510.091 410.835L507.41 412.539L505.752 408.492Z" fill="black"/>
<path opacity="0.15" d="M492.264 532.365L512.065 484.558C512.51 483.481 514.134 484.02 513.844 485.151L491.274 548.626L492.264 532.365Z" fill="black"/>
<path d="M239.864 547.387L237.984 543.913L235.66 545.077L239.864 547.387Z" fill="#FA9B9B"/>
<path opacity="0.15" d="M235.66 545.077L239.864 547.387L237.984 543.913" fill="black"/>
<path d="M152.977 464.708C165.304 464.708 175.298 454.721 175.298 442.401C175.298 430.081 165.304 420.093 152.977 420.093C140.648 420.093 130.655 430.081 130.655 442.401C130.655 454.721 140.648 464.708 152.977 464.708Z" fill="#263238"/>
<path d="M174.49 402.526C174.49 402.526 179.213 437.735 172.59 450.218C165.967 462.702 161.318 421.245 161.318 421.245L174.49 402.526Z" fill="#263238"/>
<path d="M244.991 385.094C245.503 385.397 245.988 385.727 246.493 386.043C246.985 386.366 247.47 386.703 247.949 387.046C248.427 387.39 248.986 387.639 249.364 388.097C249.748 388.548 250.091 389.039 250.287 389.706C250.3 389.746 250.273 389.793 250.233 389.807C250.219 389.814 250.206 389.814 250.199 389.807C249.512 389.699 248.98 389.423 248.474 389.107C247.969 388.797 247.646 388.278 247.241 387.854C246.837 387.43 246.44 386.992 246.049 386.548C245.665 386.097 245.274 385.659 244.903 385.188C244.876 385.161 244.883 385.114 244.917 385.094C244.937 385.08 244.964 385.08 244.991 385.094Z" fill="#4D61FC"/>
<path d="M251.702 386.925C251.594 385.982 251.52 385.039 251.432 384.097L251.23 381.269C251.169 380.326 250.994 379.384 251.095 378.441C251.183 377.498 251.331 376.555 251.702 375.613C251.715 375.572 251.756 375.559 251.796 375.572C251.816 375.579 251.83 375.593 251.836 375.613C252.207 376.555 252.355 377.498 252.443 378.441C252.544 379.384 252.369 380.326 252.308 381.269L252.106 384.097C252.018 385.039 251.944 385.982 251.836 386.925C251.83 386.965 251.796 386.992 251.762 386.985C251.735 386.979 251.708 386.952 251.702 386.925Z" fill="#4D61FC"/>
<path d="M670.666 550.781C670.666 541.078 671.016 533.597 666.805 520.157C662.595 506.718 662.008 494.207 662.008 492.106C662.008 490.006 662.008 489.649 662.595 488.719C663.181 487.79 662.595 486.383 662.595 486.383L661.921 484.592H662.251V482.835C662.251 482.835 662.527 480.996 660.647 480.996H652.428C650.541 480.996 650.824 482.835 650.824 482.835V484.592H651.154L650.48 486.383C650.48 486.383 649.894 487.784 650.48 488.719C651.067 489.655 651.067 490.006 651.067 492.106C651.067 494.214 650.48 506.718 646.27 520.157C642.059 533.597 642.409 541.078 642.409 550.781C642.409 560.483 642.409 575.815 642.409 575.815C642.409 575.815 642.294 581.074 647.321 581.074H665.687C670.72 581.074 670.666 575.815 670.666 575.815C670.666 575.815 670.666 560.483 670.666 550.781Z" fill="#3F4D79"/>
<path d="M666.812 520.151C662.601 506.711 662.015 494.2 662.015 492.093C662.015 489.985 662.015 489.635 662.601 488.706C663.187 487.77 662.601 486.37 662.601 486.37L661.927 484.579H662.258V482.821C662.258 482.821 662.534 480.983 660.654 480.983H656.962C658.848 480.983 658.565 482.821 658.565 482.821V484.579H658.235L658.909 486.37C658.909 486.37 659.495 487.77 658.909 488.706C658.323 489.642 658.323 489.992 658.323 492.093C658.323 494.194 658.909 506.704 663.12 520.151C667.331 533.59 666.981 541.071 666.981 550.774C666.981 560.477 666.981 575.808 666.981 575.808C666.981 575.808 667.028 581.067 662.002 581.067H665.694C670.727 581.067 670.673 575.808 670.673 575.808C670.673 575.808 670.673 560.477 670.673 550.774C670.666 541.078 671.016 533.597 666.812 520.151Z" fill="black"/>
<path d="M117.106 531.665L106.131 524.689C106.131 524.689 109.183 527.153 114.351 524.049L117.106 531.665Z" fill="#83878E"/>
<path d="M89.8869 464.035C90.434 464.035 90.8773 463.592 90.8773 463.045C90.8773 462.498 90.434 462.055 89.8869 462.055C89.3398 462.055 88.8965 462.498 88.8965 463.045C88.8965 463.592 89.3398 464.035 89.8869 464.035Z" fill="#4D61FC"/>
<path d="M93.7272 464.035C94.2743 464.035 94.7176 463.592 94.7176 463.045C94.7176 462.498 94.2743 462.055 93.7272 462.055C93.1801 462.055 92.7368 462.498 92.7368 463.045C92.7368 463.592 93.1801 464.035 93.7272 464.035Z" fill="#21252B"/>
<path d="M97.5607 464.035C98.1078 464.035 98.5511 463.592 98.5511 463.045C98.5511 462.498 98.1078 462.055 97.5607 462.055C97.0136 462.055 96.5703 462.498 96.5703 463.045C96.5703 463.592 97.0136 464.035 97.5607 464.035Z" fill="#21252B"/>
<path d="M466.083 464.318C466.629 464.318 467.073 463.875 467.073 463.328C467.073 462.781 466.629 462.338 466.083 462.338C465.536 462.338 465.092 462.781 465.092 463.328C465.092 463.875 465.536 464.318 466.083 464.318Z" fill="#4D61FC"/>
<path d="M469.916 464.318C470.463 464.318 470.906 463.875 470.906 463.328C470.906 462.781 470.463 462.338 469.916 462.338C469.369 462.338 468.925 462.781 468.925 463.328C468.925 463.875 469.369 464.318 469.916 464.318Z" fill="#21252B"/>
<path d="M473.756 464.318C474.303 464.318 474.746 463.875 474.746 463.328C474.746 462.781 474.303 462.338 473.756 462.338C473.209 462.338 472.766 462.781 472.766 463.328C472.766 463.875 473.209 464.318 473.756 464.318Z" fill="#21252B"/>
<path d="M652.832 365.587H585.976C582.432 365.587 579.562 362.719 579.562 359.177V342.815C579.562 339.273 582.432 336.405 585.976 336.405H652.832C656.376 336.405 659.246 339.273 659.246 342.815V359.177C659.246 362.712 656.376 365.587 652.832 365.587Z" fill="#6562CF"/>
<path d="M603.574 355.366C605.986 355.366 607.947 353.409 607.947 350.996C607.947 348.582 605.986 346.626 603.574 346.626C601.162 346.626 599.202 348.582 599.202 350.996C599.202 353.409 601.162 355.366 603.574 355.366Z" fill="white"/>
<path d="M620.64 355.366C623.052 355.366 625.013 353.409 625.013 350.996C625.013 348.582 623.052 346.626 620.64 346.626C618.228 346.626 616.268 348.582 616.268 350.996C616.268 353.409 618.228 355.366 620.64 355.366Z" fill="white"/>
<path d="M637.7 355.366C640.112 355.366 642.072 353.409 642.072 350.996C642.072 348.582 640.112 346.626 637.7 346.626C635.288 346.626 633.327 348.582 633.327 350.996C633.327 353.409 635.288 355.366 637.7 355.366Z" fill="white"/>
<path opacity="0.6" d="M204.303 176.057H180.203V332.829H204.303V176.057Z" fill="white"/>
<path d="M197.997 188.487H186.509V199.967H197.997V188.487Z" fill="#6562CF"/>
<path d="M191.784 212.721H187.203V218.457H191.784V212.721Z" fill="#61656D"/>
<path d="M197.302 218.182H192.721V223.918H197.302V218.182Z" fill="#61656D"/>
<path d="M191.784 219.34H187.203V223.918H191.784V219.34Z" fill="#61656D"/>
<path d="M197.302 212.721H192.721V217.299H197.302V212.721Z" fill="#61656D"/>
<path d="M197.997 308.92H186.509V320.4H197.997V308.92Z" fill="#61656D"/>
<path d="M192.498 318.481H192.013C191.852 318.481 191.724 318.353 191.724 318.192V311.135C191.724 310.974 191.852 310.846 192.013 310.846H192.498C192.66 310.846 192.788 310.974 192.788 311.135V318.192C192.788 318.347 192.653 318.481 192.498 318.481Z" fill="white"/>
<path d="M196.07 314.421V314.906C196.07 315.068 195.942 315.195 195.78 315.195H188.719C188.558 315.195 188.43 315.068 188.43 314.906V314.421C188.43 314.26 188.558 314.132 188.719 314.132H195.78C195.942 314.132 196.07 314.26 196.07 314.421Z" fill="white"/>
<path d="M188.881 246.191L188.463 245.774C188.329 245.639 188.329 245.417 188.463 245.276L194.514 239.229C194.648 239.095 194.871 239.095 195.012 239.229L195.43 239.647C195.565 239.781 195.565 240.003 195.43 240.145L189.38 246.191C189.238 246.326 189.016 246.326 188.881 246.191Z" fill="#61656D"/>
<path d="M196.144 241.97L192.688 238.516H196.144V241.97Z" fill="#61656D"/>
<path d="M186.819 265.557L192.257 261.651L197.687 265.557L192.257 269.213L186.819 265.557Z" fill="#61656D"/>
<path d="M197.687 266.5L192.257 270.163L186.819 266.5V267.523L192.257 271.328L197.687 267.55V266.5Z" fill="#61656D"/>
<path d="M194.129 288.296C194.189 288.242 194.216 288.168 194.216 288.087V286.774C194.216 286.686 194.189 286.612 194.129 286.558C194.068 286.498 193.994 286.471 193.913 286.471H187.533C187.445 286.471 187.371 286.498 187.317 286.558C187.256 286.619 187.229 286.693 187.229 286.774V288.087C187.229 288.174 187.256 288.242 187.317 288.296C187.378 288.35 187.445 288.376 187.533 288.376H189.601V294.389C189.601 294.477 189.628 294.544 189.689 294.598C189.749 294.652 189.817 294.679 189.904 294.679H191.542C191.629 294.679 191.703 294.652 191.757 294.598C191.818 294.544 191.845 294.47 191.845 294.389V288.376H193.913C193.994 288.376 194.068 288.35 194.129 288.296Z" fill="#61656D"/>
<path d="M197.161 289.467C197.08 289.386 196.972 289.345 196.857 289.345H193.206C193.091 289.345 192.983 289.386 192.902 289.473C192.822 289.554 192.774 289.662 192.774 289.776V290.531C192.774 290.652 192.822 290.759 192.902 290.84C192.983 290.914 193.084 290.955 193.199 290.955H194.129V294.14C194.129 294.261 194.176 294.369 194.263 294.449C194.344 294.523 194.445 294.564 194.56 294.564H195.496C195.611 294.564 195.712 294.523 195.793 294.449C195.88 294.369 195.928 294.261 195.928 294.14V290.955H196.857C196.972 290.955 197.073 290.914 197.154 290.84C197.241 290.759 197.282 290.652 197.282 290.531V289.776C197.282 289.655 197.241 289.554 197.161 289.467Z" fill="#61656D"/>
<path opacity="0.6" d="M444.657 136.223H267.036V161.816H444.657V136.223Z" fill="white"/>
<path d="M359.771 141.3H276.886V156.733H359.771V141.3Z" fill="white"/>
<path d="M284.505 150.839C284.169 150.839 283.879 150.786 283.632 150.681C283.39 150.577 283.205 150.439 283.075 150.27C282.946 150.096 282.877 149.911 282.869 149.713C282.869 149.681 282.881 149.652 282.905 149.628C282.934 149.6 282.966 149.586 283.003 149.586H283.311C283.388 149.586 283.44 149.626 283.469 149.707C283.505 149.877 283.608 150.022 283.778 150.142C283.952 150.264 284.194 150.324 284.505 150.324C284.84 150.324 285.092 150.266 285.262 150.149C285.431 150.028 285.516 149.86 285.516 149.646C285.516 149.509 285.474 149.398 285.389 149.314C285.308 149.229 285.188 149.154 285.026 149.089C284.864 149.025 284.622 148.944 284.299 148.847C283.984 148.758 283.734 148.664 283.548 148.563C283.362 148.462 283.223 148.337 283.13 148.187C283.037 148.038 282.99 147.85 282.99 147.624C282.99 147.407 283.049 147.211 283.166 147.037C283.288 146.863 283.459 146.729 283.681 146.632C283.903 146.531 284.167 146.48 284.475 146.48C284.789 146.48 285.06 146.537 285.286 146.65C285.512 146.759 285.684 146.898 285.801 147.067C285.918 147.237 285.981 147.407 285.989 147.576C285.989 147.608 285.976 147.636 285.952 147.661C285.932 147.685 285.902 147.697 285.862 147.697H285.541C285.456 147.697 285.403 147.659 285.383 147.582C285.359 147.413 285.264 147.273 285.099 147.164C284.933 147.051 284.725 146.995 284.475 146.995C284.2 146.995 283.983 147.047 283.827 147.152C283.669 147.257 283.59 147.413 283.59 147.618C283.59 147.756 283.626 147.869 283.699 147.958C283.776 148.046 283.891 148.124 284.044 148.193C284.198 148.258 284.422 148.333 284.717 148.417C285.06 148.51 285.33 148.607 285.528 148.708C285.726 148.805 285.874 148.928 285.97 149.077C286.067 149.223 286.116 149.408 286.116 149.634C286.116 150.01 285.97 150.304 285.68 150.518C285.389 150.732 284.998 150.839 284.505 150.839Z" fill="#61656D"/>
<path d="M307.959 141.252H292.422V156.78H307.959V141.252Z" fill="#6562CF"/>
<path d="M298.002 150.328C297.951 150.328 297.908 150.314 297.872 150.283C297.842 150.247 297.826 150.204 297.826 150.153V145.167C297.826 145.111 297.842 145.068 297.872 145.038C297.908 145.002 297.951 144.984 298.002 144.984H298.384C298.466 144.984 298.532 145.025 298.582 145.107L300.194 148.191L301.822 145.107C301.832 145.076 301.852 145.048 301.883 145.023C301.919 144.997 301.962 144.984 302.013 144.984H302.387C302.443 144.984 302.487 145.002 302.517 145.038C302.553 145.068 302.57 145.111 302.57 145.167V150.153C302.57 150.204 302.553 150.247 302.517 150.283C302.481 150.314 302.438 150.328 302.387 150.328H302.013C301.962 150.328 301.919 150.314 301.883 150.283C301.852 150.247 301.837 150.204 301.837 150.153V146.397L300.561 148.885C300.51 148.992 300.429 149.046 300.316 149.046H300.08C299.968 149.046 299.887 148.992 299.835 148.885L298.552 146.397V150.153C298.552 150.204 298.534 150.247 298.499 150.283C298.468 150.314 298.427 150.328 298.376 150.328H298.002Z" fill="white"/>
<path d="M314.736 150.778C314.696 150.778 314.661 150.766 314.633 150.742C314.609 150.714 314.597 150.679 314.597 150.64V146.68C314.597 146.64 314.609 146.608 314.633 146.583C314.661 146.555 314.696 146.541 314.736 146.541H315.057C315.098 146.541 315.13 146.555 315.154 146.583C315.182 146.608 315.196 146.64 315.196 146.68V150.252H317.207C317.252 150.252 317.286 150.266 317.311 150.294C317.339 150.318 317.353 150.353 317.353 150.397V150.64C317.353 150.679 317.339 150.714 317.311 150.742C317.282 150.766 317.248 150.778 317.207 150.778H314.736Z" fill="#61656D"/>
<path d="M327.744 150.778C327.712 150.778 327.681 150.766 327.653 150.742C327.629 150.718 327.617 150.689 327.617 150.658C327.617 150.629 327.625 150.603 327.641 150.579L329.028 148.624L327.708 146.741C327.696 146.721 327.689 146.695 327.689 146.662C327.689 146.63 327.702 146.602 327.726 146.577C327.75 146.553 327.778 146.541 327.811 146.541H328.175C328.235 146.541 328.289 146.575 328.338 146.644L329.404 148.157L330.464 146.644C330.504 146.575 330.557 146.541 330.622 146.541H330.967C330.999 146.541 331.027 146.553 331.051 146.577C331.076 146.602 331.088 146.63 331.088 146.662C331.088 146.699 331.08 146.725 331.064 146.741L329.761 148.63L331.142 150.579C331.159 150.603 331.167 150.629 331.167 150.658C331.167 150.689 331.155 150.718 331.13 150.742C331.106 150.766 331.076 150.778 331.039 150.778H330.67C330.61 150.778 330.555 150.744 330.506 150.676L329.38 149.108L328.259 150.676C328.219 150.744 328.167 150.778 328.102 150.778H327.744ZM331.971 150.778C331.931 150.778 331.896 150.766 331.868 150.742C331.844 150.714 331.832 150.679 331.832 150.64V146.68C331.832 146.64 331.844 146.608 331.868 146.583C331.896 146.555 331.931 146.541 331.971 146.541H332.293C332.332 146.541 332.365 146.555 332.389 146.583C332.417 146.608 332.431 146.64 332.431 146.68V150.252H334.442C334.487 150.252 334.521 150.266 334.546 150.294C334.574 150.318 334.588 150.353 334.588 150.397V150.64C334.588 150.679 334.574 150.714 334.546 150.742C334.517 150.766 334.483 150.778 334.442 150.778H331.971Z" fill="#61656D"/>
<path d="M344.101 150.778C344.069 150.778 344.039 150.766 344.011 150.742C343.986 150.718 343.974 150.689 343.974 150.658C343.974 150.629 343.982 150.603 343.998 150.579L345.386 148.624L344.065 146.741C344.053 146.721 344.047 146.695 344.047 146.662C344.047 146.63 344.059 146.602 344.083 146.577C344.108 146.553 344.136 146.541 344.168 146.541H344.531C344.592 146.541 344.647 146.575 344.695 146.644L345.761 148.157L346.821 146.644C346.861 146.575 346.914 146.541 346.978 146.541H347.324C347.356 146.541 347.385 146.553 347.408 146.577C347.432 146.602 347.445 146.63 347.445 146.662C347.445 146.699 347.437 146.725 347.42 146.741L346.118 148.63L347.499 150.579C347.515 150.603 347.523 150.629 347.523 150.658C347.523 150.689 347.511 150.718 347.487 150.742C347.463 150.766 347.432 150.778 347.397 150.778H347.027C346.966 150.778 346.912 150.744 346.863 150.676L345.737 149.108L344.616 150.676C344.576 150.744 344.523 150.778 344.459 150.778H344.101ZM347.934 150.778C347.902 150.778 347.872 150.766 347.843 150.742C347.819 150.718 347.807 150.689 347.807 150.658C347.807 150.629 347.815 150.603 347.831 150.579L349.219 148.624L347.898 146.741C347.886 146.721 347.88 146.695 347.88 146.662C347.88 146.63 347.892 146.602 347.916 146.577C347.94 146.553 347.969 146.541 348.001 146.541H348.364C348.425 146.541 348.48 146.575 348.528 146.644L349.594 148.157L350.654 146.644C350.695 146.575 350.747 146.541 350.812 146.541H351.157C351.189 146.541 351.218 146.553 351.242 146.577C351.266 146.602 351.278 146.63 351.278 146.662C351.278 146.699 351.27 146.725 351.254 146.741L349.952 148.63L351.333 150.579C351.349 150.603 351.357 150.629 351.357 150.658C351.357 150.689 351.345 150.718 351.321 150.742C351.296 150.766 351.266 150.778 351.23 150.778H350.86C350.8 150.778 350.745 150.744 350.697 150.676L349.57 149.108L348.449 150.676C348.409 150.744 348.356 150.778 348.292 150.778H347.934ZM352.162 150.778C352.121 150.778 352.087 150.766 352.058 150.742C352.034 150.714 352.022 150.679 352.022 150.64V146.68C352.022 146.64 352.034 146.608 352.058 146.583C352.087 146.555 352.121 146.541 352.162 146.541H352.482C352.523 146.541 352.555 146.555 352.579 146.583C352.608 146.608 352.622 146.64 352.622 146.68V150.252H354.633C354.677 150.252 354.712 150.266 354.736 150.294C354.764 150.318 354.778 150.353 354.778 150.397V150.64C354.778 150.679 354.764 150.714 354.736 150.742C354.708 150.766 354.673 150.778 354.633 150.778H352.162Z" fill="#61656D"/>
<path d="M323.832 144.74H323.159V153.299H323.832V144.74Z" fill="#B2B6BB"/>
<path d="M339.37 144.74H338.696V153.299H339.37V144.74Z" fill="#B2B6BB"/>
<path d="M372.848 152.881C374.984 152.881 376.715 151.151 376.715 149.016C376.715 146.882 374.984 145.151 372.848 145.151C370.712 145.151 368.98 146.882 368.98 149.016C368.98 151.151 370.712 152.881 372.848 152.881Z" fill="#4D61FC"/>
<path opacity="0.2" d="M372.848 152.881C374.984 152.881 376.715 151.151 376.715 149.016C376.715 146.882 374.984 145.151 372.848 145.151C370.712 145.151 368.98 146.882 368.98 149.016C368.98 151.151 370.712 152.881 372.848 152.881Z" fill="white"/>
<path d="M386.99 142.182H386.316V155.857H386.99V142.182Z" fill="#B2B6BB"/>
<path d="M382.84 148.094L380.993 149.945L379.141 148.094H382.84Z" fill="#61656D"/>
<path d="M395.392 152.585C395.661 152.551 395.863 152.484 395.991 152.389C396.119 152.288 396.227 152.086 396.315 151.777L397.709 146.693C397.75 146.552 397.783 146.43 397.804 146.329C397.824 146.228 397.831 146.148 397.831 146.074C397.831 145.878 397.777 145.764 397.669 145.71C397.561 145.656 397.339 145.622 397.002 145.589V145.292H400.377V145.589C400.101 145.622 399.899 145.69 399.778 145.791C399.656 145.885 399.549 146.094 399.468 146.403L398.066 151.487L397.979 151.878C397.972 151.911 397.965 151.952 397.959 151.992C397.952 152.033 397.952 152.066 397.952 152.1C397.952 152.288 398.006 152.41 398.107 152.463C398.208 152.517 398.43 152.558 398.774 152.585V152.881H395.398V152.585H395.392Z" fill="#61656D"/>
<path d="M408.625 145.872H415.901" stroke="#61656D" stroke-width="1.5" stroke-miterlimit="10"/>
<path d="M408.625 152.666H415.901" stroke="#61656D" stroke-width="1.5" stroke-miterlimit="10"/>
<path d="M408.625 149.265H415.901" stroke="#61656D" stroke-width="1.5" stroke-miterlimit="10"/>
<path d="M410.006 150.969H414.52" stroke="#61656D" stroke-width="1.5" stroke-miterlimit="10"/>
<path d="M409.864 147.44H414.668" stroke="#61656D" stroke-width="1.5" stroke-miterlimit="10"/>
<path d="M428.743 151.615H426.196C424.896 151.615 423.845 150.565 423.845 149.265C423.845 147.966 424.896 146.915 426.196 146.915H428.743" stroke="#61656D" stroke-width="1.5" stroke-miterlimit="10"/>
<path d="M429.78 151.615H432.327C433.627 151.615 434.678 150.565 434.678 149.265C434.678 147.966 433.627 146.915 432.327 146.915H429.78" stroke="#61656D" stroke-width="1.5" stroke-miterlimit="10"/>
<path d="M427.079 149.265H431.445" stroke="#61656D" stroke-width="1.5" stroke-miterlimit="10"/>
<path d="M518.379 113.619C518.358 113.471 518.19 113.356 518.035 113.356C517.395 113.37 516.856 112.858 516.842 112.218C516.836 111.875 516.977 111.552 517.233 111.323C517.348 111.222 517.361 111.04 517.267 110.919C517.018 110.609 516.735 110.319 516.425 110.07C516.303 109.976 516.128 109.99 516.02 110.104C515.684 110.461 515.158 110.575 514.7 110.4C514.242 110.205 513.959 109.747 513.986 109.249C513.993 109.094 513.878 108.959 513.723 108.939C513.325 108.892 512.928 108.892 512.53 108.939C512.375 108.959 512.261 109.087 512.268 109.242C512.288 109.734 511.998 110.185 511.54 110.373C511.082 110.542 510.57 110.427 510.226 110.077C510.125 109.963 509.95 109.949 509.829 110.043C509.512 110.293 509.222 110.575 508.973 110.892C508.879 111.013 508.892 111.188 509.007 111.296C509.377 111.626 509.499 112.158 509.303 112.622C509.094 113.067 508.643 113.349 508.151 113.336C507.996 113.329 507.861 113.444 507.848 113.599C507.801 113.996 507.801 114.4 507.848 114.804C507.861 114.959 508.043 115.066 508.191 115.066C508.67 115.06 509.101 115.349 509.283 115.794C509.465 116.252 509.35 116.77 508.987 117.1C508.872 117.201 508.859 117.376 508.953 117.497C509.202 117.814 509.478 118.096 509.788 118.346C509.91 118.447 510.085 118.433 510.193 118.312C510.529 117.955 511.055 117.834 511.513 118.016C511.971 118.211 512.254 118.669 512.227 119.167C512.22 119.322 512.335 119.457 512.49 119.477C512.692 119.497 512.894 119.51 513.103 119.51C513.299 119.51 513.494 119.497 513.683 119.477C513.837 119.457 513.952 119.329 513.945 119.174C513.925 118.682 514.215 118.231 514.666 118.043C515.124 117.874 515.636 117.989 515.973 118.346C516.074 118.46 516.25 118.474 516.371 118.379C516.687 118.13 516.977 117.847 517.226 117.531C517.328 117.41 517.314 117.235 517.193 117.127C516.708 116.703 516.661 115.969 517.092 115.484C517.314 115.228 517.644 115.087 517.981 115.087H518.048C518.203 115.093 518.338 114.979 518.358 114.824C518.419 114.42 518.419 114.016 518.379 113.619ZM513.123 115.982C512.146 115.982 511.358 115.194 511.358 114.218C511.358 113.242 512.146 112.454 513.123 112.454C514.1 112.454 514.889 113.242 514.889 114.218C514.889 115.188 514.1 115.982 513.123 115.982Z" fill="white"/>
<path d="M527.016 118.231C527.481 118.231 527.852 117.858 527.852 117.396C527.852 116.935 527.481 116.562 527.016 116.562C526.558 116.562 526.181 116.935 526.181 117.396C526.181 117.858 526.558 118.231 527.016 118.231Z" fill="white"/>
<path d="M527.016 115.052C527.481 115.052 527.852 114.679 527.852 114.217C527.852 113.756 527.481 113.383 527.016 113.383C526.558 113.383 526.181 113.756 526.181 114.217C526.181 114.679 526.558 115.052 527.016 115.052Z" fill="white"/>
<path d="M527.016 111.875C527.481 111.875 527.852 111.501 527.852 111.04C527.852 110.579 527.481 110.205 527.016 110.205C526.558 110.205 526.181 110.579 526.181 111.04C526.181 111.501 526.558 111.875 527.016 111.875Z" fill="white"/>
<path d="M373.576 247.404H300.798C299.801 247.404 298.992 246.596 298.992 245.6V222.989C298.992 221.993 299.801 221.185 300.798 221.185H373.576C374.573 221.185 375.382 221.993 375.382 222.989V245.6C375.382 246.596 374.573 247.404 373.576 247.404Z" fill="#4D61FC"/>
<path opacity="0.2" d="M373.576 247.404H300.798C299.801 247.404 298.992 246.596 298.992 245.6V222.989C298.992 221.993 299.801 221.185 300.798 221.185H373.576C374.573 221.185 375.382 221.993 375.382 222.989V245.6C375.382 246.596 374.573 247.404 373.576 247.404Z" fill="white"/>
<path d="M360.862 228.558H307.589C306.726 228.558 306.019 227.857 306.019 226.989C306.019 226.127 306.72 225.42 307.589 225.42H360.862C361.725 225.42 362.432 226.12 362.432 226.989C362.419 227.857 361.725 228.558 360.862 228.558Z" fill="#4D61FC"/>
<path opacity="0.15" d="M327.97 243.162H308.243C307.016 243.162 306.026 242.172 306.026 240.947V237.291C306.026 236.065 307.016 235.075 308.243 235.075H327.97C329.196 235.075 330.187 236.065 330.187 237.291V240.947C330.187 242.172 329.196 243.162 327.97 243.162Z" fill="white"/>
<path opacity="0.5" d="M360.862 228.558H307.589C306.726 228.558 306.019 227.857 306.019 226.989C306.019 226.127 306.72 225.42 307.589 225.42H360.862C361.725 225.42 362.432 226.12 362.432 226.989C362.419 227.857 361.725 228.558 360.862 228.558Z" fill="white"/>
<path d="M327.97 243.162H308.243C307.017 243.162 306.026 242.172 306.026 240.947V237.291C306.026 236.065 307.017 235.075 308.243 235.075H327.97C329.197 235.075 330.187 236.065 330.187 237.291V240.947C330.187 242.172 329.197 243.162 327.97 243.162Z" fill="#4D61FC"/>
<path opacity="0.15" d="M327.97 243.162H308.243C307.017 243.162 306.026 242.172 306.026 240.947V237.291C306.026 236.065 307.017 235.075 308.243 235.075H327.97C329.197 235.075 330.187 236.065 330.187 237.291V240.947C330.187 242.172 329.197 243.162 327.97 243.162Z" fill="white"/>
<path d="M327.97 243.162H308.243C307.017 243.162 306.026 242.172 306.026 240.947V237.291C306.026 236.065 307.017 235.075 308.243 235.075H327.97C329.197 235.075 330.187 236.065 330.187 237.291V240.947C330.187 242.172 329.197 243.162 327.97 243.162Z" fill="white"/>
<path d="M313.41 211.562H240.632C239.635 211.562 238.826 210.754 238.826 209.757V187.147C238.826 186.15 239.635 185.342 240.632 185.342H313.41C314.407 185.342 315.216 186.15 315.216 187.147V209.757C315.216 210.754 314.407 211.562 313.41 211.562Z" fill="#4D61FC"/>
<path opacity="0.5" d="M313.41 211.562H240.632C239.635 211.562 238.826 210.754 238.826 209.757V187.147C238.826 186.15 239.635 185.342 240.632 185.342H313.41C314.407 185.342 315.216 186.15 315.216 187.147V209.757C315.216 210.754 314.407 211.562 313.41 211.562Z" fill="white"/>
<path d="M313.41 319.073H240.632C239.635 319.073 238.826 318.265 238.826 317.269V294.652C238.826 293.655 239.635 292.847 240.632 292.847H313.41C314.407 292.847 315.216 293.655 315.216 294.652V317.262C315.216 318.266 314.407 319.073 313.41 319.073Z" fill="#4D61FC"/>
<path opacity="0.5" d="M313.41 319.073H240.632C239.635 319.073 238.826 318.265 238.826 317.269V294.652C238.826 293.655 239.635 292.847 240.632 292.847H313.41C314.407 292.847 315.216 293.655 315.216 294.652V317.262C315.216 318.266 314.407 319.073 313.41 319.073Z" fill="white"/>
<path d="M300.69 300.227H247.417C246.554 300.227 245.847 299.526 245.847 298.658C245.847 297.796 246.547 297.089 247.417 297.089H300.69C301.552 297.089 302.26 297.789 302.26 298.658C302.253 299.52 301.559 300.227 300.69 300.227Z" fill="#6562CF"/>
<path d="M313.41 283.447H240.632C239.635 283.447 238.826 282.639 238.826 281.643V259.032C238.826 258.036 239.635 257.228 240.632 257.228H313.41C314.407 257.228 315.216 258.036 315.216 259.032V281.643C315.216 282.639 314.407 283.447 313.41 283.447Z" fill="#4D61FC"/>
<path opacity="0.5" d="M313.41 283.447H240.632C239.635 283.447 238.826 282.639 238.826 281.643V259.032C238.826 258.036 239.635 257.228 240.632 257.228H313.41C314.407 257.228 315.216 258.036 315.216 259.032V281.643C315.216 282.639 314.407 283.447 313.41 283.447Z" fill="white"/>
<path d="M247.774 268.189H245.186C244.519 268.189 243.974 267.651 243.974 266.977V264.392C243.974 263.725 244.513 263.18 245.186 263.18H247.774C248.441 263.18 248.986 263.718 248.986 264.392V266.977C248.986 267.644 248.441 268.189 247.774 268.189Z" fill="#4D61FC"/>
<path opacity="0.7" d="M247.774 268.189H245.186C244.519 268.189 243.974 267.651 243.974 266.977V264.392C243.974 263.725 244.513 263.18 245.186 263.18H247.774C248.441 263.18 248.986 263.718 248.986 264.392V266.977C248.986 267.644 248.441 268.189 247.774 268.189Z" fill="white"/>
<path d="M247.774 277.495H245.186C244.519 277.495 243.974 276.956 243.974 276.283V273.697C243.974 273.03 244.513 272.485 245.186 272.485H247.774C248.441 272.485 248.986 273.024 248.986 273.697V276.283C248.986 276.956 248.441 277.495 247.774 277.495Z" fill="#6562CF"/>
<path d="M288.603 266.896H253.777C253.103 266.896 252.557 266.351 252.557 265.678C252.557 265.004 253.103 264.459 253.777 264.459H288.603C289.277 264.459 289.822 265.004 289.822 265.678C289.822 266.351 289.277 266.896 288.603 266.896Z" fill="#4D61FC"/>
<path d="M288.603 276.209H253.777C253.103 276.209 252.557 275.663 252.557 274.99C252.557 274.317 253.103 273.771 253.777 273.771H288.603C289.277 273.771 289.822 274.317 289.822 274.99C289.822 275.663 289.277 276.209 288.603 276.209Z" fill="#4D61FC"/>
<path opacity="0.7" d="M288.603 266.896H253.777C253.103 266.896 252.557 266.351 252.557 265.678C252.557 265.004 253.103 264.459 253.777 264.459H288.603C289.277 264.459 289.822 265.004 289.822 265.678C289.822 266.351 289.277 266.896 288.603 266.896Z" fill="white"/>
<path opacity="0.7" d="M288.603 276.209H253.777C253.103 276.209 252.557 275.663 252.557 274.99C252.557 274.317 253.103 273.771 253.777 273.771H288.603C289.277 273.771 289.822 274.317 289.822 274.99C289.822 275.663 289.277 276.209 288.603 276.209Z" fill="white"/>
<path d="M308.856 266.896H299.268C298.595 266.896 298.049 266.351 298.049 265.678C298.049 265.004 298.595 264.459 299.268 264.459H308.856C309.53 264.459 310.075 265.004 310.075 265.678C310.075 266.351 309.53 266.896 308.856 266.896Z" fill="#4D61FC"/>
<path d="M308.856 276.209H299.268C298.595 276.209 298.049 275.663 298.049 274.99C298.049 274.317 298.595 273.771 299.268 273.771H308.856C309.53 273.771 310.075 274.317 310.075 274.99C310.075 275.663 309.53 276.209 308.856 276.209Z" fill="#4D61FC"/>
<path d="M250.88 314.831C248.104 314.831 245.854 312.582 245.854 309.808C245.854 307.034 248.104 304.785 250.88 304.785C253.656 304.785 255.906 307.034 255.906 309.808C255.906 312.582 253.656 314.831 250.88 314.831Z" fill="#6562CF"/>
<path d="M251.492 204.883C247.942 204.883 245.058 202.001 245.058 198.452C245.058 194.904 247.942 192.022 251.492 192.022C255.043 192.022 257.927 194.904 257.927 198.452C257.927 202.007 255.05 204.883 251.492 204.883Z" fill="#6562CF"/>
<path d="M307.286 313.653H291.076C289.849 313.653 288.859 312.663 288.859 311.437V307.781C288.859 306.556 289.849 305.566 291.076 305.566H307.293C308.519 305.566 309.509 306.556 309.509 307.781V311.437C309.509 312.663 308.512 313.653 307.286 313.653Z" fill="#4D61FC"/>
<path opacity="0.7" d="M307.286 313.653H291.076C289.849 313.653 288.859 312.663 288.859 311.437V307.781C288.859 306.556 289.849 305.566 291.076 305.566H307.293C308.519 305.566 309.509 306.556 309.509 307.781V311.437C309.509 312.663 308.512 313.653 307.286 313.653Z" fill="white"/>
<path d="M282.808 313.653H263.081C261.855 313.653 260.864 312.663 260.864 311.437V307.781C260.864 306.556 261.855 305.566 263.081 305.566H282.808C284.035 305.566 285.025 306.556 285.025 307.781V311.437C285.025 312.663 284.035 313.653 282.808 313.653Z" fill="#4D61FC"/>
<path opacity="0.7" d="M282.808 313.653H263.081C261.855 313.653 260.864 312.663 260.864 311.437V307.781C260.864 306.556 261.855 305.566 263.081 305.566H282.808C284.035 305.566 285.025 306.556 285.025 307.781V311.437C285.025 312.663 284.035 313.653 282.808 313.653Z" fill="white"/>
<path d="M305.737 202.499H267.872C266.646 202.499 265.655 201.509 265.655 200.284V196.627C265.655 195.402 266.646 194.412 267.872 194.412H305.737C306.963 194.412 307.953 195.402 307.953 196.627V200.284C307.96 201.509 306.963 202.499 305.737 202.499Z" fill="#4D61FC"/>
<path opacity="0.7" d="M305.737 202.499H267.872C266.646 202.499 265.655 201.509 265.655 200.284V196.627C265.655 195.402 266.646 194.412 267.872 194.412H305.737C306.963 194.412 307.953 195.402 307.953 196.627V200.284C307.96 201.509 306.963 202.499 305.737 202.499Z" fill="white"/>
<path d="M420.84 262.339H337.227C337.039 262.339 336.891 262.191 336.891 262.002V249.053C336.891 248.865 337.039 248.717 337.227 248.717C337.416 248.717 337.564 248.865 337.564 249.053V261.665H420.84C421.028 261.665 421.177 261.814 421.177 262.002C421.177 262.191 421.028 262.339 420.84 262.339Z" fill="#61656D"/>
<path d="M375.383 252.433C380.506 252.433 384.66 248.282 384.66 243.161C384.66 238.041 380.506 233.89 375.383 233.89C370.259 233.89 366.105 238.041 366.105 243.161C366.105 248.282 370.259 252.433 375.383 252.433Z" fill="#3F4249"/>
<path d="M379.606 242.193C379.606 244.691 375.685 247.074 375.509 247.169C375.469 247.195 375.415 247.209 375.375 247.209C375.334 247.209 375.28 247.195 375.24 247.169C375.072 247.074 371.144 244.684 371.144 242.193C371.144 240.886 372.215 239.816 373.522 239.816C374.25 239.816 374.923 240.146 375.368 240.698C375.819 240.146 376.493 239.816 377.214 239.816C378.535 239.816 379.606 240.886 379.606 242.193Z" fill="white"/>
<path d="M419.776 265.981L423.758 262.002L419.776 258.023V265.981Z" fill="#61656D" stroke="#61656D" stroke-miterlimit="10" stroke-linecap="round" stroke-linejoin="round"/>
<path d="M521.99 392.042C522.556 392.042 523.014 391.584 523.014 391.019C523.014 390.453 522.556 389.995 521.99 389.995C521.424 389.995 520.966 390.453 520.966 391.019C520.966 391.584 521.424 392.042 521.99 392.042Z" fill="#3F4249"/>
<path d="M521.99 389.995C521.929 389.995 521.875 390.002 521.821 390.016C522.306 390.096 522.677 390.514 522.677 391.019C522.677 391.524 522.306 391.941 521.821 392.022C521.875 392.029 521.929 392.042 521.99 392.042C522.556 392.042 523.014 391.584 523.014 391.019C523.014 390.453 522.556 389.995 521.99 389.995Z" fill="black"/>
<path d="M187.695 134.506C182.669 134.506 178.593 130.432 178.593 125.409C178.593 120.386 182.669 116.312 187.695 116.312C192.721 116.312 196.798 120.386 196.798 125.409C196.791 130.432 192.721 134.506 187.695 134.506Z" fill="white"/>
<path d="M187.695 125.672C186.334 125.672 185.202 124.635 185.081 123.288L184.906 121.396C184.764 119.861 185.977 118.528 187.52 118.528H187.87C189.42 118.528 190.626 119.854 190.484 121.396L190.309 123.288C190.181 124.641 189.049 125.672 187.695 125.672Z" fill="#6562CF"/>
<path d="M195.403 130.243C195.039 130.823 194.608 131.361 194.129 131.839C192.479 133.482 190.208 134.506 187.695 134.506C184.448 134.506 181.598 132.809 179.987 130.243C180.432 128.223 182.244 126.708 184.4 126.708H190.99C193.152 126.708 194.951 128.223 195.403 130.243Z" fill="#6562CF"/>
<path d="M210.515 134.506C205.489 134.506 201.413 130.432 201.413 125.409C201.413 120.386 205.489 116.312 210.515 116.312C215.541 116.312 219.617 120.386 219.617 125.409C219.611 130.432 215.534 134.506 210.515 134.506Z" fill="white"/>
<path d="M210.514 125.672C209.153 125.672 208.022 124.635 207.9 123.288L207.725 121.396C207.584 119.861 208.796 118.528 210.339 118.528H210.69C212.239 118.528 213.445 119.854 213.304 121.396L213.129 123.288C213.001 124.641 211.862 125.672 210.514 125.672Z" fill="#3F4249"/>
<path d="M218.216 130.243C217.852 130.823 217.421 131.361 216.943 131.839C215.292 133.482 213.022 134.506 210.508 134.506C207.261 134.506 204.411 132.809 202.801 130.243C203.245 128.223 205.058 126.708 207.214 126.708H213.803C215.966 126.708 217.772 128.223 218.216 130.243Z" fill="#3F4249"/>
</svg>
