<svg width="549" height="525" viewBox="0 0 549 525" fill="none" xmlns="http://www.w3.org/2000/svg">
<path d="M48.4802 522.685L0.897793 211.95C0.257759 204.037 2.45828 196.155 7.10472 189.717L133.631 14.6654C137.013 9.98857 141.552 6.26871 146.804 3.87017C152.054 1.47163 157.838 0.475966 163.589 0.98105L596.733 39.1583C603.587 39.7637 610.09 42.4746 615.348 46.9189C620.6 51.3637 624.347 57.3244 626.081 63.9835L685.588 292.963C687.051 298.591 687.015 304.504 685.485 310.115L610.591 523.458L48.4802 522.685Z" fill="#F4F4F4"/>
<path d="M485.401 221.574L456.724 229.217L423.906 210.47L424.922 224.686L456.216 246.436L491.88 227.61L485.401 221.574Z" fill="#3F4249"/>
<path opacity="0.3" d="M485.401 221.574L456.724 229.217L423.906 210.47L424.922 224.686L456.216 246.436L491.88 227.61L485.401 221.574Z" fill="#3C4564"/>
<path d="M651.538 524.932H5.05024C4.91909 524.957 4.78432 524.945 4.65619 524.908C4.52746 524.878 4.4084 524.812 4.30686 524.727C4.20533 524.643 4.12373 524.534 4.06813 524.413C4.01192 524.292 3.98291 524.159 3.98291 524.026C3.98291 523.893 4.01192 523.76 4.06813 523.64C4.12373 523.519 4.20533 523.41 4.30686 523.325C4.4084 523.241 4.52746 523.174 4.65619 523.144C4.78432 523.108 4.91909 523.096 5.05024 523.12H651.538C651.671 523.096 651.804 523.108 651.931 523.144C652.064 523.174 652.179 523.241 652.282 523.325C652.384 523.41 652.463 523.519 652.523 523.64C652.578 523.76 652.608 523.893 652.608 524.026C652.608 524.159 652.578 524.292 652.523 524.413C652.463 524.534 652.384 524.643 652.282 524.727C652.179 524.812 652.064 524.878 651.931 524.908C651.804 524.945 651.671 524.957 651.538 524.932Z" fill="#B2B6BB"/>
<path d="M334.719 259.28C337.95 259.288 341.053 260.548 343.373 262.797L343.591 263.02L343.73 227.139H340.224C329.914 227.471 299.097 231.162 278.409 262.211C265.59 281.447 264.587 300.835 267.355 316.126H271.09L299.417 316.241L299.193 316.465C297.458 318.228 296.283 320.464 295.815 322.892C295.347 325.321 295.608 327.834 296.564 330.115C297.52 332.396 299.129 334.344 301.188 335.713C303.248 337.084 305.667 337.814 308.141 337.814C310.615 337.814 313.034 337.084 315.094 335.713C317.154 334.344 318.763 332.396 319.719 330.115C320.675 327.834 320.936 325.321 320.467 322.892C320 320.464 318.824 318.228 317.089 316.465L316.95 316.338H317.754L343.391 316.435L343.524 280.577L343.403 280.716C341.938 282.155 340.142 283.211 338.171 283.791C336.2 284.37 334.118 284.455 332.106 284.038C330.095 283.622 328.218 282.716 326.64 281.401C325.062 280.087 323.833 278.403 323.061 276.5C322.29 274.598 321.998 272.534 322.214 270.492C322.43 268.45 323.146 266.494 324.299 264.794C325.45 263.094 327.004 261.705 328.822 260.748C330.64 259.792 332.665 259.298 334.719 259.311V259.28Z" fill="#DADDDF"/>
<path d="M388.888 316.773L389.106 316.549C390.833 314.777 391.997 312.535 392.452 310.104C392.907 307.672 392.634 305.161 391.666 302.884C390.698 300.608 389.078 298.669 387.011 297.309C384.943 295.95 382.52 295.232 380.046 295.245C377.571 295.259 375.156 296.003 373.103 297.384C371.051 298.766 369.452 300.723 368.509 303.009C367.565 305.296 367.319 307.811 367.801 310.237C368.283 312.663 369.471 314.893 371.216 316.646L371.355 316.773H342.291V350.208L342.418 350.069C343.568 348.917 344.934 348.004 346.438 347.382C347.942 346.76 349.554 346.441 351.181 346.444C353.229 346.444 355.245 346.945 357.054 347.906C358.862 348.866 360.407 350.255 361.554 351.951C362.7 353.646 363.413 355.598 363.629 357.633C363.845 359.669 363.559 361.726 362.795 363.625C362.031 365.524 360.813 367.207 359.246 368.526C357.68 369.844 355.815 370.759 353.813 371.189C351.811 371.619 349.734 371.552 347.764 370.992C345.794 370.433 343.992 369.399 342.515 367.982L342.291 367.765V406.069H376.662C376.662 406.069 378.191 393.279 379.72 383.558C381.249 373.837 403 354.002 409.25 345.737C411.764 342.402 417.977 331.49 420.697 316.773H388.888Z" fill="#DADDDF"/>
<path d="M376.729 414.316H316.116C314.273 414.316 312.78 415.809 312.78 417.651V419.729C312.78 421.571 314.273 423.064 316.116 423.064H376.729C378.571 423.064 380.065 421.571 380.065 419.729V417.651C380.065 415.809 378.571 414.316 376.729 414.316Z" fill="#3F4249"/>
<path d="M328.917 428.296H365.179C365.179 428.296 360.344 437.963 346.304 437.963C331.642 437.932 328.917 428.296 328.917 428.296Z" fill="#3F4249"/>
<g opacity="0.3">
<path opacity="0.3" d="M388.888 316.773L389.106 316.549C390.833 314.777 391.997 312.535 392.452 310.104C392.907 307.672 392.634 305.161 391.666 302.884C390.698 300.608 389.078 298.669 387.011 297.309C384.943 295.95 382.52 295.232 380.046 295.245C377.571 295.259 375.156 296.003 373.103 297.384C371.051 298.766 369.452 300.723 368.509 303.009C367.565 305.296 367.319 307.811 367.801 310.237C368.283 312.663 369.471 314.893 371.216 316.646L371.355 316.773H342.291V350.208L342.418 350.673C344.678 348.425 347.742 346.444 351.181 346.444C354.501 346.444 357.684 347.762 360.032 350.108C362.379 352.455 363.698 355.637 363.698 358.956C363.698 362.275 362.379 365.457 360.032 367.803C357.684 370.15 354.501 371.468 351.181 371.468C347.815 371.468 344.763 369.541 342.515 367.378L342.291 367.765V406.069H376.662C376.662 406.069 378.191 393.279 379.72 383.558C381.249 373.837 403 354.002 409.25 345.737C411.764 342.402 417.977 331.49 420.697 316.773H388.888Z" stroke="black" stroke-width="2.52" stroke-miterlimit="10" stroke-dasharray="15.13 12.61"/>
</g>
<path opacity="0.3" d="M334.719 259.28C337.95 259.288 341.053 260.548 343.373 262.797L343.591 263.02L343.73 227.139H340.224C329.914 227.471 299.097 231.162 278.409 262.211C265.59 281.447 264.587 301.439 267.355 316.731H271.09L298.208 316.845L297.985 317.069C295.815 319.304 295.084 321.751 295.072 325.116C295.072 332.022 301.23 337.647 308.144 337.677C311.465 337.689 314.653 336.381 317.01 334.042C319.366 331.704 320.696 328.526 320.709 325.207C320.709 321.775 319.929 318.7 317.687 316.435L317.548 316.308H318.352L343.385 316.404L343.518 280.547L343.397 280.686C341.932 282.125 340.136 283.181 338.165 283.761C336.194 284.34 334.112 284.425 332.1 284.008C330.089 283.591 328.212 282.686 326.634 281.371C325.056 280.056 323.827 278.373 323.055 276.47C322.284 274.568 321.992 272.504 322.208 270.462C322.424 268.42 323.14 266.463 324.292 264.764C325.444 263.064 326.998 261.675 328.816 260.718C330.634 259.762 332.659 259.268 334.713 259.28H334.719Z" stroke="black" stroke-width="2.52" stroke-miterlimit="10" stroke-dasharray="15.13 12.61"/>
<path d="M342.291 261.298C339.934 258.996 336.775 257.697 333.479 257.673C326.402 257.625 320.649 264.494 320.594 271.521C320.54 278.547 326.209 286.13 333.256 286.184C334.915 286.199 336.561 285.887 338.099 285.264C339.637 284.642 341.037 283.723 342.219 282.559L342.346 282.42L342.068 317.607L373.066 317.824L372.921 317.697C370.577 315.306 369.274 312.085 369.295 308.737C369.349 301.693 373.29 296.05 380.337 296.05C387.384 296.05 391.215 301.856 391.215 308.901C391.195 312.194 389.895 315.351 387.589 317.703L387.359 317.933L420.068 317.564C423.09 302.007 422.268 283.918 409.431 264.162C388.707 232.274 357.346 228.154 346.842 227.695H342.817L342.539 261.528L342.291 261.298Z" fill="#DADDDF"/>
<path opacity="0.3" d="M343.5 262.507C342.006 261.049 340.177 259.981 338.173 259.395C336.17 258.809 334.053 258.723 332.009 259.146C329.965 259.568 328.055 260.485 326.448 261.817C324.841 263.149 323.586 264.854 322.792 266.784C321.998 268.714 321.69 270.809 321.894 272.885C322.098 274.962 322.809 276.957 323.964 278.695C325.12 280.433 326.684 281.861 328.52 282.854C330.356 283.846 332.407 284.374 334.495 284.39C336.154 284.405 337.8 284.092 339.338 283.47C340.875 282.848 342.276 281.929 343.458 280.765L343.585 280.626L343.307 316.416L371.283 316.634L371.138 316.507C369.398 314.712 368.226 312.442 367.768 309.985C367.311 307.526 367.588 304.988 368.566 302.687C369.544 300.386 371.178 298.423 373.266 297.046C375.353 295.668 377.8 294.936 380.301 294.941C382.802 294.946 385.246 295.688 387.328 297.073C389.41 298.459 391.037 300.428 392.005 302.733C392.974 305.038 393.241 307.578 392.774 310.034C392.307 312.491 391.126 314.754 389.378 316.543L389.149 316.773L420.044 317.009C423.066 301.451 422.244 283.967 409.407 264.21C388.683 232.323 357.322 228.202 346.818 227.743H344.002L343.724 262.785L343.5 262.507Z" stroke="black" stroke-width="2.52" stroke-miterlimit="10" stroke-dasharray="15.13 12.61"/>
<path d="M364.744 194.906C363.623 192.65 361.861 190.775 359.678 189.516C357.495 188.258 354.988 187.672 352.474 187.833C349.959 187.994 347.547 188.893 345.542 190.419C343.537 191.945 342.028 194.029 341.204 196.41C340.379 198.791 340.277 201.361 340.91 203.8C341.542 206.239 342.882 208.436 344.759 210.116C346.637 211.797 348.969 212.885 351.464 213.244C353.958 213.604 356.502 213.219 358.778 212.137L358.948 212.041L347.042 245.795L373.429 255.094L373.332 254.93C372.269 252.665 371.896 250.138 372.263 247.662C372.63 245.187 373.717 242.875 375.392 241.015C377.065 239.155 379.25 237.83 381.674 237.204C384.098 236.579 386.652 236.682 389.017 237.5C391.382 238.318 393.453 239.816 394.972 241.805C396.49 243.793 397.389 246.186 397.555 248.682C397.72 251.179 397.145 253.669 395.903 255.841C394.661 258.013 392.805 259.77 390.569 260.894L390.279 261.033L419.415 271.303C427.315 257.565 432.246 240.769 426.529 217.913C417.306 181.029 388.985 166.94 379.2 163.091L376.547 162.167L364.889 195.215L364.744 194.906Z" fill="#6562CF"/>
<path d="M343.149 406.165H310.634C310.634 406.165 309.105 393.375 307.57 383.654C306.035 373.933 284.271 354.098 278.046 345.833C275.532 342.504 269.319 330.385 266.563 315.661H299.683L299.459 315.885C297.44 317.985 296.219 320.725 296.008 323.63C295.404 331.95 303.587 338.372 311.565 335.931C316.321 334.475 319.198 330.137 319.198 324.549C319.195 322.92 318.87 321.308 318.242 319.804C317.615 318.301 316.698 316.936 315.542 315.788L315.403 315.661L342.865 315.867V349.301C342.865 349.301 346.075 345.936 352.36 346.111C358.646 346.286 362.798 351.349 363.807 355.856C364.816 360.364 364.315 369.831 355.503 371.776C347.096 373.631 342.769 368.097 342.769 368.097L342.896 406.371" fill="#6562CF"/>
<path d="M558.657 87.7635H445.718V131.65H558.657V87.7635Z" fill="white"/>
<path d="M558.984 131.958H445.397V87.4434H558.984V131.958ZM446.044 131.354H558.331V88.0898H446.044V131.354Z" fill="#DADDDF"/>
<path opacity="0.6" d="M558.657 87.7635H445.718V97.1704H558.657V87.7635Z" fill="#4D61FC"/>
<path opacity="0.6" d="M470.231 111.054V104.342H459.141V115.428H465.861V122.147H476.952V111.054H470.231Z" fill="#4D61FC"/>
<path d="M496.667 104.342H485.576V115.428H496.667V104.342Z" fill="#E1E1E1"/>
<g opacity="0.61">
<path opacity="0.61" d="M503.478 122.237H491.741V110.504H503.478V122.237ZM492.388 121.591H502.831V111.151H492.388V121.591Z" fill="#4D61FC"/>
</g>
<path d="M521.338 111.054H516.962V115.428H521.338V111.054Z" fill="#E1E1E1"/>
<path d="M521.518 104.1H509.842V115.773H521.518V104.1Z" fill="#DADDDF"/>
<path d="M528.01 110.583H516.333V122.255H528.01V110.583Z" fill="#DADDDF"/>
<path opacity="0.61" d="M521.525 110.583H516.333V115.773H521.525V110.583Z" fill="#4D61FC"/>
<path opacity="0.6" d="M544.013 104.342H532.923V115.428H544.013V104.342Z" fill="#4D61FC"/>
<path opacity="0.6" d="M550.728 111.054H539.638V122.141H550.728V111.054Z" fill="#4D61FC"/>
<path d="M544.013 111.054H539.638V115.428H544.013V111.054Z" fill="#FAFAFA"/>
<path d="M189.384 174.606L103.679 176.116L104.887 244.612L190.593 243.101L189.384 174.606Z" fill="white"/>
<path d="M187.167 178.239L107.474 179.832L108.672 239.711L188.364 238.118L187.167 178.239Z" fill="#F4F4F4"/>
<path d="M107.757 240.249L134.93 202.543L152.584 225.526L164.055 212.874L187.438 238.847L107.757 240.249Z" fill="#4D61FC"/>
<path d="M159.407 197.553C159.43 198.793 159.084 200.012 158.413 201.056C157.742 202.1 156.777 202.921 155.64 203.416C154.501 203.912 153.243 204.058 152.021 203.838C150.8 203.618 149.671 203.041 148.779 202.179C147.885 201.318 147.268 200.211 147.005 198.999C146.741 197.786 146.843 196.524 147.297 195.369C147.752 194.215 148.539 193.221 149.558 192.515C150.578 191.807 151.784 191.418 153.025 191.396C154.688 191.367 156.294 191.999 157.491 193.154C158.688 194.308 159.377 195.891 159.407 197.553Z" fill="#4D61FC"/>
<g opacity="0.5">
<path opacity="0.5" d="M107.757 240.249L134.93 202.543L152.584 225.526L164.055 212.874L187.438 238.847L107.757 240.249Z" fill="white"/>
</g>
<g opacity="0.5">
<path opacity="0.5" d="M159.407 197.553C159.43 198.793 159.084 200.012 158.413 201.056C157.742 202.1 156.777 202.921 155.64 203.416C154.501 203.912 153.243 204.058 152.021 203.838C150.8 203.618 149.671 203.041 148.779 202.179C147.885 201.318 147.268 200.211 147.005 198.999C146.741 197.786 146.843 196.524 147.297 195.369C147.752 194.215 148.539 193.221 149.558 192.515C150.578 191.807 151.784 191.418 153.025 191.396C154.688 191.367 156.294 191.999 157.491 193.154C158.688 194.308 159.377 195.891 159.407 197.553Z" fill="white"/>
</g>
<path d="M160.172 117.947L142.993 220.024L270.721 241.506L287.901 139.429L160.172 117.947Z" fill="white"/>
<path d="M163.492 125.108L148.476 214.334L267.229 234.307L282.246 145.08L163.492 125.108Z" fill="#F4F4F4"/>
<path d="M148.468 214.33L199.278 165.846L219.132 204.863L239.681 189.245L267.222 234.298L148.468 214.33Z" fill="#4D61FC"/>
<path d="M237.021 165.188C236.717 167.041 235.869 168.762 234.586 170.133C233.301 171.504 231.639 172.463 229.809 172.888C227.979 173.313 226.063 173.185 224.306 172.52C222.549 171.855 221.029 170.683 219.94 169.153C218.849 167.624 218.239 165.805 218.185 163.927C218.13 162.05 218.635 160.199 219.635 158.609C220.635 157.019 222.085 155.762 223.801 154.997C225.517 154.232 227.421 153.994 229.273 154.313C231.738 154.737 233.936 156.118 235.387 158.155C236.839 160.192 237.426 162.719 237.021 165.188Z" fill="#4D61FC"/>
<g opacity="0.5">
<path opacity="0.5" d="M148.468 214.33L199.278 165.846L219.132 204.863L239.681 189.245L267.222 234.298L148.468 214.33Z" fill="white"/>
</g>
<g opacity="0.5">
<path opacity="0.5" d="M237.021 165.188C236.717 167.041 235.869 168.762 234.586 170.133C233.301 171.504 231.639 172.463 229.809 172.888C227.979 173.313 226.063 173.185 224.306 172.52C222.549 171.855 221.029 170.683 219.94 169.153C218.849 167.624 218.239 165.805 218.185 163.927C218.13 162.05 218.635 160.199 219.635 158.609C220.635 157.019 222.085 155.762 223.801 154.997C225.517 154.232 227.421 153.994 229.273 154.313C231.738 154.737 233.936 156.118 235.387 158.155C236.839 160.192 237.426 162.719 237.021 165.188Z" fill="white"/>
</g>
<path d="M210.538 342.208C210.771 343.444 210.663 344.721 210.223 345.9C209.771 347.138 208.948 348.208 207.867 348.965C206.786 349.721 205.499 350.128 204.18 350.129C203.506 350.12 202.837 350.008 202.197 349.797C201.465 349.568 200.682 349.564 199.948 349.786C199.214 350.008 198.564 350.446 198.081 351.041C197.145 352.169 195.918 353.021 194.535 353.506C193.151 353.991 191.661 354.092 190.225 353.796C189.069 353.528 187.982 353.023 187.033 352.312C186.083 351.601 185.292 350.7 184.71 349.667C184.128 348.634 183.767 347.491 183.651 346.311C183.535 345.131 183.666 343.939 184.036 342.813C184.574 341.066 185.675 339.547 187.167 338.493C188.66 337.438 190.46 336.907 192.285 336.982C193.512 337.052 194.707 337.399 195.781 337.995C196.854 338.591 197.779 339.422 198.486 340.426C198.998 339.404 199.767 338.531 200.716 337.895C199.735 336.881 199.016 335.644 198.621 334.29C198.226 332.936 198.167 331.507 198.45 330.125C198.65 329.019 199.074 327.967 199.696 327.031C200.318 326.096 201.124 325.297 202.066 324.685C203.008 324.072 204.065 323.659 205.173 323.471C206.281 323.282 207.415 323.322 208.507 323.588C209.991 324.01 211.334 324.822 212.397 325.94C213.46 327.058 214.203 328.441 214.549 329.944C214.895 331.447 214.83 333.015 214.363 334.485C213.895 335.955 213.042 337.272 211.891 338.299C211.343 338.776 210.929 339.387 210.692 340.073C210.454 340.759 210.401 341.495 210.538 342.208Z" fill="#FFB000"/>
<path d="M211.631 409.144L217.79 407.41C218.547 407.198 219.355 407.265 220.068 407.597L226.378 410.552C227.062 410.872 227.614 411.419 227.943 412.098L232.005 420.557C232.092 420.729 232.144 420.917 232.157 421.11C232.17 421.303 232.145 421.497 232.083 421.68C232.021 421.862 231.922 422.031 231.793 422.175C231.665 422.32 231.508 422.437 231.334 422.52C231.216 422.591 231.078 422.621 230.942 422.604C230.806 422.586 230.679 422.523 230.585 422.423L229.871 421.735L212.828 416.195L211.631 409.144Z" fill="#FC9D9D"/>
<path d="M191.016 360.714L189.155 331.913H172.607L171.422 337.695L170.171 356.074L191.016 360.714Z" fill="#FC9D9D"/>
<path opacity="0.15" d="M190.188 348.081C189.363 348.29 188.514 348.396 187.662 348.395C185.478 348.365 183.365 347.618 181.648 346.268C179.79 346.075 177.998 345.477 176.396 344.516C176.321 344.466 176.268 344.388 176.248 344.299C176.229 344.209 176.245 344.116 176.294 344.039C176.316 344.001 176.347 343.967 176.383 343.941C176.419 343.915 176.46 343.896 176.504 343.887C176.547 343.877 176.593 343.876 176.637 343.885C176.68 343.893 176.722 343.911 176.759 343.936C177.993 344.676 179.354 345.18 180.772 345.423C180.875 345.423 180.971 345.477 181.074 345.477C181.382 345.525 181.642 345.525 181.896 345.58H181.999C182.167 345.63 182.343 345.65 182.519 345.64H183.903C185.948 345.583 187.946 345.016 189.717 343.991L190.188 348.081Z" fill="black"/>
<path d="M199.399 342.68L188.006 336.807L189.529 309.167L199.314 310.429L203.932 314.314C203.932 314.314 203.672 315.873 203.605 316.785C203.351 320.283 206.246 322.108 209.546 323.95L199.399 342.68Z" fill="#FFB000"/>
<path d="M197.048 331.503L196.474 314.054C196.461 313.304 196.302 312.565 196.003 311.877C195.705 311.19 195.273 310.568 194.734 310.047C194.194 309.527 193.557 309.118 192.859 308.845C192.161 308.571 191.415 308.438 190.666 308.454L173.634 309.1C173.055 309.127 172.488 309.268 171.963 309.515C171.439 309.762 170.969 310.11 170.579 310.538C170.189 310.967 169.888 311.468 169.693 312.013C169.497 312.559 169.411 313.137 169.44 313.716L170.044 332.493C170.286 339.858 176.269 345.64 183.467 345.398L184.465 345.35C191.626 345.096 197.241 338.873 197.048 331.503Z" fill="#FC9D9D"/>
<path d="M216.708 515.054L244.709 515.755L233.504 507.75C231.624 506.409 230.953 504.312 230.845 502.004L231.383 493.25L216.122 493.298L216.708 515.054Z" fill="#FC9D9D"/>
<path opacity="0.15" d="M219.827 506.59V506.457C219.817 506.246 219.849 506.034 219.922 505.841C219.996 505.641 220.11 505.46 220.255 505.309C220.402 505.158 220.577 505.037 220.772 504.953C220.966 504.874 221.175 504.832 221.386 504.832L231.219 503.775L231.086 502.312H216.17L216.606 514.456L228.802 513.351L224.771 512.034C222.021 511.121 220.044 509.013 219.827 506.59Z" fill="black"/>
<path d="M214.768 510.112V520.987C214.764 521.404 214.844 521.821 215.002 522.208C215.16 522.594 215.393 522.945 215.689 523.241C215.984 523.537 216.335 523.766 216.722 523.924C217.109 524.087 217.524 524.165 217.941 524.159H255.08C255.257 524.159 255.432 524.129 255.596 524.062C255.759 523.996 255.907 523.893 256.033 523.772C256.157 523.646 256.256 523.495 256.323 523.331C256.39 523.168 256.424 522.993 256.422 522.818C256.42 521.549 256.02 520.311 255.277 519.277C254.534 518.244 253.487 517.471 252.282 517.066L243.899 514.329L233.262 506.107C232.727 505.69 232.064 505.478 231.387 505.496C230.71 505.515 230.062 505.768 229.551 506.215L224.825 510.245C224.477 510.529 224.066 510.722 223.627 510.819C223.188 510.91 222.733 510.898 222.299 510.783L216.334 508.904C216.149 508.85 215.952 508.837 215.761 508.868C215.57 508.904 215.391 508.982 215.237 509.103C215.084 509.218 214.961 509.375 214.879 509.55C214.798 509.726 214.76 509.919 214.768 510.112Z" fill="#FFB510"/>
<path opacity="0.5" d="M217.947 524.189H255.08C255.256 524.189 255.432 524.159 255.595 524.093C255.759 524.026 255.907 523.924 256.032 523.803C256.157 523.676 256.256 523.525 256.323 523.362C256.39 523.199 256.423 523.023 256.422 522.848C256.424 522.395 256.369 521.942 256.259 521.501H214.829C214.928 522.256 215.3 522.945 215.875 523.44C216.45 523.936 217.188 524.201 217.947 524.189Z" fill="black"/>
<path d="M233.045 510.493C233.003 510.493 232.963 510.481 232.926 510.463C232.889 510.445 232.858 510.414 232.833 510.384C232.78 510.318 232.751 510.227 232.751 510.143C232.751 510.058 232.78 509.967 232.833 509.901L235.087 507.484C235.154 507.43 235.237 507.406 235.32 507.412C235.404 507.418 235.483 507.454 235.542 507.514C235.602 507.569 235.638 507.653 235.643 507.732C235.648 507.816 235.622 507.901 235.571 507.968L233.317 510.384C233.242 510.451 233.146 510.493 233.045 510.493Z" fill="white"/>
<path d="M234.821 511.888C234.779 511.888 234.738 511.876 234.7 511.858C234.662 511.84 234.63 511.81 234.604 511.78C234.55 511.713 234.522 511.623 234.522 511.538C234.522 511.454 234.55 511.363 234.604 511.296L236.864 508.88C236.933 508.825 237.018 508.795 237.106 508.795C237.193 508.795 237.278 508.825 237.347 508.88C237.398 508.952 237.424 509.037 237.424 509.121C237.424 509.206 237.398 509.291 237.347 509.363L235.087 511.78C235.014 511.846 234.92 511.882 234.821 511.888Z" fill="white"/>
<path d="M236.646 513.254C236.605 513.254 236.563 513.242 236.525 513.224C236.488 513.206 236.455 513.176 236.429 513.145C236.376 513.079 236.347 512.988 236.347 512.904C236.347 512.819 236.376 512.728 236.429 512.662L238.683 510.245C238.754 510.197 238.84 510.167 238.928 510.167C239.015 510.167 239.101 510.197 239.173 510.245C239.223 510.318 239.25 510.402 239.25 510.487C239.25 510.572 239.223 510.656 239.173 510.729L236.912 513.145C236.84 513.212 236.745 513.248 236.646 513.254Z" fill="white"/>
<path d="M138.78 495.316L146.734 522.159L150.91 509.067C151.611 506.862 153.394 505.581 155.564 504.765L164.061 502.578L159.311 488.078L138.78 495.316Z" fill="#FC9D9D"/>
<path opacity="0.15" d="M147.797 495.667L147.924 495.624C148.12 495.546 148.331 495.516 148.541 495.522C148.752 495.534 148.959 495.582 149.149 495.673C149.338 495.769 149.507 495.896 149.645 496.053C149.783 496.216 149.886 496.404 149.949 496.603L153.98 505.629L155.328 505.08L150.734 490.876L139.306 495.062L144.11 506.324V502.095C144.159 499.165 145.561 496.627 147.797 495.667Z" fill="black"/>
<path d="M142.89 491.957L132.507 495.316C132.111 495.443 131.744 495.649 131.427 495.92C131.11 496.186 130.849 496.519 130.66 496.887C130.471 497.256 130.357 497.66 130.324 498.077C130.292 498.494 130.341 498.911 130.47 499.304L138.496 524.075L147.997 524.135C149.659 524.075 151.563 524.304 152.276 524.075C154.034 523.507 154.089 522.637 153.992 521.229C153.953 520.679 153.73 520.16 153.358 519.749C152.986 519.344 152.488 519.072 151.943 518.981L148.686 517.882L152.36 508.282C152.591 507.647 152.593 506.946 152.366 506.312C152.139 505.678 151.697 505.134 151.115 504.79L145.827 501.533C145.449 501.291 145.135 500.959 144.911 500.572C144.687 500.186 144.56 499.745 144.54 499.298L144.491 493.045C144.483 492.857 144.431 492.676 144.339 492.507C144.247 492.344 144.118 492.205 143.963 492.102C143.808 491.993 143.63 491.927 143.443 491.903C143.257 491.879 143.067 491.897 142.89 491.957Z" fill="#FFB510"/>
<path opacity="0.5" d="M149.223 524.105H138.496L130.47 499.334C130.223 498.615 130.249 497.836 130.543 497.135C130.838 496.434 131.38 495.872 132.065 495.546L140.43 521.924L153.998 522.794C153.998 522.794 153.581 524.54 149.223 524.105Z" fill="black"/>
<path d="M148.154 509.448C148.141 509.405 148.137 509.369 148.144 509.327C148.15 509.285 148.166 509.248 148.19 509.212C148.241 509.14 148.313 509.091 148.396 509.061C148.478 509.037 148.567 509.037 148.65 509.061L151.672 510.463C151.742 510.517 151.794 510.59 151.821 510.674C151.847 510.753 151.846 510.843 151.817 510.928C151.766 511 151.695 511.049 151.611 511.079C151.528 511.103 151.44 511.103 151.357 511.073L148.335 509.671C148.25 509.623 148.185 509.544 148.154 509.448Z" fill="white"/>
<path d="M147.368 511.568C147.357 511.526 147.354 511.484 147.36 511.441C147.367 511.399 147.382 511.363 147.405 511.327C147.455 511.254 147.527 511.206 147.61 511.176C147.693 511.151 147.782 511.151 147.864 511.182L150.886 512.583C150.957 512.632 151.009 512.704 151.036 512.789C151.064 512.873 151.064 512.958 151.037 513.042C150.985 513.115 150.912 513.163 150.828 513.194C150.745 513.218 150.656 513.218 150.572 513.194L147.58 511.786C147.484 511.744 147.408 511.665 147.368 511.568Z" fill="white"/>
<path d="M146.631 513.725C146.618 513.683 146.614 513.641 146.62 513.598C146.627 513.556 146.642 513.52 146.667 513.484C146.717 513.411 146.789 513.363 146.872 513.333C146.955 513.308 147.044 513.308 147.126 513.339L150.118 514.74C150.191 514.789 150.245 514.861 150.273 514.946C150.3 515.024 150.299 515.115 150.269 515.199C150.218 515.272 150.147 515.32 150.064 515.351C149.982 515.375 149.893 515.375 149.81 515.351L146.788 513.943C146.71 513.894 146.654 513.816 146.631 513.725Z" fill="white"/>
<path d="M180.422 326.409C180.43 326.133 180.519 325.865 180.679 325.639C180.839 325.413 181.062 325.24 181.32 325.139C181.578 325.039 181.859 325.017 182.129 325.077C182.4 325.135 182.647 325.273 182.84 325.471C183.032 325.67 183.162 325.921 183.213 326.192C183.264 326.464 183.234 326.745 183.126 327C183.019 327.255 182.838 327.472 182.608 327.625C182.377 327.778 182.107 327.859 181.83 327.859C181.451 327.853 181.09 327.697 180.826 327.425C180.562 327.153 180.417 326.788 180.422 326.409Z" fill="#21252B"/>
<path d="M182.132 326.663C182.133 326.606 182.151 326.551 182.184 326.504C182.216 326.457 182.262 326.421 182.315 326.4C182.368 326.379 182.426 326.374 182.482 326.386C182.538 326.397 182.589 326.426 182.629 326.466C182.669 326.507 182.696 326.559 182.707 326.615C182.717 326.671 182.711 326.729 182.689 326.782C182.667 326.834 182.63 326.879 182.583 326.911C182.535 326.942 182.479 326.959 182.422 326.959C182.345 326.957 182.271 326.926 182.216 326.87C182.162 326.815 182.132 326.74 182.132 326.663Z" fill="white"/>
<path d="M191.367 326.5C191.375 326.223 191.465 325.955 191.625 325.729C191.785 325.503 192.008 325.329 192.267 325.229C192.525 325.13 192.807 325.108 193.077 325.167C193.348 325.227 193.595 325.365 193.787 325.564C193.979 325.763 194.109 326.014 194.16 326.287C194.21 326.559 194.178 326.839 194.07 327.094C193.961 327.349 193.78 327.566 193.549 327.718C193.317 327.87 193.046 327.951 192.769 327.95C192.391 327.942 192.032 327.785 191.769 327.514C191.507 327.242 191.362 326.878 191.367 326.5Z" fill="#21252B"/>
<path d="M193.065 326.693C193.064 326.655 193.071 326.616 193.085 326.58C193.099 326.543 193.121 326.51 193.147 326.482C193.174 326.454 193.206 326.432 193.242 326.416C193.278 326.4 193.316 326.392 193.355 326.391C193.416 326.389 193.475 326.405 193.526 326.436C193.577 326.468 193.618 326.514 193.643 326.569C193.668 326.624 193.675 326.685 193.665 326.745C193.655 326.804 193.627 326.859 193.585 326.902C193.544 326.946 193.49 326.975 193.431 326.988C193.372 327.001 193.31 326.996 193.254 326.974C193.199 326.951 193.151 326.912 193.117 326.862C193.083 326.812 193.065 326.754 193.065 326.693Z" fill="white"/>
<path opacity="0.15" d="M187.728 331.382C187.694 330.933 187.485 330.517 187.145 330.221C186.806 329.926 186.364 329.776 185.915 329.805C185.813 329.837 185.724 329.901 185.66 329.987C185.597 330.072 185.561 330.175 185.558 330.282C185.588 330.385 185.648 330.475 185.731 330.541C185.815 330.608 185.917 330.646 186.024 330.651C186.256 330.655 186.478 330.744 186.65 330.901C186.821 331.058 186.929 331.272 186.954 331.503C186.978 331.732 186.911 331.96 186.767 332.14C186.624 332.32 186.416 332.436 186.187 332.463L184.313 332.632C184.211 332.665 184.123 332.728 184.059 332.814C183.994 332.899 183.959 333.003 183.957 333.11C183.986 333.212 184.046 333.303 184.13 333.369C184.213 333.435 184.315 333.473 184.422 333.478L186.296 333.309C186.526 333.3 186.751 333.24 186.955 333.133C187.159 333.025 187.336 332.873 187.474 332.688C187.611 332.504 187.705 332.29 187.749 332.064C187.793 331.838 187.786 331.605 187.728 331.382Z" fill="black"/>
<path d="M150.541 490.356L193.512 470.98L149.659 473.137L148.789 442.645L221.743 451.599L232.525 467.114L229.684 486.58L155.304 505.484L150.541 490.356Z" fill="#3F4D79"/>
<path opacity="0.3" d="M163.789 472.533L205.908 449.859L195.821 448.983L152.366 472.708L163.789 472.533Z" fill="black"/>
<path opacity="0.3" d="M155.304 505.484L229.684 486.604L232.525 467.138L221.742 451.623L207.582 449.883L208.519 474.05C208.634 477.044 207.755 479.993 206.02 482.435C204.283 484.882 201.788 486.683 198.921 487.559L153.98 501.304L155.304 505.484Z" fill="black"/>
<path d="M232.373 503.207L235.504 433.945C235.305 427.613 231.533 421.831 225.538 418.654C220.508 416.028 214.648 415.481 209.22 417.131L159.661 432.235L132.464 438.633C130.523 443.554 129.349 448.744 128.983 454.021C128.258 465.809 138.224 476.43 151.115 473.186C163.04 470.165 209.341 447.436 209.341 447.436L215.004 503.624L232.373 503.207Z" fill="#3F4D79"/>
<g opacity="0.3">
<path opacity="0.3" d="M202.832 465.942C202.832 465.833 200.378 466.268 197.743 467.754C195.108 469.24 193.434 471.047 193.512 471.113C193.591 471.18 195.38 469.573 197.961 468.159C200.541 466.745 202.868 466.062 202.832 465.942Z" fill="black"/>
</g>
<g opacity="0.3">
<path opacity="0.3" d="M216.418 440.748C216.484 440.887 214.194 441.714 212.187 443.811C210.181 445.907 209.341 448.185 209.202 448.119C209.245 447.588 209.404 447.072 209.667 446.608C210.205 445.446 210.939 444.385 211.837 443.473C212.732 442.554 213.782 441.8 214.937 441.243C215.39 440.974 215.895 440.805 216.418 440.748Z" fill="black"/>
</g>
<path d="M181.89 335.919C181.654 335.919 181.582 336.07 181.618 336.257C181.853 336.995 182.297 337.649 182.897 338.137C183.497 338.626 184.227 338.929 184.997 339.01C185.767 339.09 186.544 338.944 187.232 338.589C187.92 338.234 188.49 337.686 188.871 337.012C188.889 336.975 188.899 336.933 188.898 336.892C188.898 336.85 188.888 336.809 188.868 336.771C188.848 336.735 188.821 336.703 188.787 336.678C188.752 336.654 188.713 336.638 188.671 336.632L181.89 335.919Z" fill="white"/>
<path d="M201.273 313.945C200.704 315.094 199.8 316.044 198.68 316.668C197.559 317.292 196.276 317.56 194.999 317.437C192.852 317.27 190.84 316.324 189.34 314.779C187.84 313.234 186.956 311.196 186.852 309.046H186.774C185.92 310.177 184.799 311.08 183.511 311.675C182.224 312.269 180.81 312.537 179.394 312.453C178.567 312.4 177.752 312.225 176.977 311.934C175.973 321.359 170.147 322.096 170.147 322.096C170.093 322.996 169.99 324.808 169.863 326.929C169.773 328.385 171.501 329.086 170.667 330.143H171.12C170.873 330.494 171.525 330.947 171.35 331.351C171.063 332.018 170.895 332.73 170.854 333.454C170.781 334.483 170.978 335.514 171.425 336.445C171.872 337.375 172.554 338.172 173.405 338.759C175.145 340.027 177.031 341.737 177.315 343.954C177.648 346.703 175.617 351.748 168.775 351.609C166.805 351.573 151.001 351.15 152.898 337.067C153.184 335.904 153.647 334.791 154.27 333.768C154.651 333.05 154.873 332.259 154.923 331.448C155.044 329.515 153.847 328.131 152.602 326.881C151.899 326.243 151.349 325.457 150.991 324.578C150.633 323.7 150.477 322.752 150.535 321.806C150.603 320.511 151.076 319.271 151.887 318.259C152.698 317.247 153.806 316.516 155.056 316.169C155.407 316.074 155.723 315.881 155.965 315.61C156.207 315.34 156.366 315.005 156.422 314.646C156.954 311.565 160.532 303.693 171.574 304.937C171.374 301.693 174.632 296.938 179.43 296.805C183.546 296.696 186.913 299.923 189.064 302.672C189.672 303.467 190.467 304.1 191.38 304.513C192.292 304.925 193.293 305.104 194.292 305.034C195.18 304.961 196.474 304.532 197.719 304.599C202.524 304.859 204.675 309.046 203.896 314.302L201.273 313.945Z" fill="#FFB000"/>
<path d="M276.777 338.312L278.391 339.737C278.391 339.737 281.129 342.553 281.074 342.619C281.02 342.686 280.977 345.64 280.977 345.64L280.851 347.573C280.836 347.677 280.794 347.776 280.73 347.859C280.666 347.942 280.581 348.007 280.484 348.047C280.387 348.087 280.281 348.101 280.177 348.088C280.073 348.075 279.974 348.035 279.89 347.972C279.573 347.687 279.36 347.304 279.285 346.885L279.158 347.489C279.133 347.579 279.087 347.662 279.024 347.732C278.961 347.801 278.883 347.855 278.796 347.889C278.708 347.923 278.614 347.936 278.521 347.927C278.428 347.919 278.337 347.889 278.258 347.839C277.898 347.572 277.618 347.212 277.447 346.798C277.275 346.384 277.219 345.932 277.285 345.489C277.363 344.515 277.387 343.536 277.357 342.559L276.831 342.088C276.698 342.172 272.232 343.634 272.238 343.525C272.244 343.417 271.73 340.329 271.73 340.329L276.777 338.312Z" fill="#FC9D9D"/>
<g opacity="0.15">
<path opacity="0.15" d="M276.777 338.312L278.391 339.737C278.391 339.737 281.129 342.553 281.074 342.619C281.02 342.686 280.977 345.64 280.977 345.64L280.851 347.573C280.836 347.677 280.794 347.776 280.73 347.859C280.666 347.942 280.581 348.007 280.484 348.047C280.387 348.087 280.281 348.101 280.177 348.088C280.073 348.075 279.974 348.035 279.89 347.972C279.573 347.687 279.36 347.304 279.285 346.885L279.158 347.489C279.133 347.579 279.087 347.662 279.024 347.732C278.961 347.801 278.883 347.855 278.796 347.889C278.708 347.923 278.614 347.936 278.521 347.927C278.428 347.919 278.337 347.889 278.258 347.839C277.898 347.572 277.618 347.212 277.447 346.798C277.275 346.384 277.219 345.932 277.285 345.489C277.363 344.515 277.387 343.536 277.357 342.559L276.831 342.088C276.698 342.172 272.232 343.634 272.238 343.525C272.244 343.417 271.73 340.329 271.73 340.329L276.777 338.312Z" fill="black"/>
</g>
<path d="M262.206 348.298L267.989 339.556C268.493 338.789 269.28 338.253 270.177 338.064L276.016 336.819C276.536 336.707 277.074 336.715 277.591 336.843C278.107 336.971 278.588 337.215 278.995 337.556L282.779 340.728L283.51 342.915C283.553 343.041 283.558 343.177 283.526 343.307C283.493 343.437 283.423 343.554 283.326 343.645C283.228 343.736 283.107 343.797 282.976 343.821C282.844 343.845 282.708 343.83 282.585 343.779C281.667 343.345 280.871 342.689 280.27 341.87C279.367 340.79 278.252 339.906 276.995 339.272L272.293 341.332L272.54 343.827L264.013 351.712L262.206 348.298Z" fill="#FC9D9D"/>
<path d="M285.68 346.178L268.358 333.351C268.254 333.275 268.136 333.218 268.011 333.188C267.886 333.156 267.755 333.149 267.627 333.169C267.499 333.188 267.376 333.232 267.265 333.299C267.154 333.365 267.058 333.453 266.98 333.557C266.903 333.661 266.848 333.779 266.816 333.904C266.785 334.03 266.779 334.16 266.798 334.288C266.817 334.416 266.861 334.539 266.928 334.65C266.994 334.761 267.082 334.857 267.186 334.934L284.507 347.761L286.792 348.226L285.68 346.178Z" fill="black"/>
<path d="M265.675 354.847L270.649 351.827C271.283 351.443 271.825 350.925 272.238 350.31C273.314 348.697 275.514 345.477 276.287 344.939C277.333 344.208 281.074 341.858 280.705 340.837C280.337 339.816 279.454 338.903 277.309 340.317C275.163 341.731 269.875 344.317 269.875 344.317L263.118 349.996L265.675 354.847Z" fill="#FC9D9D"/>
<g opacity="0.15">
<path opacity="0.15" d="M270.413 344.021C271.233 343.714 272.027 343.342 272.788 342.909C274.215 342.19 276.239 341.097 278.361 340.003C278.601 339.889 278.866 339.837 279.131 339.853C279.397 339.869 279.653 339.952 279.878 340.094C280.067 340.241 280.206 340.443 280.276 340.673C280.345 340.902 280.341 341.147 280.264 341.375C280.061 341.805 279.762 342.184 279.388 342.48C279.044 342.8 278.711 343.084 278.397 343.332C277.14 344.329 276.245 344.788 276.282 344.849C276.514 344.799 276.734 344.709 276.934 344.583C277.507 344.286 278.057 343.947 278.578 343.568C278.905 343.332 279.261 343.054 279.624 342.74C280.049 342.422 280.393 342.008 280.627 341.532C280.735 341.227 280.746 340.896 280.657 340.586C280.568 340.274 280.385 339.999 280.131 339.798C279.851 339.61 279.528 339.497 279.191 339.47C278.855 339.442 278.517 339.501 278.21 339.641C275.961 340.807 274.07 341.882 272.649 342.661C271.868 343.052 271.12 343.506 270.413 344.021Z" fill="black"/>
</g>
<path d="M193.107 332.783C191.919 332.777 190.759 332.42 189.775 331.756C188.79 331.092 188.023 330.15 187.573 329.051C187.122 327.952 187.008 326.745 187.243 325.58C187.479 324.417 188.054 323.348 188.896 322.511C189.738 321.673 190.81 321.104 191.975 320.874C193.141 320.644 194.349 320.765 195.446 321.221C196.543 321.677 197.48 322.447 198.139 323.435C198.799 324.423 199.151 325.584 199.151 326.772C199.143 328.369 198.503 329.898 197.37 331.025C196.238 332.151 194.705 332.783 193.107 332.783ZM193.107 321.201C192.004 321.201 190.925 321.529 190.008 322.142C189.09 322.755 188.375 323.626 187.953 324.645C187.531 325.664 187.421 326.786 187.637 327.868C187.852 328.95 188.384 329.944 189.165 330.723C189.946 331.503 190.94 332.034 192.023 332.248C193.105 332.462 194.227 332.351 195.246 331.928C196.265 331.505 197.136 330.79 197.748 329.872C198.361 328.954 198.687 327.875 198.686 326.772C198.682 325.295 198.094 323.879 197.048 322.835C196.002 321.791 194.585 321.203 193.107 321.201Z" fill="#21252B"/>
<path d="M179.454 332.783C178.265 332.785 177.102 332.433 176.112 331.773C175.122 331.114 174.35 330.175 173.895 329.077C173.438 327.978 173.319 326.77 173.55 325.603C173.781 324.436 174.353 323.364 175.194 322.523C176.035 321.682 177.106 321.109 178.273 320.877C179.44 320.644 180.649 320.763 181.749 321.217C182.847 321.672 183.787 322.443 184.448 323.432C185.109 324.421 185.462 325.583 185.462 326.772C185.454 328.363 184.819 329.886 183.694 331.012C182.569 332.138 181.046 332.774 179.454 332.783ZM179.454 321.202C178.351 321.2 177.271 321.527 176.353 322.139C175.435 322.751 174.719 323.622 174.296 324.641C173.873 325.66 173.762 326.782 173.977 327.864C174.192 328.947 174.723 329.941 175.504 330.721C176.284 331.501 177.279 332.032 178.362 332.248C179.444 332.463 180.566 332.351 181.586 331.929C182.606 331.506 183.477 330.79 184.089 329.873C184.702 328.954 185.028 327.875 185.027 326.772C185.024 325.295 184.436 323.88 183.391 322.836C182.347 321.792 180.931 321.205 179.454 321.202Z" fill="#21252B"/>
<path d="M187.39 325.449C187.054 325.268 186.678 325.173 186.296 325.173C185.914 325.173 185.538 325.268 185.202 325.449L184.979 325.08C185.38 324.86 185.832 324.745 186.29 324.745C186.748 324.745 187.2 324.86 187.601 325.08L187.39 325.449Z" fill="#21252B"/>
<path d="M173.532 325.684L169.186 323.177L169.44 322.827L173.791 325.334L173.532 325.684Z" fill="#21252B"/>
<path d="M189.148 382.688L191.034 362.303L228.094 365.112L261.994 345.429L269.059 355.639L232.494 382.222C231.057 383.271 229.312 383.813 227.532 383.763L189.148 382.688Z" fill="#FFB000"/>
<path opacity="0.15" d="M232.494 382.222L269.059 355.639L267.85 353.978L230.488 379.159C229.351 379.987 227.944 380.355 226.547 380.192L209.933 378.235C207.495 377.943 205.167 377.056 203.153 375.653C201.139 374.25 199.501 372.373 198.383 370.187L194.485 362.557L191.01 362.297L189.148 382.688L227.532 383.769C229.312 383.817 231.058 383.274 232.494 382.222Z" fill="black"/>
<path d="M191.059 358.575C191.022 359.475 198.142 380.325 198.039 388.85C197.912 400.057 186.133 408.709 186.133 408.709L174.178 427.795C156.017 440.101 129.038 448.282 130.059 435.274L144.056 398.788L152.735 378.579C155.231 370.285 159.774 362.751 165.947 356.672L173.066 351.917L191.059 358.575Z" fill="#FFB000"/>
<path d="M171.253 427.335L212.877 418.273L211.13 405.205L174.275 408.582L180.923 378.029C181.343 375.665 180.899 373.229 179.672 371.165C178.445 369.102 176.516 367.547 174.239 366.786C169.011 365.04 162.254 367.813 160.302 372.876C160.122 373.366 159.987 373.871 159.897 374.386L152.983 412.104C152.983 412.104 147.918 432.863 171.253 427.335Z" fill="#FFB000"/>
<g opacity="0.15">
<path opacity="0.15" d="M166.249 370.103C166.303 370.236 168.328 369.1 171.084 368.931C173.84 368.761 176.015 369.577 176.058 369.438C176.1 369.299 173.954 368.266 171.053 368.478C168.152 368.689 166.164 370 166.249 370.103Z" fill="black"/>
</g>
<path d="M138.013 440.198C137.946 440.307 136.774 439.733 135.541 438.712C134.308 437.691 133.522 436.652 133.619 436.567C133.716 436.483 134.646 437.353 135.849 438.343C137.052 439.334 138.085 440.083 138.013 440.198Z" fill="#FAFAFA"/>
<path d="M167.47 355.657L168.479 352.099C168.547 351.856 168.664 351.63 168.824 351.436C168.984 351.241 169.182 351.082 169.407 350.969C169.631 350.855 169.877 350.789 170.128 350.776C170.38 350.762 170.631 350.801 170.866 350.89L190.4 358.14C190.873 358.265 191.311 358.496 191.681 358.816C192.05 359.136 192.342 359.537 192.533 359.988C192.724 360.438 192.809 360.926 192.782 361.414C192.754 361.902 192.616 362.378 192.376 362.804C191.984 363.507 191.342 364.037 190.577 364.288C189.812 364.538 188.981 364.492 188.248 364.158L167.47 355.657Z" fill="#FFB000"/>
<path d="M172.208 384.156C172.093 384.216 171.41 383.044 170.999 381.437C170.588 379.83 170.661 378.47 170.788 378.47C170.915 378.47 171.078 379.763 171.465 381.322C171.852 382.881 172.335 384.095 172.208 384.156Z" fill="#FAFAFA"/>
<path d="M165.131 388.306C165.227 388.391 164.526 389.4 163.408 390.391C162.29 391.381 161.196 391.955 161.13 391.847C161.063 391.738 162 391.001 163.088 390.034C164.176 389.068 165.022 388.222 165.131 388.306Z" fill="#FAFAFA"/>
<path d="M172.504 397.846C172.402 397.925 171.7 397.212 171.181 396.112C170.661 395.013 170.576 394.022 170.673 393.998C170.77 393.973 171.114 394.862 171.616 395.907C172.117 396.952 172.613 397.792 172.504 397.846Z" fill="#FAFAFA"/>
<path d="M163.747 404.601C163.62 404.601 163.825 403.392 164.206 401.93C164.587 400.468 165.004 399.344 165.131 399.375C165.257 399.405 165.052 400.583 164.671 402.051C164.29 403.519 163.873 404.637 163.747 404.601Z" fill="#FAFAFA"/>
<path d="M159.244 412.896C159.117 412.944 158.676 412.128 158.253 411.083C157.83 410.038 157.582 409.12 157.703 409.071C157.824 409.023 158.271 409.845 158.7 410.884C159.129 411.923 159.365 412.896 159.244 412.896Z" fill="#FAFAFA"/>
<path d="M172.686 407.09C172.758 407.211 171.779 407.966 170.637 408.963C169.495 409.96 168.612 410.836 168.51 410.775C168.407 410.715 169.144 409.657 170.323 408.63C171.501 407.603 172.619 406.981 172.686 407.09Z" fill="#FAFAFA"/>
<path d="M160.87 426.568C160.743 426.622 160.072 425.36 159.172 423.922C158.271 422.484 157.479 421.294 157.588 421.209C157.697 421.125 158.664 422.17 159.583 423.674C160.501 425.179 160.979 426.514 160.87 426.568Z" fill="#FAFAFA"/>
<path d="M169.76 422.411C169.676 422.52 168.672 421.862 167.343 421.203C166.013 420.545 164.925 420.128 164.925 419.995C164.925 419.862 166.176 420.085 167.536 420.78C168.896 421.475 169.845 422.315 169.76 422.411Z" fill="#FAFAFA"/>
<path d="M177.297 420.913C177.4 421.01 176.832 421.759 176.36 422.798C175.889 423.837 175.671 424.75 175.532 424.732C175.393 424.713 175.405 423.711 175.919 422.599C176.433 421.487 177.206 420.823 177.297 420.913Z" fill="#FAFAFA"/>
<path d="M182.507 414.902C182.428 415.016 181.516 414.473 180.337 413.935C179.159 413.397 178.167 413.041 178.204 412.902C178.24 412.763 179.322 412.902 180.543 413.506C181.763 414.11 182.585 414.799 182.507 414.902Z" fill="#FAFAFA"/>
<path d="M186.659 418.744C186.762 418.829 186.327 419.518 185.692 420.285C185.058 421.052 184.483 421.596 184.35 421.493C184.217 421.39 184.683 420.72 185.324 419.959C185.964 419.197 186.557 418.66 186.659 418.744Z" fill="#FAFAFA"/>
<path d="M191.113 412.751C190.974 412.787 190.666 411.923 190.037 411.005C189.409 410.086 188.738 409.47 188.829 409.355C188.919 409.241 189.771 409.73 190.448 410.733C191.125 411.736 191.234 412.733 191.113 412.751Z" fill="#FAFAFA"/>
<path d="M195.863 416.279C195.736 416.249 195.942 414.95 196.323 413.379C196.703 411.808 197.12 410.564 197.247 410.594C197.374 410.624 197.175 411.923 196.788 413.494C196.401 415.065 195.99 416.309 195.863 416.279Z" fill="#FAFAFA"/>
<path d="M205.902 418.255C205.829 418.364 204.898 417.838 203.835 417.046C202.771 416.255 201.967 415.59 202.022 415.482C202.076 415.373 203.025 415.898 204.095 416.654C205.164 417.409 205.98 418.146 205.902 418.255Z" fill="#FAFAFA"/>
<path d="M208.803 407.368C208.918 407.428 208.615 408.25 207.902 409.047C207.189 409.845 206.409 410.256 206.343 410.135C206.276 410.014 206.881 409.476 207.552 408.727C208.223 407.978 208.682 407.307 208.803 407.368Z" fill="#FAFAFA"/>
<path d="M167.312 372.972C167.409 373.069 166.756 373.83 165.862 374.682C164.968 375.534 164.176 376.138 164.085 376.042C163.994 375.945 164.641 375.178 165.536 374.332C166.43 373.486 167.222 372.876 167.312 372.972Z" fill="#FAFAFA"/>
<path d="M176.572 376.761C176.445 376.797 176.088 375.788 175.774 374.519C175.46 373.25 175.321 372.193 175.448 372.163C175.575 372.133 175.937 373.136 176.245 374.404C176.554 375.673 176.693 376.73 176.572 376.761Z" fill="#FAFAFA"/>
<path d="M174.97 361.717C174.97 361.844 174.051 361.85 172.945 361.717C171.839 361.584 170.957 361.379 170.975 361.246C170.993 361.113 171.894 361.113 173 361.246C174.106 361.379 174.988 361.584 174.97 361.717Z" fill="#FAFAFA"/>
<path d="M181.89 372.169C181.769 372.169 181.491 371.523 181.491 370.628C181.491 369.734 181.769 369.058 181.89 369.094C182.011 369.13 181.969 369.807 181.975 370.628C181.981 371.45 182.023 372.139 181.89 372.169Z" fill="#FAFAFA"/>
<path d="M190.369 374.912C190.279 375.009 189.312 374.265 188.206 373.25C187.1 372.235 186.272 371.329 186.393 371.232C186.513 371.136 187.456 371.879 188.562 372.894C189.668 373.909 190.46 374.833 190.369 374.912Z" fill="#FAFAFA"/>
<path d="M187.432 380.784C187.505 380.893 186.979 381.389 186.254 381.83C185.528 382.271 184.888 382.585 184.815 382.47C184.743 382.355 185.269 381.866 185.994 381.425C186.719 380.984 187.36 380.67 187.432 380.784Z" fill="#FAFAFA"/>
<path d="M192.672 388.923C192.545 388.923 192.388 387.793 192.672 386.427C192.956 385.062 193.572 384.083 193.681 384.138C193.79 384.192 193.421 385.225 193.143 386.554C192.865 387.883 192.811 388.923 192.672 388.923Z" fill="#FAFAFA"/>
<path d="M187.885 392.922C187.771 392.982 187.281 392.203 186.749 391.182C186.217 390.161 185.921 389.291 186.042 389.231C186.163 389.17 186.646 389.95 187.178 390.971C187.71 391.992 188.006 392.862 187.885 392.922Z" fill="#FAFAFA"/>
<path d="M180.85 395.085C180.971 395.145 180.621 396.185 180.071 397.417C179.521 398.65 178.971 399.598 178.862 399.544C178.753 399.489 179.092 398.45 179.648 397.218C180.204 395.985 180.73 395.031 180.85 395.085Z" fill="#FAFAFA"/>
<path d="M187.275 401.538C187.275 401.676 186.066 401.731 184.585 401.936C183.105 402.142 181.926 402.407 181.884 402.275C181.842 402.142 182.996 401.67 184.519 401.459C186.042 401.248 187.281 401.417 187.275 401.538Z" fill="#FAFAFA"/>
<path d="M152.016 394.003C151.883 394.003 151.538 392.994 151.242 391.677C150.946 390.36 150.813 389.261 150.946 389.261C151.079 389.261 151.418 390.276 151.714 391.593C152.01 392.91 152.143 393.979 152.016 394.003Z" fill="#FAFAFA"/>
<path d="M157.909 380.476C157.969 380.591 157.304 381.038 156.355 381.165C155.406 381.292 154.645 381.05 154.675 380.929C154.705 380.809 155.425 380.815 156.289 380.688C157.153 380.561 157.848 380.349 157.909 380.476Z" fill="#FAFAFA"/>
<path d="M146.83 405.827C146.788 405.7 147.858 405.253 149.248 404.824C150.638 404.395 151.738 404.16 151.78 404.286C151.822 404.413 150.747 404.891 149.363 405.289C147.979 405.688 146.867 405.954 146.83 405.827Z" fill="#FAFAFA"/>
<path d="M142.956 415.675C142.823 415.675 142.612 414.527 142.485 413.083C142.358 411.639 142.358 410.461 142.485 410.449C142.612 410.437 142.829 411.597 142.956 413.041C143.083 414.485 143.089 415.663 142.956 415.675Z" fill="#FAFAFA"/>
<path d="M145.954 427.076C145.839 427.009 146.432 425.716 147.284 424.188C148.136 422.659 148.922 421.475 149.036 421.541C149.151 421.608 148.559 422.895 147.707 424.423C146.855 425.952 146.069 427.136 145.954 427.076Z" fill="#FAFAFA"/>
<path d="M140.007 430.447C139.88 430.483 139.403 429.311 138.986 427.831C138.569 426.351 138.297 425.118 138.43 425.076C138.562 425.034 139.034 426.212 139.451 427.692C139.868 429.172 140.134 430.417 140.007 430.447Z" fill="#FAFAFA"/>
<path d="M152.366 434.12C152.415 434.247 151.411 434.724 150.239 435.389C149.066 436.054 148.148 436.682 148.063 436.597C147.979 436.513 148.782 435.685 149.997 434.99C151.212 434.295 152.324 433.999 152.366 434.12Z" fill="#FAFAFA"/>
<path d="M161.148 371.094C161.015 371.094 161.003 369.934 161.148 368.532C161.293 367.13 161.474 366.006 161.607 366.019C161.74 366.031 161.752 367.173 161.607 368.574C161.462 369.976 161.281 371.106 161.148 371.094Z" fill="#FAFAFA"/>
<path d="M173.278 356.183C173.151 356.219 172.909 355.766 172.74 355.168C172.571 354.57 172.535 354.062 172.668 354.026C172.801 353.99 173.036 354.443 173.205 355.035C173.375 355.627 173.411 356.14 173.278 356.183Z" fill="#FAFAFA"/>
<path d="M182.815 358.327C182.815 358.454 181.745 358.424 180.555 357.941C179.364 357.457 178.578 356.732 178.657 356.648C178.735 356.563 179.606 357.041 180.736 357.494C181.866 357.947 182.833 358.188 182.815 358.327Z" fill="#FAFAFA"/>
<path d="M190.666 360.333C190.738 360.436 190.164 360.98 189.276 361.324C188.387 361.669 187.596 361.675 187.577 361.542C187.559 361.409 188.266 361.209 189.101 360.877C189.935 360.545 190.593 360.231 190.666 360.333Z" fill="#FAFAFA"/>
<path d="M199.574 370C199.502 369.891 200.124 369.348 200.783 368.598C201.442 367.849 201.913 367.173 202.034 367.233C202.155 367.293 201.859 368.121 201.146 368.919C200.432 369.716 199.659 370.127 199.574 370Z" fill="#FAFAFA"/>
<path d="M206.482 379.715C206.385 379.812 205.382 378.954 204.24 377.806C203.097 376.658 202.245 375.643 202.342 375.552C202.439 375.462 203.442 376.313 204.584 377.461C205.726 378.609 206.573 379.618 206.482 379.715Z" fill="#FAFAFA"/>
<path d="M211.577 369.867C211.692 369.94 211.154 370.991 210.368 372.211C209.582 373.432 208.875 374.374 208.761 374.302C208.646 374.229 209.184 373.178 209.969 371.957C210.755 370.737 211.468 369.795 211.577 369.867Z" fill="#FAFAFA"/>
<path d="M219.718 379.063C219.597 379.129 219.156 378.567 218.727 377.806C218.298 377.045 218.038 376.374 218.153 376.314C218.268 376.253 218.715 376.809 219.144 377.57C219.573 378.332 219.833 379.02 219.718 379.063Z" fill="#FAFAFA"/>
<path d="M220.939 368.024C220.824 368.103 220.389 367.644 219.966 367.009C219.543 366.375 219.283 365.801 219.398 365.722C219.513 365.644 219.942 366.103 220.365 366.744C220.788 367.384 221.048 367.952 220.939 368.024Z" fill="#FAFAFA"/>
<path d="M229.176 375.933C229.273 376.03 228.753 376.706 228.01 377.455C227.266 378.205 226.595 378.73 226.499 378.664C226.402 378.597 226.928 377.884 227.671 377.141C228.415 376.398 229.086 375.842 229.176 375.933Z" fill="#FAFAFA"/>
<path d="M229.098 371.522C229.098 371.655 228.372 371.867 227.436 371.994C226.499 372.121 225.731 372.115 225.713 371.994C225.695 371.873 226.438 371.655 227.375 371.529C228.312 371.402 229.08 371.39 229.098 371.522Z" fill="#FAFAFA"/>
<path d="M233.28 366.925C233.207 366.985 232.772 366.321 232.307 365.475C231.974 364.965 231.733 364.401 231.594 363.807C231.666 363.747 232.101 364.411 232.567 365.257C232.9 365.767 233.142 366.331 233.28 366.925Z" fill="#FAFAFA"/>
<path d="M237.257 373.093C237.353 373.184 236.943 373.8 236.338 374.471C235.734 375.141 235.166 375.613 235.069 375.522C234.972 375.431 235.377 374.815 235.982 374.145C236.586 373.474 237.13 373.021 237.257 373.093Z" fill="#FAFAFA"/>
<path d="M241.711 364.635C241.596 364.714 241.052 364.067 240.218 363.493C239.384 362.919 238.604 362.617 238.635 362.478C238.665 362.339 239.584 362.478 240.496 363.082C241.409 363.687 241.82 364.563 241.711 364.635Z" fill="#FAFAFA"/>
<path d="M249.217 364.146C249.32 364.224 248.927 364.943 248.335 365.753C247.743 366.562 247.175 367.148 247.066 367.07C246.957 366.991 247.356 366.272 247.948 365.469C248.54 364.665 249.102 364.067 249.217 364.146Z" fill="#FAFAFA"/>
<path d="M249.919 360.152C249.798 360.2 249.314 359.222 248.795 357.959C248.275 356.696 247.991 355.639 248.112 355.591C248.233 355.542 248.716 356.521 249.242 357.784C249.768 359.046 250.046 360.104 249.919 360.152Z" fill="#FAFAFA"/>
<path d="M255.727 354.346C255.618 354.268 256.083 353.452 256.766 352.534C257.449 351.615 258.09 350.908 258.193 350.987C258.295 351.065 257.836 351.887 257.153 352.799C256.47 353.712 255.829 354.425 255.727 354.346Z" fill="#FAFAFA"/>
<path d="M262.024 356.745C261.982 356.877 261.106 356.708 260.018 356.684C258.93 356.66 258.048 356.787 258.017 356.654C257.987 356.521 258.87 356.171 260.03 356.201C261.19 356.231 262.067 356.63 262.024 356.745Z" fill="#FAFAFA"/>
<path d="M171.858 333.75L171.253 326.748C170.395 320.325 162.756 321.226 163.85 327.618C164.944 334.01 171.175 333.659 171.175 333.659L171.858 333.75Z" fill="#FC9D9D"/>
<path opacity="0.2" d="M169.712 414.666C169.712 414.666 171.888 410.491 175.151 408.709L169.712 414.666Z" fill="black"/>
<path opacity="0.15" d="M165.596 324.851C165.66 324.939 165.753 325.001 165.858 325.025C165.964 325.049 166.075 325.035 166.17 324.984C166.35 324.846 166.556 324.747 166.775 324.69C166.993 324.633 167.221 324.62 167.446 324.651C167.873 324.815 168.218 325.141 168.406 325.558C168.722 326.198 168.883 326.904 168.878 327.618L168.914 328.349C168.914 328.953 169.742 328.82 169.736 328.349V327.684C169.77 326.811 169.561 325.945 169.132 325.183C168.998 324.878 168.8 324.606 168.55 324.386C168.301 324.166 168.006 324.002 167.687 323.908C167.36 323.846 167.024 323.853 166.7 323.929C166.377 324.005 166.072 324.148 165.808 324.349C165.726 324.402 165.662 324.478 165.625 324.567C165.586 324.657 165.577 324.755 165.596 324.851Z" fill="black"/>
<path d="M168.285 331.333C168.299 331.098 168.38 330.871 168.521 330.681C168.661 330.491 168.854 330.347 169.076 330.265C169.298 330.184 169.538 330.17 169.769 330.224C169.998 330.277 170.207 330.398 170.37 330.569C170.532 330.74 170.641 330.955 170.682 331.188C170.724 331.42 170.696 331.66 170.603 331.877C170.51 332.093 170.355 332.278 170.158 332.408C169.961 332.538 169.73 332.608 169.494 332.608C169.166 332.597 168.855 332.457 168.629 332.218C168.402 331.98 168.279 331.662 168.285 331.333Z" fill="#FFB000"/>
<path opacity="0.15" d="M170.208 332.463C170.001 332.627 169.739 332.705 169.476 332.681C169.309 332.681 169.144 332.647 168.99 332.58C168.837 332.514 168.699 332.416 168.585 332.293C168.472 332.171 168.385 332.026 168.33 331.868C168.275 331.71 168.254 331.542 168.268 331.376C168.289 331.172 168.354 330.975 168.458 330.799C168.562 330.623 168.703 330.471 168.872 330.354C168.732 330.564 168.644 330.805 168.618 331.055C168.608 331.235 168.633 331.416 168.694 331.586C168.753 331.756 168.847 331.913 168.969 332.046C169.091 332.18 169.238 332.287 169.402 332.363C169.566 332.439 169.743 332.481 169.924 332.487C169.972 332.433 170.093 332.445 170.208 332.463Z" fill="black"/>
<path opacity="0.15" d="M181.328 379.141L177.297 405.863H189.384L187.91 407.072L174.275 408.582L180.923 379.062C180.942 379.018 180.976 378.983 181.019 378.96C181.061 378.938 181.11 378.931 181.157 378.94C181.204 378.95 181.246 378.974 181.278 379.011C181.309 379.047 181.326 379.093 181.328 379.141Z" fill="black"/>
<path opacity="0.15" d="M171.253 427.335L212.876 418.273L212.435 414.98L167.397 421.227C152.856 421.125 153.623 408.733 153.623 408.733L153.019 412.129C153.019 412.129 147.918 432.864 171.253 427.335Z" fill="black"/>
<path opacity="0.15" d="M137.946 424.562L153.98 374.96C153.521 376.169 153.104 377.377 152.735 378.585L144.056 398.789L130.071 435.25C129.611 441.032 134.694 442.621 142.074 441.527L143.24 441.304C133.328 440.011 137.946 424.562 137.946 424.562Z" fill="black"/>
<path opacity="0.15" d="M159.903 377.087L154.264 405.06" stroke="black" stroke-width="0.72" stroke-miterlimit="10"/>
<path d="M450.166 521.199V523.615H497.754V520.951L450.166 521.199Z" fill="black"/>
<path d="M496.691 515.544L462.478 516.408L476.124 506.693C477.23 505.919 478.137 504.892 478.772 503.702C479.406 502.512 479.757 501.189 479.787 499.841L480.391 488.966L498.958 489.033L496.691 515.544Z" fill="#FC9D9D"/>
<path opacity="0.15" d="M480.053 496.718L479.056 504.24L481.787 509.158L485.275 502.107C485.559 501.533 485.988 501.038 486.514 500.669C487.045 500.307 487.656 500.077 488.297 500.017L497.967 499.056L498.474 496.718H480.053Z" fill="black"/>
<path d="M450.166 521.199V520.468C450.165 519.888 450.278 519.32 450.499 518.788C450.72 518.25 451.043 517.767 451.452 517.362C451.859 516.951 452.344 516.631 452.878 516.408C453.411 516.19 453.983 516.075 454.56 516.075H460.682C461.976 516.087 463.221 515.586 464.145 514.68L479.786 499.841L484.621 506.227C485.002 506.729 485.492 507.134 486.048 507.418C486.61 507.702 487.226 507.853 487.855 507.871C488.483 507.883 489.1 507.75 489.674 507.49C490.242 507.23 490.75 506.844 491.149 506.36C491.542 505.895 492.031 505.515 492.581 505.255C493.131 504.989 493.729 504.844 494.34 504.832H497.603V520.933L450.166 521.199Z" fill="#3F4249"/>
<path d="M482.911 503.835L472.329 512.42C471.761 512.873 471.053 513.103 470.328 513.067C469.603 513.03 468.914 512.728 468.4 512.221L467.603 511.417L479.787 499.841C480.101 499.751 480.439 499.757 480.748 499.866C481.056 499.974 481.328 500.18 481.515 500.446L482.778 502.258C482.942 502.464 483.044 502.705 483.081 502.959C483.117 503.219 483.081 503.478 482.978 503.72L482.911 503.835Z" fill="black"/>
<path d="M470.8 506.898L475.526 511.351" stroke="white" stroke-width="1.45" stroke-linecap="round" stroke-linejoin="round"/>
<path d="M473.326 504.566L478.161 509.158" stroke="white" stroke-width="1.45" stroke-linecap="round" stroke-linejoin="round"/>
<path d="M475.925 502.373L480.718 506.898" stroke="white" stroke-width="1.45" stroke-linecap="round" stroke-linejoin="round"/>
<path opacity="0.3" d="M461.135 516.057L459.927 523.597H454.36L455.781 516.076L461.135 516.057Z" fill="black"/>
<path d="M455.521 515.544L421.313 516.408L434.954 506.693C436.06 505.919 436.968 504.892 437.604 503.702C438.241 502.512 438.588 501.189 438.617 499.841L439.221 488.966L457.787 489.033L455.521 515.544Z" fill="#FC9D9D"/>
<path opacity="0.15" d="M457.316 496.718H438.883L438.073 504.572L442.491 511.774L443.047 503.642C443.265 502.753 443.744 501.956 444.422 501.346C445.099 500.73 445.945 500.337 446.848 500.21L457.038 499.364L457.316 496.718Z" fill="black"/>
<path d="M408.996 521.199V520.468C408.996 519.302 409.459 518.184 410.283 517.362C411.107 516.541 412.225 516.075 413.39 516.075H419.512C420.806 516.087 422.052 515.586 422.975 514.68L438.617 499.841L443.452 506.227C443.832 506.729 444.319 507.134 444.878 507.418C445.437 507.702 446.053 507.853 446.68 507.871C447.307 507.883 447.929 507.75 448.499 507.49C449.069 507.23 449.573 506.844 449.973 506.36C450.367 505.895 450.856 505.515 451.407 505.255C451.958 504.989 452.559 504.844 453.17 504.832H456.427V520.933L408.996 521.199Z" fill="#3F4249"/>
<path d="M408.996 521.199V523.615H456.585V520.951L408.996 521.199Z" fill="black"/>
<path d="M441.741 503.835L431.134 512.42C430.57 512.873 429.858 513.103 429.136 513.067C428.412 513.03 427.727 512.728 427.212 512.221L426.414 511.417L438.592 499.841C438.908 499.751 439.244 499.757 439.553 499.866C439.863 499.974 440.132 500.18 440.321 500.446L441.584 502.258C441.748 502.457 441.853 502.705 441.888 502.959C441.924 503.219 441.887 503.485 441.783 503.72L441.741 503.835Z" fill="black"/>
<path d="M429.629 506.898L434.356 511.351" stroke="white" stroke-width="1.45" stroke-linecap="round" stroke-linejoin="round"/>
<path d="M432.162 504.566L436.997 509.158" stroke="white" stroke-width="1.45" stroke-linecap="round" stroke-linejoin="round"/>
<path d="M434.761 502.373L439.553 506.898" stroke="white" stroke-width="1.45" stroke-linecap="round" stroke-linejoin="round"/>
<path d="M511.571 317.734L498.794 496.899H478.409L476.312 375.589L497.017 318.978L511.571 317.734Z" fill="#6562CF"/>
<path opacity="0.2" d="M497.012 318.978L476.306 375.589L478.403 496.899H483.008L485.365 382.579L504.101 346.413C508.259 339.345 510.834 328.288 510.834 328.288L511.589 317.74L497.012 318.978Z" fill="black"/>
<path d="M461.728 317.081L432.18 396.535C431.311 398.714 430.963 401.067 431.164 403.404L437.093 496.827H457.576L457.884 404.752L498.335 346.715C498.335 346.715 512.84 330.923 510.132 313.722L461.728 317.081Z" fill="#6562CF"/>
<path opacity="0.2" d="M469.748 320.767L461.147 318.543L432.18 396.535C431.311 398.714 430.963 401.067 431.164 403.404L437.093 496.827H443.052L437.359 403.145C437.21 401.379 437.503 399.604 438.211 397.979L469.748 320.767Z" fill="black"/>
<path d="M505.412 175.742L504.808 188.545L507.014 208.814L486.405 212.439L485.528 199.794L480.452 200.67C480.282 200.706 480.107 200.743 479.932 200.767C476.632 201.244 474.68 201.069 473.598 195.843L472.679 189.487L470.612 188.677L470.498 188.623C470.226 188.47 470.026 188.218 469.935 187.92C469.845 187.621 469.875 187.3 470.014 187.022L472.849 181.802V181.5L472.607 180.763C471.61 177.662 471.495 174.345 472.268 171.181C473.477 166.692 477.103 162.022 481.6 160.91L485.135 160.046C487.855 159.381 492.726 159.273 495.216 160.547L497.833 161.889C501.726 163.882 504.917 169.507 505.364 173.797C505.43 174.443 505.449 175.093 505.412 175.742Z" fill="#FC9D9D"/>
<path d="M504.789 188.545L505.394 175.742C505.436 175.094 505.424 174.443 505.357 173.797C504.91 169.507 501.731 163.883 497.827 161.889L495.458 160.68C492.829 159.339 487.728 159.418 484.857 160.119L481.593 160.916C477.997 161.798 475.012 165.375 473.313 168.565L481.37 169.169C481.787 169.264 482.174 169.478 482.47 169.784C482.772 170.09 482.977 170.476 483.068 170.897L483.419 172.486C483.824 174.588 485.341 175.507 487.48 175.76L489.613 175.899L490.067 182.72C490.103 182.987 490.236 183.232 490.435 183.412C490.635 183.593 490.889 183.696 491.161 183.705C491.306 183.706 491.445 183.679 491.578 183.624C491.711 183.57 491.832 183.49 491.934 183.389C492.037 183.288 492.122 183.168 492.176 183.036C492.23 182.903 492.261 182.762 492.261 182.618V181.156L497.313 181.76L498.014 185.856C499.701 189.161 504.759 189.554 504.91 189.566L504.789 188.545Z" fill="#868A91"/>
<path opacity="0.15" d="M485.722 204.199L490.067 199.861C490.152 199.759 490.206 199.639 490.231 199.51C490.255 199.381 490.249 199.248 490.206 199.124C490.176 199.027 490.122 198.937 490.055 198.86C489.989 198.783 489.91 198.719 489.82 198.673C489.729 198.628 489.626 198.601 489.529 198.594C489.427 198.588 489.324 198.601 489.227 198.634L485.553 199.74L485.722 204.199Z" fill="black"/>
<path opacity="0.15" d="M500.976 188.708L496.341 188.061C496.988 187.406 497.55 186.671 498.009 185.874C498.287 186.523 498.692 187.108 499.2 187.595C499.713 188.083 500.318 188.461 500.976 188.708Z" fill="black"/>
<path d="M476.426 182.1C476.432 181.356 475.888 180.748 475.217 180.742C474.54 180.736 473.99 181.334 473.984 182.078C473.978 182.822 474.516 183.43 475.193 183.436C475.864 183.442 476.42 182.844 476.426 182.1Z" fill="#21252B"/>
<path d="M474.492 181.693C474.595 181.693 474.673 181.612 474.673 181.512C474.673 181.412 474.595 181.331 474.492 181.331C474.389 181.331 474.311 181.412 474.311 181.512C474.311 181.612 474.389 181.693 474.492 181.693Z" fill="white"/>
<path d="M492.176 189.487L492.248 181.428C492.26 180.571 492.611 179.753 493.221 179.152C493.832 178.551 494.654 178.216 495.512 178.219C496.37 178.23 497.186 178.579 497.79 179.19C498.389 179.802 498.727 180.625 498.721 181.482V183.071C498.715 183.92 498.54 184.761 498.207 185.543C497.875 186.325 497.392 187.035 496.787 187.63C496.183 188.226 495.464 188.697 494.678 189.015C493.886 189.334 493.046 189.494 492.194 189.487H492.176Z" fill="#FC9D9D"/>
<g opacity="0.3">
<path opacity="0.3" d="M493.463 183.143V181.802C493.475 181.237 493.705 180.698 494.11 180.302C494.515 179.906 495.053 179.683 495.621 179.681C495.935 179.677 496.243 179.741 496.527 179.871C496.805 180 497.059 180.191 497.259 180.431L497.301 180.485C497.343 180.536 497.368 180.594 497.386 180.657C497.404 180.719 497.404 180.784 497.392 180.847C497.386 180.911 497.362 180.972 497.331 181.027C497.295 181.081 497.253 181.129 497.198 181.166C497.144 181.203 497.083 181.229 497.023 181.243C496.963 181.256 496.896 181.256 496.83 181.244C496.769 181.232 496.709 181.208 496.654 181.171C496.6 181.135 496.558 181.089 496.521 181.035C496.413 180.895 496.274 180.782 496.116 180.706C495.953 180.631 495.778 180.594 495.603 180.6C495.282 180.6 494.974 180.727 494.751 180.954C494.521 181.18 494.394 181.488 494.394 181.808V183.155C494.388 183.283 494.328 183.402 494.237 183.491C494.146 183.581 494.025 183.633 493.898 183.639C493.832 183.65 493.765 183.644 493.705 183.622C493.645 183.6 493.584 183.563 493.542 183.513C493.5 183.463 493.469 183.403 493.457 183.338C493.439 183.274 493.445 183.207 493.463 183.143Z" fill="#21252B"/>
</g>
<path d="M472.963 191.946C473.996 191.87 475.018 191.638 475.985 191.257C476.033 191.234 476.094 191.229 476.148 191.243C476.202 191.257 476.251 191.29 476.287 191.335C476.317 191.379 476.335 191.435 476.335 191.491C476.329 191.547 476.311 191.601 476.275 191.644C475.477 192.639 474.413 193.392 473.211 193.819L472.963 191.946Z" fill="white"/>
<path d="M478.058 178.183C474.703 176.534 473.06 177.7 473.06 177.7L472.963 178.074C472.963 178.074 476.081 177.658 477.75 178.413L478.058 178.183Z" fill="#868A91"/>
<path d="M421.217 213.787C421.217 213.787 419.947 207.473 419.857 205.449C419.79 203.896 415.07 200.58 412.882 199.13C412.755 199.044 412.609 198.99 412.457 198.971C412.305 198.951 412.151 198.966 412.006 199.016C411.861 199.066 411.729 199.148 411.621 199.257C411.513 199.366 411.432 199.498 411.383 199.643C411.326 199.819 411.318 200.007 411.361 200.187C411.403 200.368 411.495 200.532 411.625 200.664L415.421 204.458C415.421 204.458 415.753 205.558 414.816 205.25C413.879 204.942 403.762 198.247 403.762 198.247C401.599 196.816 400.916 198.181 400.916 198.181C400.916 198.181 399.465 197.154 398.679 198.072C398.178 198.676 399.157 200.247 399.157 200.247C399.157 200.247 397.791 198.882 396.649 199.691C395.506 200.501 397.936 203.135 397.936 203.135C397.174 204.911 401.768 210.047 402.952 211.461C404.137 212.874 416.514 222.819 416.514 222.819L423.459 216.693L421.217 213.787Z" fill="#FC9D9D"/>
<g opacity="0.15">
<path opacity="0.15" d="M410.707 206.519C410.116 206.282 409.556 205.975 409.039 205.606C407.751 204.777 406.525 203.856 405.37 202.851C404.212 201.852 403.114 200.784 402.082 199.655C401.627 199.209 401.221 198.715 400.874 198.181C401.361 198.583 401.82 199.019 402.245 199.486C403.08 200.308 404.234 201.431 405.582 202.591C406.929 203.751 408.211 204.73 409.16 205.401C409.699 205.74 410.215 206.113 410.707 206.519Z" fill="black"/>
</g>
<g opacity="0.15">
<path opacity="0.15" d="M408.361 208.802C407.841 208.493 407.351 208.135 406.899 207.733C406.023 207.032 404.826 206.047 403.557 204.899C402.288 203.751 401.2 202.64 400.45 201.8C400.017 201.372 399.636 200.895 399.314 200.38C399.781 200.766 400.22 201.186 400.625 201.637C401.417 202.428 402.523 203.498 403.786 204.658L407.056 207.558C407.529 207.93 407.966 208.347 408.361 208.802Z" fill="black"/>
</g>
<g opacity="0.15">
<path opacity="0.15" d="M405.618 210.82C405.123 210.606 404.661 210.323 404.246 209.98C403.199 209.213 402.219 208.36 401.314 207.431C400.408 206.503 399.564 205.516 398.788 204.476C398.44 204.067 398.144 203.617 397.906 203.135C397.99 203.069 399.459 205.032 401.562 207.189C402.457 208.107 403.401 208.976 404.391 209.793C404.825 210.104 405.235 210.447 405.618 210.82Z" fill="black"/>
</g>
<path d="M514.46 235.464L509.322 286.395C509.322 286.395 509.201 286.148 513.082 304.236C514.23 309.595 512.906 317.77 512.906 317.77L457.908 321.588C457.908 321.588 460.326 257.371 463.589 246.327C468.237 230.74 484.682 212.633 484.682 212.633L484.906 209.334C484.918 209.125 485.014 208.93 485.166 208.787C485.317 208.644 485.516 208.563 485.728 208.561L507.485 208.138C507.691 208.133 507.89 208.204 508.041 208.336C508.198 208.469 508.301 208.654 508.325 208.857L508.93 213.086C508.93 213.086 517.421 222.71 514.46 235.464Z" fill="#3F4D79"/>
<path opacity="0.3" d="M467.905 257.021C478.717 255.359 493.941 247.783 493.941 247.783L463.674 246.037C463.674 246.128 463.62 246.218 463.589 246.309C460.302 257.353 457.908 321.57 457.908 321.57L469.748 320.748L467.675 303.125C466.448 292.643 466.188 282.068 466.913 271.539L467.905 257.021Z" fill="black"/>
<path opacity="0.3" d="M474.975 225.03C481.901 223.647 488.338 222.148 495.349 221.29L504.565 220.602L472.104 229.06L474.975 225.03Z" fill="black"/>
<path d="M451.937 254.193L491.36 248.273C497.168 247.405 502.729 245.328 507.678 242.177C508.579 241.605 509.358 240.862 509.969 239.989C510.579 239.116 511.014 238.13 511.244 237.089C512.072 233.325 512.846 227.423 510.38 224.783C506.596 220.741 506.669 219.46 503.43 219.061L455.799 234.461L420.799 211.032L412.441 220.97L444.521 250.683C445.314 251.895 446.426 252.864 447.735 253.483C449.043 254.102 450.497 254.348 451.937 254.193Z" fill="#3F4D79"/>
<g opacity="0.3">
<path opacity="0.3" d="M511.263 238.328C511.287 238.26 511.305 238.188 511.317 238.117C511.354 237.929 511.396 237.73 511.444 237.512C511.541 236.987 511.68 236.225 511.813 235.271C512.218 232.79 512.157 230.254 511.619 227.797C511.021 225.325 509.546 223.155 507.461 221.695C506.827 221.27 506.12 220.951 505.382 220.753C505.116 220.679 504.844 220.629 504.566 220.602C505.57 220.836 506.519 221.245 507.377 221.81C509.401 223.277 510.84 225.419 511.426 227.852C511.952 230.284 512.036 232.791 511.674 235.253C511.559 236.201 511.444 236.969 511.366 237.5C511.366 237.718 511.305 237.917 511.275 238.104C511.245 238.292 511.251 238.322 511.263 238.328Z" fill="black"/>
</g>
<g opacity="0.3">
<path opacity="0.3" d="M452.807 241.995C452.85 241.889 452.877 241.777 452.886 241.663C452.94 241.373 452.995 241.059 453.061 240.745C453.466 238.731 454.247 236.813 455.364 235.09L455.884 234.304C455.959 234.215 456.02 234.115 456.065 234.008C455.971 234.085 455.887 234.174 455.817 234.274C455.603 234.517 455.401 234.771 455.213 235.035C454.621 235.882 454.124 236.792 453.732 237.748C453.347 238.699 453.069 239.69 452.904 240.702C452.844 241.095 452.807 241.415 452.795 241.639C452.783 241.758 452.787 241.877 452.807 241.995Z" fill="black"/>
</g>
<path opacity="0.3" d="M485.528 212.445C485.528 212.445 501.72 210.119 508.295 212.796" stroke="black" stroke-width="0.69" stroke-miterlimit="10"/>
<path opacity="0.15" d="M475.182 189.07C475.182 189.07 478.095 190.321 478.929 193.227" stroke="black" stroke-width="0.69" stroke-miterlimit="10" stroke-linecap="round"/>
<path d="M469.887 265.896C469.778 265.938 469.331 265.068 468.884 263.957C468.436 262.845 468.176 261.896 468.279 261.854C468.382 261.812 468.835 262.682 469.276 263.8C469.718 264.917 469.996 265.854 469.887 265.896Z" fill="#FAFAFA"/>
<path d="M477.14 281.604C477.031 281.647 476.584 280.777 476.136 279.665C475.689 278.553 475.429 277.605 475.532 277.563C475.635 277.52 476.088 278.39 476.529 279.508C476.971 280.626 477.249 281.562 477.14 281.604Z" fill="#FAFAFA"/>
<path d="M474.867 256.809C474.764 256.761 475.06 255.831 475.538 254.731C476.015 253.631 476.487 252.774 476.596 252.822C476.704 252.87 476.402 253.795 475.931 254.9C475.459 256.006 474.976 256.858 474.867 256.809Z" fill="#FAFAFA"/>
<path d="M479.702 244.726C479.599 244.678 479.895 243.747 480.373 242.648C480.85 241.548 481.322 240.69 481.43 240.739C481.539 240.787 481.237 241.711 480.766 242.817C480.294 243.922 479.811 244.774 479.702 244.726Z" fill="#FAFAFA"/>
<path d="M424.099 226.601C423.997 226.553 424.293 225.622 424.77 224.523C425.248 223.423 425.719 222.565 425.828 222.614C425.937 222.662 425.635 223.586 425.163 224.692C424.692 225.797 424.208 226.649 424.099 226.601Z" fill="#FAFAFA"/>
<path d="M480.633 266.379C480.567 266.289 481.292 265.63 482.253 264.911C483.214 264.192 484.066 263.703 484.126 263.788C484.187 263.872 483.474 264.537 482.507 265.256C481.54 265.975 480.694 266.476 480.633 266.379Z" fill="#FAFAFA"/>
<path d="M462.779 277.351C462.676 277.303 462.973 276.372 463.45 275.273C463.927 274.173 464.399 273.315 464.508 273.364C464.616 273.412 464.314 274.336 463.843 275.442C463.371 276.547 462.888 277.399 462.779 277.351Z" fill="#FAFAFA"/>
<path d="M491.892 275.055C491.838 274.953 492.684 274.451 493.772 273.956C494.86 273.46 495.79 273.128 495.839 273.237C495.887 273.345 495.041 273.841 493.953 274.342C492.865 274.844 491.94 275.146 491.892 275.055Z" fill="#FAFAFA"/>
<path d="M463.843 305.771C463.734 305.813 463.287 304.943 462.84 303.832C462.392 302.72 462.133 301.771 462.235 301.729C462.338 301.687 462.791 302.557 463.232 303.675C463.674 304.792 463.952 305.729 463.843 305.771Z" fill="#FAFAFA"/>
<path d="M467.336 290.546C467.27 290.455 467.995 289.797 468.956 289.078C469.917 288.359 470.769 287.87 470.83 287.954C470.89 288.039 470.177 288.703 469.21 289.422C468.243 290.141 467.397 290.643 467.336 290.546Z" fill="#FAFAFA"/>
<path d="M478.596 299.222C478.542 299.119 479.388 298.618 480.476 298.122C481.564 297.627 482.494 297.295 482.543 297.403C482.591 297.512 481.745 298.007 480.657 298.509C479.569 299.01 478.645 299.312 478.596 299.222Z" fill="#FAFAFA"/>
<path d="M467.113 317.951C467.058 317.848 467.905 317.347 468.992 316.851C470.08 316.356 471.011 316.024 471.059 316.132C471.108 316.241 470.262 316.737 469.174 317.238C468.086 317.74 467.161 318.042 467.113 317.951Z" fill="#FAFAFA"/>
<path d="M490.968 290.196C490.871 290.262 490.237 289.513 489.554 288.528C488.871 287.543 488.399 286.716 488.496 286.619C488.593 286.522 489.221 287.296 489.904 288.287C490.587 289.277 491.089 290.129 490.968 290.196Z" fill="#FAFAFA"/>
<path d="M498.541 247.868C498.486 247.765 499.332 247.264 500.42 246.768C501.508 246.273 502.439 245.94 502.487 246.049C502.536 246.158 501.689 246.653 500.601 247.155C499.514 247.656 498.589 247.958 498.541 247.868Z" fill="#FAFAFA"/>
<path d="M497.615 263.008C497.519 263.075 496.884 262.325 496.201 261.341C495.518 260.356 495.047 259.528 495.143 259.431C495.24 259.335 495.869 260.108 496.552 261.099C497.235 262.09 497.736 262.942 497.615 263.008Z" fill="#FAFAFA"/>
<path d="M462.562 240.05C462.466 240.116 461.83 239.367 461.147 238.382C460.464 237.398 459.993 236.57 460.09 236.473C460.186 236.376 460.815 237.15 461.498 238.141C462.181 239.131 462.683 239.983 462.562 240.05Z" fill="#FAFAFA"/>
<path d="M479.201 315.534C479.146 315.432 479.992 314.93 481.08 314.435C482.168 313.939 483.099 313.607 483.147 313.716C483.196 313.825 482.349 314.32 481.262 314.821C480.174 315.323 479.249 315.625 479.201 315.534Z" fill="#FAFAFA"/>
<path d="M491.572 306.508C491.476 306.575 490.841 305.825 490.158 304.841C489.475 303.856 489.004 303.028 489.1 302.932C489.197 302.835 489.826 303.608 490.509 304.599C491.192 305.59 491.693 306.442 491.572 306.508Z" fill="#FAFAFA"/>
<path d="M501.804 286.075C501.84 285.966 502.795 286.172 503.937 286.546C505.079 286.921 505.974 287.308 505.938 287.416C505.901 287.525 504.947 287.32 503.804 286.951C502.662 286.583 501.768 286.19 501.804 286.075Z" fill="#FAFAFA"/>
<path d="M506.034 260.096C506.071 259.987 507.025 260.193 508.168 260.567C509.31 260.942 510.204 261.329 510.168 261.437C510.132 261.546 509.177 261.341 508.035 260.972C506.892 260.604 505.998 260.211 506.034 260.096Z" fill="#FAFAFA"/>
<path d="M444.992 245.596C445.029 245.487 445.984 245.693 447.126 246.067C448.269 246.442 449.163 246.829 449.127 246.937C449.091 247.046 448.135 246.841 446.993 246.472C445.85 246.104 444.956 245.711 444.992 245.596Z" fill="#FAFAFA"/>
<path d="M484.639 218.868C484.585 218.765 485.431 218.264 486.519 217.768C487.607 217.273 488.537 216.94 488.586 217.049C488.634 217.158 487.788 217.653 486.7 218.155C485.612 218.656 484.688 218.958 484.639 218.868Z" fill="#FAFAFA"/>
<path d="M492.134 231.096C492.17 230.987 493.125 231.193 494.267 231.567C495.41 231.942 496.304 232.329 496.268 232.437C496.232 232.546 495.277 232.341 494.134 231.972C492.992 231.604 492.098 231.211 492.134 231.096Z" fill="#FAFAFA"/>
<path d="M437.739 229.284C437.776 229.175 438.731 229.38 439.873 229.755C441.016 230.129 441.91 230.516 441.874 230.625C441.838 230.734 440.882 230.528 439.74 230.16C438.598 229.791 437.703 229.398 437.739 229.284Z" fill="#FAFAFA"/>
<path d="M504.222 217.2C504.258 217.091 505.213 217.297 506.355 217.671C507.497 218.046 508.392 218.433 508.356 218.541C508.319 218.65 507.364 218.445 506.222 218.076C505.08 217.708 504.186 217.315 504.222 217.2Z" fill="#FAFAFA"/>
<path d="M501.804 315.679C501.84 315.571 502.795 315.776 503.937 316.151C505.079 316.525 505.974 316.912 505.938 317.021C505.901 317.129 504.947 316.924 503.804 316.555C502.662 316.187 501.768 315.794 501.804 315.679Z" fill="#FAFAFA"/>
<path d="M506.077 299.246C506.191 299.276 506.077 300.243 505.756 301.403C505.436 302.563 505.152 303.493 505.019 303.463C504.886 303.433 505.019 302.466 505.339 301.3C505.66 300.134 505.962 299.216 506.077 299.246Z" fill="#FAFAFA"/>
<path d="M69.1138 495.812C69.1138 495.812 73.0483 464.431 82.0716 447.291" stroke="#868A91" stroke-width="0.59" stroke-miterlimit="10"/>
<path d="M62.4658 441.896C62.4658 441.896 68.5942 467.15 67.6272 484.616" stroke="#868A91" stroke-width="0.59" stroke-miterlimit="10"/>
<path d="M81.2012 448.838C81.2012 448.838 81.2677 431.885 96.093 430.918C96.093 430.858 97.3017 445.744 81.2012 448.838Z" fill="#6562CF"/>
<path d="M45.6821 445.164C45.6821 445.164 41.6872 429.051 24.1543 433.625C24.1543 433.625 27.5086 445.418 45.6821 445.164Z" fill="#6562CF"/>
<path d="M64.702 451.798C64.702 451.798 69.9238 438.071 57.8061 430.924C57.8061 430.858 52.4514 444.391 64.702 451.798Z" fill="#6562CF"/>
<path d="M45.6821 445.164C45.6821 445.164 61.8008 463.592 61.8008 495.812" stroke="#868A91" stroke-width="0.59" stroke-miterlimit="10"/>
<path d="M74.0454 442.651C70.5038 456.825 68.9566 459.918 66.8896 495.818" stroke="#868A91" stroke-width="0.59" stroke-miterlimit="10"/>
<path d="M32.3438 422.997C39.4331 426.218 61.801 449.671 58.0599 495.232" stroke="#868A91" stroke-width="0.59" stroke-miterlimit="10"/>
<path d="M55.3527 495.232C55.3527 495.232 59.9943 463.658 40.4609 453.151" stroke="#868A91" stroke-width="0.59" stroke-miterlimit="10"/>
<path d="M69.7183 491.039C71.1972 487.377 73.6485 484.194 76.8076 481.825" stroke="#868A91" stroke-width="0.59" stroke-miterlimit="10"/>
<path d="M71.4707 481.245C71.4707 481.245 82.4885 471.518 88.0366 469.905" stroke="#868A91" stroke-width="0.59" stroke-miterlimit="10"/>
<path d="M49.2301 461.145C49.2301 461.145 44.9088 444.584 27.6357 448.457C27.6357 448.457 30.6032 462.564 49.2301 461.145Z" fill="#94A0FD"/>
<path d="M58.0598 478.146C58.0598 478.146 55.0984 466.352 39.3242 470.292C39.3847 470.225 44.54 482.018 58.0598 478.146Z" fill="#6562CF"/>
<path d="M68.8242 470.485C68.8242 470.485 70.3231 451.991 89.5785 449.75C89.518 449.75 90.485 467.875 68.8242 470.497" fill="#6562CF"/>
<path d="M64.3756 414.165C64.3756 414.165 63.602 482.538 63.4751 495.812" stroke="#868A91" stroke-width="0.59" stroke-miterlimit="10"/>
<path d="M67.2158 465.591C67.2158 465.591 50.7769 466.425 50.7769 448.258C50.7769 448.258 66.6961 448.445 67.2158 465.591Z" fill="#94A0FD"/>
<path d="M82.8149 472.612C82.8149 472.612 87.2631 460.111 101.442 463.271C101.375 463.271 99.0545 473.838 82.8149 472.612Z" fill="#94A0FD"/>
<path d="M76.2395 495.485H47.1025V499.159H76.2395V495.485Z" fill="#868A91"/>
<path d="M72.5645 522.999H50.7768L49.1631 499.098H74.1782L72.5645 522.999Z" fill="#868A91"/>
<path d="M72.5645 522.999H50.7768L49.1631 499.098H74.1782L72.5645 522.999Z" fill="#868A91"/>
<path d="M76.2391 495.485H71.531V499.098H67.1493H49.1631L49.2296 500.125H67.1493L67.2158 522.999H72.5645L74.1721 499.098H76.2391V495.485Z" fill="#61656D"/>
<path d="M64.1824 428.278C64.1824 428.278 56.1261 416.098 66.6362 404.438C66.5697 404.438 73.5321 416.291 64.1824 428.278Z" fill="#94A0FD"/>
<path d="M71.4647 452.771C71.4647 452.771 62.6348 433.891 78.4271 422.291C78.4271 422.291 89.3059 439.37 71.4647 452.771Z" fill="#94A0FD"/>
<path d="M73.5981 485.045C73.5981 485.045 75.7255 476.799 87.0032 478.539C87.0032 478.539 85.1357 486.918 73.5981 485.045Z" fill="#94A0FD"/>
<path d="M58.2351 488.785C58.2351 488.785 55.8176 472.871 70.3528 470.999C70.3528 470.999 73.834 484.852 58.2351 488.785Z" fill="#94A0FD"/>
<path d="M28.3428 420.545C28.3428 420.545 37.1123 419.644 38.7864 428.085C38.8529 428.024 30.9295 428.991 28.3428 420.545Z" fill="#94A0FD"/>
<path d="M49.7739 419.644C49.7739 419.644 38.8951 430.984 49.5201 443.358C49.5201 443.358 60.284 431.274 49.7739 419.644Z" fill="#94A0FD"/>
</svg>
