<svg width="711" height="565" viewBox="0 0 711 565" fill="none" xmlns="http://www.w3.org/2000/svg">
<path d="M732.291 565L785.394 272.679C786.922 264.253 785.538 255.54 781.48 248.069L675.104 52.4085C669.342 41.8121 658.864 34.9059 647.171 33.9964L209.975 0.102087C198.62 -0.78149 187.56 4.11067 180.313 13.2193L8.02646 229.728C1.31259 238.168 -1.38673 249.29 0.680039 260.023L59.4639 565H732.291Z" fill="#F2F2F2"/>
<path d="M765.174 564.947H78.606C78.4006 564.947 78.2598 564.806 78.2598 564.601C78.2598 564.395 78.4006 564.254 78.606 564.254H765.238C765.443 564.254 765.584 564.395 765.584 564.601C765.584 564.806 765.379 564.947 765.174 564.947Z" fill="#B0B4B9"/>
<path d="M509.507 540.001C509.507 540.001 509.249 542.952 508.903 543.926C507.447 548.004 502.823 549.3 498.721 550.638L476.226 558.593C474.201 559.238 474.447 562.201 476.572 562.201H479.389C479.735 562.694 480.328 562.993 480.974 562.993C481.566 562.993 482.259 562.694 482.705 562.301C482.752 562.254 482.805 562.254 482.852 562.201H483.245C483.292 562.248 483.391 562.248 483.444 562.348C483.791 562.741 484.336 563.04 484.929 563.04C485.475 563.04 486.115 562.793 486.561 562.447C486.76 562.248 487.106 562.301 487.253 562.494C487.552 562.84 487.946 563.04 488.439 563.04C488.885 563.04 489.425 562.84 489.824 562.547C490.023 562.4 490.317 562.447 490.469 562.594C490.768 562.84 491.115 563.04 491.555 563.04C492.148 563.04 492.641 562.694 492.887 562.248H493.087L522.982 561.802C523.011 561.802 523.035 561.802 523.064 561.802C526.087 561.726 528.634 559.508 529.232 556.545L531.697 542.495L509.507 540.001Z" fill="#FC9D9D"/>
<path opacity="0.15" d="M523.434 541.076L509.278 541.733L524.261 545.816L522.495 552.92C521.773 555.806 519.238 557.924 516.262 558C516.233 558 516.209 558 516.18 558L486.513 558.446H486.314C486.067 558.939 485.522 559.238 484.982 559.238C484.589 559.238 484.189 559.092 483.896 558.792C483.697 558.646 483.45 558.593 483.25 558.746C482.857 559.045 482.311 559.238 481.865 559.238C481.372 559.238 480.973 559.039 480.68 558.693C480.48 558.493 480.187 558.493 479.987 558.646C479.541 559.039 478.902 559.238 478.356 559.238C477.763 559.238 477.217 558.992 476.871 558.546C476.824 558.499 476.771 558.446 476.672 558.399H476.625L476.179 558.546C476.032 558.593 475.932 558.646 475.832 558.693C475.785 558.74 475.686 558.792 475.633 558.839C474.248 559.825 474.647 562.201 476.525 562.201H479.342C479.688 562.694 480.281 562.993 480.926 562.993C481.519 562.993 482.212 562.694 482.658 562.301C482.705 562.254 482.757 562.254 482.804 562.201H483.198C483.245 562.248 483.344 562.248 483.397 562.348C483.743 562.741 484.289 563.04 484.882 563.04C485.428 563.04 486.067 562.794 486.513 562.447C486.713 562.248 487.059 562.301 487.206 562.494C487.505 562.84 487.899 563.04 488.391 563.04C488.838 563.04 489.377 562.84 489.777 562.547C489.976 562.4 490.27 562.447 490.422 562.594C490.721 562.84 491.068 563.04 491.508 563.04C492.101 563.04 492.594 562.694 492.84 562.248H493.04L520.875 561.802C526.204 562.565 527.747 559.772 528.886 557.695L531.697 542.495L523.434 541.076Z" fill="black"/>
<path opacity="0.15" d="M497.335 551.131C497.335 551.131 501.684 558.792 509.842 561.556H501.584L497.335 551.131Z" fill="black"/>
<path d="M475.04 564.325H526.063C526.803 564.325 527.448 563.732 527.448 562.94C527.448 562.201 526.855 561.556 526.063 561.556H473.708V562.94C473.708 563.679 474.301 564.325 475.04 564.325Z" fill="#4D61FC"/>
<path d="M473.708 561.556C473.808 558.64 475.686 556.117 478.456 555.132L495.364 549.253C496.103 549.007 496.848 549.4 497.042 550.145C497.782 552.615 499.613 557.907 503.222 561.562H526.063C526.803 561.562 527.448 562.154 527.448 562.946C527.448 563.738 526.855 564.331 526.063 564.331H475.04C474.301 564.331 473.708 563.738 473.708 562.999V561.556Z" fill="#4D61FC"/>
<path d="M473.708 561.556C473.808 558.64 475.686 556.117 478.456 555.132L495.364 549.253C496.103 549.007 496.848 549.4 497.042 550.145C497.782 552.615 499.613 557.907 503.222 561.562H526.063C526.803 561.562 527.448 562.154 527.448 562.946C527.448 563.738 526.855 564.331 526.063 564.331H475.04C474.301 564.331 473.708 563.738 473.708 562.999V561.556Z" fill="#21252B"/>
<path opacity="0.4" d="M473.708 561.556C473.808 559.233 474.993 557.156 476.871 555.924C474.447 557.654 474.894 559.385 478.356 559.233C496.203 558.394 498.527 558.394 500.604 558.194C500.558 558.147 500.558 558.094 500.558 558.048C501.35 559.285 502.236 560.517 503.275 561.556H526.069C526.808 561.556 527.454 562.148 527.454 562.94C527.454 563.732 526.861 564.325 526.069 564.325H475.046C474.307 564.325 473.714 563.732 473.714 562.993L473.708 561.556Z" fill="black"/>
<path opacity="0.4" d="M473.708 561.11H502.823L503.222 561.556H473.708V561.11Z" fill="black"/>
<path d="M655.627 466.493H593.049C588.782 466.493 585.713 462.316 586.922 458.151L593.718 319.281C594.522 316.517 597.016 314.623 599.845 314.623H662.423C666.69 314.623 669.759 318.8 668.55 322.965L661.76 461.835C660.95 464.598 658.456 466.493 655.627 466.493Z" fill="#84888F"/>
<path d="M647.018 466.493H592.515C588.249 466.493 585.179 462.316 586.388 458.151L593.184 319.281C593.988 316.517 596.482 314.623 599.311 314.623H653.814C658.081 314.623 661.15 318.8 659.941 322.965L653.151 461.835C652.341 464.598 649.847 466.493 647.018 466.493Z" fill="#B0B4B9"/>
<path d="M636.525 466.492H570.29C567.203 466.492 564.697 463.987 564.697 460.901C564.697 457.815 567.203 455.31 570.29 455.31H636.525C639.612 455.31 642.118 457.815 642.118 460.901C642.118 463.992 639.618 466.492 636.525 466.492Z" fill="#B0B4B9"/>
<path d="M625.497 553.571H568.564V559.203H625.497V553.571Z" fill="#B0B4B9"/>
<path d="M573.858 558.077C574.345 560.998 572.368 563.762 569.439 564.249C566.516 564.735 563.752 562.758 563.265 559.831C562.778 556.909 564.756 554.146 567.684 553.659C570.613 553.172 573.377 555.149 573.858 558.077Z" fill="#B0B4B9"/>
<path d="M567.684 553.659C567.978 553.612 568.271 553.595 568.565 553.595V553.571H625.497V559.203H573.923C573.811 561.679 571.986 563.826 569.439 564.249C566.516 564.736 563.752 562.759 563.265 559.831C562.778 556.909 564.756 554.146 567.684 553.659Z" fill="#B0B4B9"/>
<path d="M647.065 553.571H590.132V559.203H647.065V553.571Z" fill="#84888F"/>
<path d="M595.426 558.077C595.913 560.998 593.935 563.762 591.006 564.249C588.084 564.735 585.32 562.758 584.833 559.831C584.345 556.909 586.323 554.146 589.252 553.659C592.18 553.172 594.944 555.149 595.426 558.077Z" fill="#84888F"/>
<path d="M620.708 463.137H615.074V555.877H620.708V463.137Z" fill="#84888F"/>
<path d="M652.358 558.077C652.845 560.998 650.868 563.762 647.939 564.249C645.016 564.735 642.252 562.758 641.765 559.831C641.278 556.909 643.256 554.146 646.184 553.659C649.113 553.172 651.877 555.149 652.358 558.077Z" fill="#84888F"/>
<path d="M653.867 466.492H587.638C584.551 466.492 582.045 463.987 582.045 460.901C582.045 457.815 584.551 455.31 587.638 455.31H653.867C656.954 455.31 659.46 457.815 659.46 460.901C659.46 463.992 656.954 466.492 653.867 466.492Z" fill="#84888F"/>
<path d="M713.581 418.433H668.263V564.296H713.581V418.433Z" fill="#61656D"/>
<path opacity="0.5" d="M713.581 418.433H668.263V564.296H713.581V418.433Z" fill="#263238"/>
<path d="M723.371 410.084H421.922V418.426H723.371C725.677 418.426 727.543 416.561 727.543 414.255C727.543 411.955 725.677 410.084 723.371 410.084Z" fill="#61656D"/>
<path d="M509.272 541.732L531.691 542.495L540.788 455.545H628.05V418.579H525.957C525.687 418.579 525.417 418.585 525.147 418.597C517.248 418.996 511.121 425.701 510.998 433.609L509.272 541.732Z" fill="#3F4D79"/>
<path d="M549.72 540.001C549.72 540.001 549.462 542.952 549.116 543.926C547.66 548.004 543.036 549.3 538.934 550.638L516.439 558.593C514.414 559.238 514.66 562.201 516.785 562.201H519.602C519.948 562.694 520.541 562.993 521.186 562.993C521.779 562.993 522.472 562.694 522.918 562.301C522.965 562.254 523.017 562.254 523.064 562.201H523.458C523.505 562.248 523.604 562.248 523.657 562.348C524.003 562.741 524.549 563.04 525.142 563.04C525.688 563.04 526.327 562.793 526.773 562.447C526.973 562.248 527.319 562.301 527.466 562.494C527.765 562.84 528.158 563.04 528.651 563.04C529.097 563.04 529.637 562.84 530.037 562.547C530.236 562.4 530.529 562.447 530.682 562.594C530.981 562.84 531.328 563.04 531.768 563.04C532.361 563.04 532.853 562.694 533.1 562.248H533.3L563.195 561.802C563.224 561.802 563.248 561.802 563.277 561.802C566.3 561.726 568.847 559.508 569.445 556.545L572.297 542.495L549.72 540.001Z" fill="#FC9D9D"/>
<path opacity="0.15" d="M563.647 541.076L549.433 542.437L564.468 545.816L562.702 552.92C561.98 555.806 559.445 557.924 556.469 558C556.44 558 556.416 558 556.387 558L526.721 558.446H526.521C526.274 558.939 525.729 559.238 525.189 559.238C524.796 559.238 524.396 559.092 524.103 558.792C523.904 558.646 523.657 558.593 523.457 558.746C523.064 559.045 522.519 559.238 522.072 559.238C521.58 559.238 521.18 559.039 520.887 558.693C520.687 558.493 520.394 558.493 520.194 558.646C519.748 559.039 519.109 559.238 518.563 559.238C517.97 559.238 517.424 558.992 517.078 558.546C517.031 558.499 516.978 558.446 516.879 558.399H516.832L516.386 558.546C516.239 558.593 516.139 558.646 516.039 558.693C515.992 558.74 515.893 558.792 515.84 558.839C514.455 559.825 514.854 562.201 516.732 562.201H519.549C519.895 562.694 520.488 562.993 521.133 562.993C521.726 562.993 522.419 562.694 522.865 562.301C522.912 562.254 522.965 562.254 523.011 562.201H523.405C523.452 562.248 523.551 562.248 523.604 562.348C523.95 562.741 524.496 563.04 525.089 563.04C525.635 563.04 526.274 562.794 526.721 562.447C526.92 562.248 527.266 562.301 527.413 562.494C527.712 562.84 528.106 563.04 528.599 563.04C529.045 563.04 529.584 562.84 529.984 562.547C530.183 562.4 530.477 562.447 530.629 562.594C530.928 562.84 531.275 563.04 531.715 563.04C532.308 563.04 532.801 562.694 533.047 562.248H533.247L561.082 561.802C566.411 562.565 567.954 559.772 569.093 557.695L572.291 542.495L563.647 541.076Z" fill="black"/>
<path opacity="0.15" d="M537.548 551.131C537.548 551.131 541.897 558.792 550.055 561.556H541.797L537.548 551.131Z" fill="black"/>
<path opacity="0.2" d="M520.136 542.102L531.697 542.495L540.794 455.545H628.056V418.579H540.741C537.478 418.579 534.338 420.286 531.709 422.744C527.882 426.323 525.723 431.333 525.459 436.566L520.136 542.102Z" fill="black"/>
<path d="M515.253 564.325H566.276C567.015 564.325 567.661 563.732 567.661 562.94C567.661 562.201 567.068 561.556 566.276 561.556H513.921V562.94C513.921 563.679 514.514 564.325 515.253 564.325Z" fill="#4D61FC"/>
<path d="M513.921 561.556C514.021 558.64 515.899 556.117 518.669 555.132L535.577 549.253C536.316 549.007 537.061 549.4 537.255 550.145C537.995 552.615 539.826 557.907 543.435 561.562H566.276C567.015 561.562 567.661 562.154 567.661 562.946C567.661 563.738 567.068 564.331 566.276 564.331H515.253C514.514 564.331 513.921 563.738 513.921 562.999V561.556Z" fill="#4D61FC"/>
<path d="M513.921 561.556C514.021 558.64 515.899 556.117 518.669 555.132L535.577 549.253C536.316 549.007 537.061 549.4 537.255 550.145C537.995 552.615 539.826 557.907 543.435 561.562H566.276C567.015 561.562 567.661 562.154 567.661 562.946C567.661 563.738 567.068 564.331 566.276 564.331H515.253C514.514 564.331 513.921 563.738 513.921 562.999V561.556Z" fill="#21252B"/>
<path opacity="0.4" d="M513.921 561.556C514.021 559.233 515.206 557.156 517.084 555.924C514.66 557.654 515.106 559.385 518.569 559.233C536.416 558.394 538.74 558.394 540.817 558.194C540.77 558.147 540.77 558.094 540.77 558.048C541.563 559.285 542.449 560.517 543.488 561.556H566.282C567.021 561.556 567.667 562.148 567.667 562.94C567.667 563.732 567.074 564.325 566.282 564.325H515.259C514.519 564.325 513.927 563.732 513.927 562.993L513.921 561.556Z" fill="black"/>
<path opacity="0.4" d="M513.921 561.11H543.042L543.435 561.556H513.921V561.11Z" fill="black"/>
<path d="M549.433 542.436L572.291 542.495L591.517 455.545H632.399C640.187 455.545 646.502 449.232 646.502 441.447V418.573H577.826C571.3 418.573 565.419 422.527 562.942 428.558L549.433 542.436Z" fill="#3F4D79"/>
<path opacity="0.2" d="M577.327 447.69C581.036 440.473 585.138 438.35 593.249 438.35H635.451L633.326 418.579H646.232V441.911C646.232 449.444 640.122 455.545 632.593 455.545H591.576L572.303 542.495L561.763 542.465L577.327 447.69Z" fill="black"/>
<path d="M548.5 410.037L558.388 341.937C559.427 334.92 564.615 329.236 571.487 327.605L597.938 321.327L624.588 321.574L649.207 327.452C657.958 329.529 663.644 337.977 662.306 346.877L659.437 365.756L654.589 376.234C654.342 376.826 654.196 377.419 654.043 378.011L646.49 410.084L548.5 410.037Z" fill="#6562CF"/>
<path d="M572.644 358.463L633.538 360.909L632.241 373.482L571.405 370.712L572.644 358.463Z" fill="white"/>
<path opacity="0.2" d="M630.814 387.005L634.723 348.602C634.77 348.109 634.077 347.956 633.931 348.455L621.771 388.337L630.814 387.005Z" fill="black"/>
<path d="M558.189 404.751C558.682 405.344 559.574 405.491 560.214 404.998L568.964 398.574L557.843 403.666C557.796 404.059 557.942 404.452 558.189 404.751Z" fill="#868A91"/>
<path opacity="0.2" d="M573.665 348.408L568.97 394.714L564.867 398.768L561.111 396.298L569.316 351.817C570.155 348.162 573.665 347.863 573.665 348.408Z" fill="black"/>
<path d="M624.635 321.574C624.635 321.574 625.128 323.598 623.549 324.589C621.771 325.628 614.898 330.221 605.209 327.306C605.209 327.306 602.146 326.467 599.229 324.343C598.583 323.85 598.09 323.158 597.991 322.319C597.991 322.219 597.991 322.172 597.991 322.073V321.38C597.991 321.38 597.991 321.38 595.273 322.026C595.273 322.865 595.52 324.449 596.905 325.833C597.697 326.625 609.411 335.666 624.341 327.317C624.341 327.317 627.604 326.033 627.258 322.225C624.635 321.574 624.635 321.574 624.635 321.574Z" fill="white"/>
<path d="M587.163 393.382L580.144 394.321L565.161 392.989C563.576 393.136 562.884 393.435 561.698 394.474L552.455 402.728C551.862 403.274 551.809 404.159 552.308 404.752C552.801 405.344 553.693 405.491 554.333 404.998L563.083 398.574L557.396 405.298C556.751 406.037 557.05 407.228 557.989 407.574C558.535 407.773 559.075 407.621 559.474 407.275L567.086 399.812L561.299 405.497C560.607 406.189 560.853 407.327 561.745 407.674C562.191 407.873 562.684 407.773 563.03 407.527L571.141 401.596L565.654 405.65C565.008 406.095 565.008 407.081 565.654 407.527C566 407.773 566.446 407.826 566.792 407.674L574.157 404.611C574.85 404.312 575.689 404.312 576.382 404.658L579.199 406.043C581.476 407.181 584.046 407.773 586.564 407.773H591.159C597.744 407.767 587.163 393.382 587.163 393.382Z" fill="#FC9D9D"/>
<path opacity="0.15" d="M565.654 405.883C565.701 405.883 565.754 405.883 565.801 405.836L570.842 402.129C570.942 402.029 570.989 401.882 570.889 401.782C570.789 401.683 570.642 401.636 570.543 401.736L565.501 405.443C565.401 405.543 565.355 405.69 565.454 405.789C565.507 405.836 565.607 405.883 565.654 405.883Z" fill="black"/>
<path opacity="0.15" d="M561.358 405.737C561.405 405.737 561.505 405.737 561.505 405.69L566.945 400.351C567.045 400.252 567.045 400.105 566.945 400.005C566.845 399.905 566.698 399.905 566.599 400.005L561.158 405.344C561.059 405.444 561.059 405.59 561.158 405.69C561.205 405.737 561.305 405.737 561.358 405.737Z" fill="black"/>
<path opacity="0.15" d="M572.526 403.712C570.848 404.551 568.025 405.989 567.039 406.528C565.654 407.32 565.261 406.282 565.261 406.282C565.161 406.728 565.308 407.221 565.707 407.52C566.053 407.766 566.499 407.819 566.845 407.667L574.211 404.604C574.903 404.305 575.742 404.305 576.435 404.651L575.003 403.812C574.211 403.366 573.319 403.366 572.526 403.712Z" fill="black"/>
<path d="M588.301 393.975L630.768 387.75L633.538 360.864L660.035 362.195L654.647 396.545C653.609 403.021 648.074 407.762 641.548 407.762H593.249L588.301 393.975Z" fill="#4D61FC"/>
<path d="M582.515 393.975L630.768 387.797L633.538 360.91L660.035 362.242L654.647 396.591C653.609 403.068 648.075 407.809 641.548 407.809H587.315L582.515 393.975Z" fill="#6562CF"/>
<path d="M587.309 393.382L582.515 393.975L587.263 407.767H593.196L587.309 393.382Z" fill="white"/>
<g opacity="0.2">
<path opacity="0.2" d="M586.816 393.036C586.863 393.235 587.016 393.335 587.163 393.335H587.21L630.814 387.011L630.914 386.219L587.11 392.596C586.916 392.643 586.769 392.836 586.816 393.036Z" fill="black"/>
</g>
<path opacity="0.15" d="M586.47 405.291L587.262 407.714H641.496C648.022 407.714 653.609 402.968 654.595 396.497L662.359 346.83C663.691 337.936 658.01 329.482 649.26 327.405L644.665 326.32C651.684 329.435 655.939 336.898 654.753 344.706L647.581 390.472C646.543 396.949 641.008 401.689 634.482 401.689L586.47 405.291Z" fill="black"/>
<path opacity="0.15" d="M581.675 405.344C582.814 405.344 583.7 404.306 583.606 403.167L582.52 393.974L587.315 407.761H586.623C584.052 407.761 581.529 407.168 579.257 406.03L575.895 404.446C576.681 404.552 578.758 405.344 581.675 405.344Z" fill="black"/>
<path d="M593.888 407.368H545.142C544.749 407.368 544.403 407.714 544.403 408.107V409.345C544.403 409.738 544.749 410.084 545.142 410.084H593.888C594.281 410.084 594.628 409.738 594.628 409.345V408.107C594.628 407.714 594.328 407.368 593.888 407.368Z" fill="#21252B"/>
<path opacity="0.6" d="M593.888 407.368H545.142C544.749 407.368 544.403 407.714 544.403 408.107V409.345C544.403 409.738 544.749 410.084 545.142 410.084H593.888C594.281 410.084 594.628 409.738 594.628 409.345V408.107C594.628 407.714 594.328 407.368 593.888 407.368Z" fill="black"/>
<path d="M561.011 407.368H476.02C475.627 407.368 475.281 407.714 475.281 408.107V409.345C475.281 409.738 475.627 410.084 476.02 410.084H561.006C561.399 410.084 561.745 409.738 561.745 409.345V408.107C561.698 407.714 561.405 407.368 561.011 407.368Z" fill="#21252B"/>
<g opacity="0.6">
<path opacity="0.6" d="M477.112 407.861H563.629C563.776 407.861 563.875 407.761 563.875 407.614C563.875 407.468 563.776 407.368 563.629 407.368H477.112C476.965 407.368 476.865 407.468 476.865 407.614C476.865 407.761 477.012 407.861 477.112 407.861Z" fill="black"/>
</g>
<path d="M561.205 407.367H548.4C547.414 407.367 546.569 406.675 546.375 405.69L535.647 349.299C535.4 348.014 536.386 346.876 537.672 346.876H550.477C551.463 346.876 552.308 347.568 552.502 348.554L563.23 404.944C563.429 406.229 562.491 407.367 561.205 407.367Z" fill="#21252B"/>
<path opacity="0.6" d="M561.205 407.367H548.4C547.414 407.367 546.569 406.675 546.375 405.69L535.647 349.299C535.4 348.014 536.386 346.876 537.672 346.876H550.477C551.463 346.876 552.308 347.568 552.502 348.554L563.23 404.944C563.429 406.229 562.491 407.367 561.205 407.367Z" fill="black"/>
<path d="M559.38 407.367H477.159C476.173 407.367 475.328 406.675 475.134 405.69L464.406 349.299C464.16 348.014 465.146 346.876 466.431 346.876H548.599C549.585 346.876 550.43 347.568 550.624 348.554L561.352 404.944C561.604 406.229 560.665 407.367 559.38 407.367Z" fill="#263238"/>
<path opacity="0.6" d="M512.412 375.541C512.905 376.68 512.365 377.665 511.227 377.665C511.18 377.665 511.08 377.665 511.027 377.665C512.36 379.149 514.39 380.188 516.168 380.135C518.592 380.088 519.731 378.111 518.639 375.688C517.6 373.265 514.731 371.388 512.313 371.441C510.781 371.487 509.742 372.279 509.496 373.517C510.628 373.564 511.914 374.403 512.412 375.541Z" fill="black"/>
<path d="M595.767 292.165C595.767 292.165 618.408 275.556 620.632 293.649L621.278 298.395L624.641 321.574V321.621L624.688 322.114C624.788 322.806 624.588 323.446 624.195 323.945V323.991L624.148 324.038C624.001 324.238 623.802 324.431 623.555 324.584C621.724 325.722 620.539 326.315 619.054 326.86C612.328 329.43 604.57 328.444 598.636 323.898C598.19 323.352 597.944 322.66 597.991 321.921L598.384 309.865C597.991 308.627 597.738 307.248 597.592 305.711C596.852 298.595 595.767 292.165 595.767 292.165Z" fill="#FC9D9D"/>
<path d="M593.196 293.449C597.644 293.449 601.254 289.841 601.254 285.394C601.254 280.947 597.644 277.339 593.196 277.339C588.747 277.339 585.138 280.947 585.138 285.394C585.138 289.841 588.747 293.449 593.196 293.449Z" fill="#263238"/>
<path d="M592.157 279.563C592.157 279.563 586.324 315.49 604.664 316.529C620.533 317.467 620.433 292.903 620.433 292.903L618.502 277.087L592.157 279.563Z" fill="#FC9D9D"/>
<path d="M593.342 281.693H609.458C611.483 281.693 613.114 283.324 613.114 285.348C613.114 287.372 614.746 289.003 616.77 289.003C617.316 289.003 617.756 289.449 617.756 289.988V293.549C617.756 293.995 618.103 294.388 618.596 294.388C618.989 294.388 619.335 294.089 619.388 293.696L619.881 290.288L620.526 289.103L624.482 291.179C624.482 291.179 629.922 281.294 626.36 272.94C624.335 268.147 619.341 266.809 617.064 266.663C616.324 266.616 615.632 266.217 615.186 265.624C614.147 264.093 611.676 261.523 606.635 262.116C602.779 262.562 600.755 264.785 599.81 266.616C599.217 267.654 597.932 268.147 596.793 267.754C595.115 267.161 592.691 266.862 590.068 268.739C584.938 272.3 587.708 281.247 593.342 281.693Z" fill="#263238"/>
<path opacity="0.15" d="M621.471 299.58C621.471 299.58 619.987 299.826 619.147 299.234L621.964 302.988L621.471 299.58Z" fill="black"/>
<path d="M619.893 290.24C619.893 290.24 620.832 286.832 624.394 288.116C628.449 289.548 628.35 298.594 621.677 299.58C618.167 300.125 618.76 298.049 619.153 295.28C619.893 290.24 619.893 290.24 619.893 290.24Z" fill="#FC9D9D"/>
<path opacity="0.3" d="M624.734 290.387C624.042 289.994 623.349 289.842 622.757 290.041C622.164 290.241 621.671 290.686 621.325 291.373C620.978 292.112 620.779 292.957 620.832 293.843V294.641C620.832 294.887 621.031 295.034 621.278 295.034C621.524 295.034 621.671 294.834 621.671 294.588V293.796C621.624 293.596 621.718 292.411 622.064 291.719C622.311 291.226 622.657 290.88 623.003 290.78C623.349 290.681 623.795 290.78 624.335 291.08C624.535 291.179 624.781 291.126 624.881 290.933C624.981 290.786 624.934 290.534 624.734 290.387Z" fill="black"/>
<path d="M593.295 282.431L595.173 282.478C595.373 282.478 595.567 282.332 595.567 282.132C595.567 281.933 595.42 281.739 595.22 281.739L593.342 281.692C593.096 281.692 592.849 281.645 592.65 281.592C592.204 281.493 591.318 281.199 590.426 280.701C590.226 280.601 590.032 280.654 589.933 280.847C589.833 281.047 589.886 281.24 590.079 281.34C591.018 281.886 592.01 282.179 592.503 282.279C592.697 282.379 592.996 282.431 593.295 282.431Z" fill="#FC9D9D"/>
<path opacity="0.15" d="M597.991 319.89L598.19 314.158C599.822 315.643 604.37 317.567 609.165 316.036C609.165 316.036 609.212 315.989 609.165 316.036C612.129 315.05 614.059 313.22 615.198 311.636C615.298 311.489 615.544 311.436 615.691 311.536C615.838 311.636 615.89 311.882 615.791 312.029C614.359 313.959 611.835 316.276 607.78 317.121C602.985 320.882 597.991 319.89 597.991 319.89Z" fill="black"/>
<g opacity="0.45">
<path opacity="0.3" d="M602.739 309.465H602.785C604.217 309.465 604.963 309.465 604.963 309.465C605.209 309.465 605.456 309.266 605.456 308.972C605.456 308.726 605.256 308.479 604.963 308.479C604.963 308.479 604.223 308.479 602.785 308.479C602.539 308.479 602.292 308.679 602.292 308.972C602.339 309.219 602.539 309.412 602.739 309.465Z" fill="black"/>
</g>
<g opacity="0.45">
<path opacity="0.3" d="M601.846 307.436C605.849 307.735 607.48 305.459 608.026 304.321C608.126 304.074 608.026 303.828 607.827 303.728C607.58 303.628 607.334 303.728 607.234 303.928C606.688 305.013 604.91 307.436 600.015 306.204C599.769 306.157 599.522 306.304 599.469 306.55C599.417 306.796 599.569 307.043 599.816 307.096C600.508 307.289 601.201 307.389 601.846 307.436Z" fill="black"/>
</g>
<path d="M606.442 297.55C607.234 297.55 607.874 296.91 607.874 296.118C607.874 295.326 607.234 294.687 606.442 294.687C605.649 294.687 605.01 295.326 605.01 296.118C605.01 296.91 605.649 297.55 606.442 297.55Z" fill="#21252B"/>
<path d="M605.749 296.765C605.914 296.765 606.049 296.629 606.049 296.465C606.049 296.3 605.914 296.165 605.749 296.165C605.585 296.165 605.45 296.3 605.45 296.465C605.45 296.629 605.585 296.765 605.749 296.765Z" fill="white"/>
<path d="M594.974 298.442C595.766 298.442 596.406 297.802 596.406 297.01C596.406 296.218 595.766 295.579 594.974 295.579C594.182 295.579 593.542 296.218 593.542 297.01C593.542 297.802 594.182 298.442 594.974 298.442Z" fill="#21252B"/>
<path d="M594.282 297.609C594.447 297.609 594.582 297.474 594.582 297.309C594.582 297.145 594.447 297.01 594.282 297.01C594.118 297.01 593.982 297.145 593.982 297.309C593.982 297.474 594.118 297.609 594.282 297.609Z" fill="white"/>
<g opacity="0.45">
<path opacity="0.3" d="M600.508 303.98H602.486C602.732 303.98 602.932 303.78 602.932 303.534C602.932 303.287 602.732 303.088 602.486 303.088H600.508C600.015 303.088 599.616 302.695 599.616 302.196C599.616 301.703 600.009 301.305 600.508 301.305C600.755 301.305 600.954 301.105 600.954 300.859C600.954 300.612 600.755 300.413 600.508 300.413C599.569 300.413 598.777 301.205 598.777 302.143C598.783 303.188 599.522 303.98 600.508 303.98Z" fill="black"/>
</g>
<path d="M588.548 295.725L588.647 297.356C588.847 300.518 591.611 302.841 594.727 302.641C597.891 302.442 600.215 299.679 600.015 296.564L599.915 294.933C599.868 294.44 599.669 294.041 599.37 293.695L601.594 293.548C601.347 293.894 601.201 294.34 601.248 294.833L601.347 296.464C601.547 299.626 604.311 301.949 607.427 301.75C610.591 301.55 612.915 298.787 612.715 295.672L612.615 294.041C612.568 292.903 611.53 292.017 610.391 292.111L603.272 292.604H603.225L597.685 292.997L596.846 293.044L590.52 293.489C589.387 293.601 588.495 294.639 588.548 295.725ZM603.331 293.448H603.378L610.497 292.956C611.189 292.909 611.782 293.448 611.829 294.141L611.929 295.772C612.128 298.441 610.098 300.764 607.427 300.964C604.757 301.163 602.433 299.133 602.234 296.464L602.134 294.833C602.093 294.141 602.639 293.501 603.331 293.448ZM589.434 295.625C589.387 294.933 589.927 294.34 590.619 294.293L596.946 293.847L597.785 293.8C598.478 293.753 599.07 294.293 599.117 294.985L599.217 296.616C599.417 299.286 597.386 301.609 594.716 301.808C592.045 302.008 589.721 299.978 589.522 297.309L589.434 295.625Z" fill="#21252B"/>
<path d="M428 0H420V565H428V0Z" fill="white"/>
<path d="M543.57 274.617H308.127C307.693 274.617 307.341 274.265 307.341 273.831V126.847C307.341 126.413 307.693 126.061 308.127 126.061H543.57C544.004 126.061 544.356 126.413 544.356 126.847V273.825C544.356 274.265 544.004 274.617 543.57 274.617Z" fill="#4D61FC"/>
<path opacity="0.2" d="M543.57 274.617H308.127C307.693 274.617 307.341 274.265 307.341 273.831V126.847C307.341 126.413 307.693 126.061 308.127 126.061H543.57C544.004 126.061 544.356 126.413 544.356 126.847V273.825C544.356 274.265 544.004 274.617 543.57 274.617Z" fill="white"/>
<path d="M539.684 274.617H304.242C303.808 274.617 303.456 274.265 303.456 273.831V126.847C303.456 126.413 303.808 126.061 304.242 126.061H539.684C540.119 126.061 540.471 126.413 540.471 126.847V273.825C540.477 274.265 540.125 274.617 539.684 274.617Z" fill="#3F4249"/>
<path d="M535.77 130.807H308.156V269.871H535.77V130.807Z" fill="#4D61FC"/>
<path opacity="0.7" d="M535.77 130.807H368.364V269.871H535.77V130.807Z" fill="white"/>
<path opacity="0.5" d="M368.364 130.807H308.156V269.871H368.364V130.807Z" fill="white"/>
<path d="M291.865 360.993C293.25 360.993 294.371 359.872 294.371 358.487C294.371 357.103 293.25 355.982 291.865 355.982C290.48 355.982 289.359 357.103 289.359 358.487C289.359 359.872 290.48 360.993 291.865 360.993Z" fill="black"/>
<path d="M291.865 359.361C292.346 359.361 292.739 358.968 292.739 358.487C292.739 358.006 292.346 357.613 291.865 357.613C291.383 357.613 290.99 358.006 290.99 358.487C290.99 358.968 291.383 359.361 291.865 359.361Z" fill="white"/>
<path d="M291.865 356.874V257.539H303.456" stroke="black" stroke-width="3" stroke-miterlimit="10"/>
<path d="M506.814 341.685C508.199 341.685 509.32 340.564 509.32 339.18C509.32 337.795 508.199 336.675 506.814 336.675C505.429 336.675 504.308 337.795 504.308 339.18C504.308 340.564 505.429 341.685 506.814 341.685Z" fill="black"/>
<path d="M506.814 340.054C507.295 340.054 507.688 339.661 507.688 339.18C507.688 338.699 507.295 338.306 506.814 338.306C506.333 338.306 505.939 338.699 505.939 339.18C505.939 339.661 506.333 340.054 506.814 340.054Z" fill="white"/>
<path d="M506.813 337.56V274.616" stroke="black" stroke-width="3" stroke-miterlimit="10"/>
<path d="M453.531 145.58H380.947V148.22H453.531V145.58Z" fill="white"/>
<path d="M415.361 154.75H380.947V157.39H415.361V154.75Z" fill="white"/>
<path d="M425.678 163.924H391.264V166.564H425.678V163.924Z" fill="white"/>
<path d="M453.091 214.76H380.947V217.4H453.091V214.76Z" fill="#B074FF"/>
<path d="M417.967 223.958H380.947V226.598H417.967V223.958Z" fill="white"/>
<path d="M417.967 233.157H380.947V235.797H417.967V233.157Z" fill="white"/>
<path d="M442.469 244.685H405.449V247.325H442.469V244.685Z" fill="white"/>
<path d="M466.753 244.685H450.632V247.325H466.753V244.685Z" fill="white"/>
<path d="M445.133 256.219H429.012V258.859H445.133V256.219Z" fill="white"/>
<path d="M491.085 256.219H456.037V258.859H491.085V256.219Z" fill="white"/>
<path d="M519.913 256.219H495.669V258.859H519.913V256.219Z" fill="white"/>
<path d="M515.84 244.685H475.504V247.325H515.84V244.685Z" fill="white"/>
<path d="M462.868 223.958H425.848V226.598H462.868V223.958Z" fill="#00BEFF"/>
<path d="M513.885 214.76H463.109V217.4H513.885V214.76Z" fill="#FD8A88"/>
<path d="M460.386 154.75H425.972V157.39H460.386V154.75Z" fill="#FD8A88"/>
<path d="M437.973 173.956H403.559V176.596H437.973V173.956Z" fill="white"/>
<path d="M470.017 173.956H449.811V176.596H470.017V173.956Z" fill="#00BEFF"/>
<path d="M525.095 173.956H479.442V176.596H525.095V173.956Z" fill="white"/>
<path d="M424.334 184.493H403.559V187.133H424.334V184.493Z" fill="white"/>
<path d="M470.016 184.493H436.171V187.133H470.016V184.493Z" fill="white"/>
<path d="M525.095 184.493H474.729V187.133H525.095V184.493Z" fill="white"/>
<path d="M444.364 195.031H403.559V197.671H444.364V195.031Z" fill="white"/>
<path d="M476.408 195.031H449.811V197.671H476.408V195.031Z" fill="#FD8A88"/>
<path d="M527.841 195.031H482.188V197.671H527.841V195.031Z" fill="white"/>
<path d="M437.973 205.566H403.559V208.206H437.973V205.566Z" fill="white"/>
<path d="M470.017 205.566H449.811V208.206H470.017V205.566Z" fill="white"/>
<path d="M525.095 205.566H479.442V208.206H525.095V205.566Z" fill="white"/>
<path d="M520.605 154.75H469.119V157.39H520.605V154.75Z" fill="#00F3BE"/>
<g opacity="0.5">
<path opacity="0.5" d="M321.607 142.934H313.673V150.866H321.607V142.934Z" fill="white"/>
<path opacity="0.5" d="M362.178 145.58H328.356V148.22H362.178V145.58Z" fill="white"/>
<path opacity="0.5" d="M321.607 154.75H313.673V162.682H321.607V154.75Z" fill="white"/>
<path opacity="0.5" d="M362.178 157.396H328.356V160.036H362.178V157.396Z" fill="white"/>
<path opacity="0.5" d="M321.607 166.564H313.673V174.496H321.607V166.564Z" fill="white"/>
<path opacity="0.5" d="M362.178 169.21H328.356V171.85H362.178V169.21Z" fill="white"/>
<path opacity="0.5" d="M332.594 179.208H324.659V187.139H332.594V179.208Z" fill="white"/>
<path opacity="0.5" d="M362.184 181.847H339.349V184.487H362.184V181.847Z" fill="white"/>
<path opacity="0.5" d="M332.594 191.411H324.659V199.342H332.594V191.411Z" fill="white"/>
<path opacity="0.5" d="M362.184 194.057H339.349V196.697H362.184V194.057Z" fill="white"/>
<path opacity="0.5" d="M332.594 203.619H324.659V211.55H332.594V203.619Z" fill="white"/>
<path opacity="0.5" d="M362.184 206.259H339.349V208.899H362.184V206.259Z" fill="white"/>
<path opacity="0.5" d="M321.607 217.194H313.673V225.126H321.607V217.194Z" fill="white"/>
<path opacity="0.5" d="M362.178 219.84H328.356V222.48H362.178V219.84Z" fill="white"/>
<path opacity="0.5" d="M332.594 229.837H324.659V237.769H332.594V229.837Z" fill="white"/>
<path opacity="0.5" d="M362.184 232.483H339.349V235.123H362.184V232.483Z" fill="white"/>
<path opacity="0.5" d="M332.594 242.045H324.659V249.977H332.594V242.045Z" fill="white"/>
<path opacity="0.5" d="M362.184 244.685H339.349V247.325H362.184V244.685Z" fill="white"/>
<path opacity="0.5" d="M332.594 254.248H324.659V262.18H332.594V254.248Z" fill="white"/>
<path opacity="0.5" d="M362.184 256.894H339.349V259.534H362.184V256.894Z" fill="white"/>
</g>
<g opacity="0.7">
<path opacity="0.7" d="M374.403 145.58H371.762V148.22H374.403V145.58Z" fill="white"/>
<path opacity="0.7" d="M374.403 154.75H371.762V157.39H374.403V154.75Z" fill="white"/>
<path opacity="0.7" d="M374.403 163.924H371.762V166.564H374.403V163.924Z" fill="white"/>
<path opacity="0.7" d="M374.403 173.094H371.762V175.734H374.403V173.094Z" fill="white"/>
<path opacity="0.7" d="M374.403 182.269H371.762V184.909H374.403V182.269Z" fill="white"/>
<path opacity="0.7" d="M374.403 191.439H371.762V194.079H374.403V191.439Z" fill="white"/>
<path opacity="0.7" d="M374.403 200.61H371.762V203.25H374.403V200.61Z" fill="white"/>
<path opacity="0.7" d="M374.403 209.784H371.762V212.424H374.403V209.784Z" fill="white"/>
<path opacity="0.7" d="M374.403 218.954H371.762V221.594H374.403V218.954Z" fill="white"/>
<path opacity="0.7" d="M374.403 228.123H371.762V230.763H374.403V228.123Z" fill="white"/>
<path opacity="0.7" d="M374.403 237.299H371.762V239.939H374.403V237.299Z" fill="white"/>
<path opacity="0.7" d="M374.403 246.469H371.762V249.109H374.403V246.469Z" fill="white"/>
<path opacity="0.7" d="M374.403 255.644H371.762V258.284H374.403V255.644Z" fill="white"/>
</g>
<path d="M217.474 112C204.45 112 205.261 117.644 205.261 117.644L205.276 123.493H217.71V125.248H200.339C200.339 125.248 192 124.303 192 137.441C192 150.579 199.276 150.115 199.276 150.115H203.615V144.014C203.615 144.014 203.379 136.741 210.773 136.741H223.104C223.104 136.741 230.034 136.851 230.034 130.05V118.809C230.042 118.809 231.089 112 217.474 112ZM210.623 115.936C211.859 115.936 212.859 116.936 212.859 118.171C212.859 118.171 212.859 118.171 212.859 118.179C212.859 119.415 211.859 120.415 210.623 120.415C210.623 120.415 210.623 120.415 210.615 120.415C209.379 120.415 208.379 119.415 208.379 118.179C208.379 118.179 208.379 118.179 208.379 118.171C208.379 116.936 209.379 115.936 210.623 115.936C210.615 115.936 210.615 115.936 210.623 115.936Z" fill="url(#paint0_linear_8_5)"/>
<path d="M217.844 163.038C230.868 163.038 230.057 157.394 230.057 157.394L230.041 151.546H217.608V149.79H234.979C234.979 149.79 243.318 150.735 243.318 137.597C243.318 124.459 236.042 124.924 236.042 124.924H231.703V131.024C231.703 131.024 231.939 138.298 224.545 138.298H212.214C212.214 138.298 205.284 138.187 205.284 144.989V156.237C205.284 156.221 204.229 163.038 217.844 163.038ZM224.703 159.102C223.466 159.102 222.466 158.103 222.466 156.867C222.466 156.867 222.466 156.867 222.466 156.859C222.466 155.623 223.466 154.623 224.695 154.623C224.695 154.623 224.695 154.623 224.703 154.623C225.939 154.623 226.939 155.623 226.939 156.859C226.939 156.859 226.939 156.859 226.939 156.867C226.939 158.095 225.939 159.102 224.703 159.102Z" fill="url(#paint1_linear_8_5)"/>
<path d="M654.795 156.935C654.477 155.966 653.644 155.292 652.568 155.13C652.06 155.053 651.479 155.086 650.791 155.229C649.592 155.478 648.702 155.572 648.053 155.591C650.503 151.427 652.496 146.679 653.643 142.21C655.498 134.983 654.507 131.691 653.349 130.201C650.283 126.26 645.811 124.142 640.415 124.077C637.537 124.042 635.01 124.614 633.692 125.025C632.464 124.807 631.145 124.686 629.76 124.663C627.165 124.622 624.871 125.191 622.912 126.361C621.827 125.992 620.086 125.472 618.075 125.139C613.346 124.358 609.535 124.967 606.747 126.949C603.371 129.348 601.806 133.517 602.095 139.34C602.187 141.189 603.215 146.814 604.833 152.149C605.763 155.215 606.755 157.761 607.781 159.717C609.236 162.491 610.792 164.125 612.54 164.712C613.519 165.04 615.299 165.27 617.171 163.701C617.408 163.99 617.724 164.278 618.145 164.545C618.678 164.883 619.33 165.16 619.982 165.324C622.33 165.914 624.529 165.767 626.405 164.939C626.417 165.275 626.426 165.595 626.433 165.872C626.446 166.322 626.458 166.763 626.475 167.175C626.586 169.961 626.774 172.127 627.332 173.643C627.363 173.727 627.404 173.854 627.448 173.988C627.726 174.846 628.192 176.282 629.376 177.407C630.603 178.572 632.087 178.93 633.446 178.93C634.127 178.93 634.778 178.84 635.348 178.717C637.381 178.278 639.69 177.61 641.36 175.217C642.939 172.955 643.707 169.547 643.846 164.177C643.864 164.026 643.881 163.881 643.897 163.742C643.908 163.649 643.919 163.554 643.93 163.459L644.302 163.492L644.398 163.498C646.468 163.593 649 163.151 650.555 162.424C651.784 161.851 655.722 159.759 654.795 156.935Z" fill="black"/>
<path d="M651.254 157.484C645.097 158.762 644.674 156.664 644.674 156.664C651.175 146.957 653.892 134.636 651.547 131.62C645.149 123.394 634.074 127.285 633.889 127.386L633.829 127.396C632.613 127.142 631.252 126.991 629.722 126.966C626.936 126.92 624.822 127.701 623.219 128.924C623.219 128.924 603.462 120.734 604.381 139.225C604.576 143.159 609.984 168.99 616.434 161.188C618.791 158.335 621.069 155.923 621.069 155.923C622.2 156.679 623.555 157.065 624.975 156.926L625.085 156.832C625.051 157.186 625.066 157.533 625.129 157.943C623.467 159.811 623.956 160.139 620.634 160.827C617.273 161.524 619.248 162.765 620.537 163.089C622.099 163.483 625.715 164.04 628.158 160.598L628.061 160.991C628.712 161.516 629.169 164.404 629.092 167.023C629.016 169.641 628.964 171.439 629.477 172.843C629.99 174.247 630.502 177.407 634.868 176.465C638.517 175.678 640.408 173.639 640.671 170.238C640.857 167.82 641.28 168.178 641.307 166.016L641.645 164.992C642.036 161.715 641.707 160.657 643.955 161.149L644.502 161.197C646.156 161.273 648.321 160.93 649.592 160.335C652.329 159.057 653.952 156.923 651.254 157.484H651.254Z" fill="#336791"/>
<path d="M624.375 140.984C623.82 140.907 623.318 140.979 623.064 141.172C622.921 141.281 622.876 141.407 622.864 141.494C622.833 141.725 622.993 141.979 623.091 142.11C623.37 142.482 623.777 142.737 624.18 142.794C624.238 142.802 624.296 142.806 624.354 142.806C625.026 142.806 625.637 142.279 625.691 141.891C625.758 141.404 625.056 141.08 624.375 140.984Z" fill="white"/>
<path d="M642.756 141H642.756C642.703 140.618 642.028 140.51 641.388 140.599C640.749 140.689 640.129 140.979 640.181 141.361C640.222 141.659 640.756 142.166 641.387 142.166C641.441 142.166 641.494 142.163 641.549 142.155C641.97 142.096 642.279 141.827 642.426 141.672C642.65 141.435 642.78 141.171 642.756 141Z" fill="white"/>
<path d="M653.303 157.339C653.068 156.624 652.312 156.394 651.057 156.655C647.329 157.429 645.994 156.893 645.556 156.568C648.453 152.126 650.837 146.758 652.123 141.748C652.732 139.375 653.068 137.171 653.096 135.375C653.126 133.404 652.793 131.955 652.104 131.07C649.33 127.502 645.257 125.588 640.328 125.536C636.939 125.498 634.076 126.37 633.521 126.616C632.352 126.323 631.078 126.144 629.69 126.121C627.146 126.079 624.947 126.692 623.127 127.941C622.336 127.645 620.292 126.939 617.793 126.534C613.471 125.834 610.038 126.364 607.587 128.111C604.663 130.196 603.313 133.922 603.575 139.186C603.663 140.957 604.666 146.406 606.248 151.624C608.331 158.491 610.596 162.379 612.978 163.178C613.257 163.272 613.579 163.338 613.933 163.338C614.803 163.338 615.868 162.943 616.977 161.602C618.818 159.373 620.538 157.504 621.171 156.826C622.108 157.332 623.137 157.614 624.189 157.642C624.191 157.67 624.194 157.698 624.196 157.725C623.985 157.977 623.812 158.198 623.665 158.387C622.935 159.318 622.784 159.512 620.436 159.999C619.769 160.137 617.995 160.505 617.97 161.756C617.941 163.122 620.066 163.696 620.308 163.757C621.151 163.97 621.964 164.074 622.739 164.074C624.623 164.074 626.282 163.451 627.607 162.245C627.566 167.117 627.768 171.918 628.35 173.381C628.826 174.578 629.989 177.505 633.663 177.504C634.202 177.504 634.795 177.441 635.448 177.301C639.283 176.473 640.948 174.768 641.592 171.008C641.936 168.999 642.528 164.201 642.806 161.627C643.393 161.811 644.149 161.896 644.966 161.896C646.671 161.896 648.637 161.531 649.871 160.955C651.256 160.308 653.756 158.719 653.303 157.339ZM644.171 139.947C644.159 140.707 644.055 141.396 643.945 142.116C643.826 142.891 643.703 143.691 643.673 144.663C643.642 145.609 643.759 146.593 643.873 147.543C644.102 149.464 644.338 151.442 643.427 153.393C643.285 153.14 643.148 152.864 643.023 152.558C642.91 152.282 642.664 151.838 642.323 151.224C640.998 148.833 637.896 143.234 639.484 140.95C639.957 140.269 641.158 139.57 644.171 139.947ZM640.519 127.075C644.935 127.173 648.429 128.835 650.903 132.016C652.8 134.456 650.711 145.557 644.663 155.135C644.603 155.058 644.542 154.981 644.479 154.902C644.454 154.87 644.429 154.838 644.403 154.806C645.966 152.208 645.66 149.639 645.388 147.36C645.276 146.425 645.171 145.542 645.198 144.713C645.225 143.833 645.341 143.079 645.453 142.35C645.59 141.452 645.73 140.522 645.691 139.426C645.72 139.311 645.731 139.175 645.716 139.014C645.618 137.963 644.426 134.817 641.995 131.97C640.666 130.413 638.727 128.67 636.079 127.494C637.218 127.257 638.775 127.036 640.519 127.075ZM615.804 160.62C614.582 162.098 613.738 161.815 613.461 161.722C611.654 161.115 609.556 157.271 607.707 151.175C606.108 145.901 605.173 140.597 605.099 139.11C604.865 134.406 605.998 131.128 608.467 129.366C612.484 126.499 619.089 128.215 621.742 129.085C621.704 129.123 621.665 129.159 621.627 129.197C617.272 133.623 617.375 141.185 617.386 141.647C617.385 141.825 617.4 142.078 617.421 142.425C617.496 143.697 617.635 146.064 617.263 148.745C616.916 151.236 617.679 153.674 619.356 155.434C619.529 155.616 619.71 155.787 619.898 155.948C619.151 156.753 617.53 158.531 615.804 160.62ZM620.457 154.372C619.106 152.953 618.493 150.98 618.774 148.957C619.167 146.126 619.022 143.659 618.944 142.334C618.933 142.149 618.923 141.986 618.917 141.858C619.554 141.291 622.502 139.701 624.604 140.186C625.564 140.407 626.149 141.064 626.392 142.195C627.65 148.05 626.558 150.49 625.681 152.451C625.5 152.855 625.33 153.237 625.184 153.632L625.071 153.937C624.785 154.71 624.518 155.427 624.353 156.109C622.917 156.105 621.52 155.487 620.457 154.372ZM620.678 162.268C620.258 162.162 619.881 161.979 619.66 161.827C619.845 161.74 620.174 161.621 620.744 161.502C623.506 160.93 623.932 160.527 624.863 159.337C625.077 159.064 625.319 158.755 625.654 158.378C625.654 158.378 625.654 158.378 625.654 158.378C626.153 157.815 626.382 157.911 626.796 158.083C627.131 158.223 627.458 158.646 627.591 159.112C627.653 159.332 627.724 159.75 627.493 160.075C625.548 162.816 622.714 162.78 620.678 162.268ZM635.128 175.799C631.75 176.528 630.554 174.793 629.766 172.811C629.258 171.531 629.008 165.758 629.185 159.384C629.187 159.299 629.175 159.217 629.152 159.14C629.132 158.992 629.101 158.841 629.058 158.69C628.794 157.762 628.151 156.987 627.38 156.665C627.074 156.537 626.511 156.303 625.835 156.477C625.98 155.879 626.229 155.205 626.5 154.474L626.614 154.167C626.742 153.82 626.903 153.461 627.072 153.081C627.99 151.029 629.247 148.219 627.883 141.871C627.372 139.493 625.666 138.332 623.079 138.601C621.528 138.763 620.109 139.392 619.402 139.753C619.25 139.831 619.111 139.906 618.981 139.979C619.178 137.583 619.924 133.106 622.716 130.273C624.473 128.489 626.813 127.609 629.665 127.656C635.284 127.749 638.887 130.65 640.921 133.068C642.673 135.152 643.622 137.251 644 138.383C641.153 138.091 639.216 138.657 638.234 140.07C636.098 143.142 639.403 149.105 640.991 151.971C641.282 152.497 641.533 152.951 641.612 153.143C642.13 154.405 642.799 155.247 643.288 155.861C643.438 156.05 643.583 156.232 643.694 156.392C642.831 156.642 641.282 157.22 641.423 160.11C641.309 161.56 640.5 168.349 640.088 170.747C639.545 173.916 638.387 175.096 635.128 175.799ZM649.228 159.563C648.346 159.975 646.87 160.284 645.468 160.35C643.919 160.423 643.131 160.175 642.946 160.023C642.859 158.222 643.525 158.034 644.23 157.835C644.341 157.804 644.449 157.773 644.553 157.736C644.618 157.789 644.689 157.842 644.766 157.894C646.011 158.721 648.231 158.81 651.365 158.159C651.377 158.156 651.388 158.154 651.4 158.152C650.977 158.549 650.254 159.083 649.228 159.563Z" fill="white"/>
<path d="M272.396 81.375C270.776 81.375 269.458 82.6927 269.458 84.3125V96.0625C269.458 97.6823 270.776 99 272.396 99C274.015 99 275.333 97.6823 275.333 96.0625V84.3125C275.333 82.6927 274.015 81.375 272.396 81.375Z" fill="#82C341"/>
<path opacity="0.1" d="M272.396 98.5105C270.776 98.5105 269.458 97.1928 269.458 95.573V96.0626C269.458 97.6824 270.776 99.0001 272.396 99.0001C274.015 99.0001 275.333 97.6824 275.333 96.0626V95.573C275.333 97.1928 274.015 98.5105 272.396 98.5105Z" fill="black"/>
<path d="M262.604 81.375C260.984 81.375 259.667 82.6927 259.667 84.3125V96.0625C259.667 97.6823 260.984 99 262.604 99C264.224 99 265.542 97.6823 265.542 96.0625V84.3125C265.542 82.6927 264.224 81.375 262.604 81.375Z" fill="#82C341"/>
<path opacity="0.1" d="M262.604 98.5105C260.984 98.5105 259.667 97.1928 259.667 95.573V96.0626C259.667 97.6824 260.984 99.0001 262.604 99.0001C264.224 99.0001 265.542 97.6824 265.542 96.0626V95.573C265.542 97.1928 264.224 98.5105 262.604 98.5105Z" fill="black"/>
<path d="M279.25 67.6667H255.75V85.2917C255.75 87.4549 257.504 89.2084 259.667 89.2084H275.333C277.496 89.2084 279.25 87.4549 279.25 85.2917V67.6667Z" fill="#82C341"/>
<path d="M284.146 67.6667C282.526 67.6667 281.208 68.9844 281.208 70.6042V82.3542C281.208 83.9741 282.526 85.2917 284.146 85.2917C285.765 85.2917 287.083 83.9741 287.083 82.3542V70.6042C287.083 68.9844 285.765 67.6667 284.146 67.6667Z" fill="#82C341"/>
<path d="M261.872 57.5039C261.545 57.5039 261.225 57.3404 261.039 57.0421L258.834 53.4964C258.549 53.0375 258.69 52.4331 259.149 52.1472C259.61 51.8632 260.212 52.0019 260.498 52.4618L262.703 56.0075C262.988 56.4665 262.848 57.0708 262.389 57.3567C262.227 57.4561 262.049 57.5039 261.872 57.5039Z" fill="#82C341"/>
<path d="M273.127 57.5039C272.95 57.5039 272.773 57.4561 272.611 57.3567C272.152 57.0708 272.011 56.4665 272.296 56.0075L274.501 52.4618C274.787 52.0019 275.39 51.8632 275.851 52.1472C276.31 52.4331 276.45 53.0375 276.165 53.4964L273.96 57.0421C273.775 57.3404 273.454 57.5039 273.127 57.5039Z" fill="#82C341"/>
<path d="M267.5 53.9583C261.011 53.9583 255.75 59.2189 255.75 65.7083H279.25C279.25 59.2189 273.989 53.9583 267.5 53.9583Z" fill="#82C341"/>
<path opacity="0.2" d="M279.25 67.6667H255.75V68.1563H279.25V67.6667Z" fill="white"/>
<path opacity="0.1" d="M275.333 88.7187H259.667C257.504 88.7187 255.75 86.9651 255.75 84.802V85.2916C255.75 87.4547 257.504 89.2083 259.667 89.2083H275.333C277.496 89.2083 279.25 87.4547 279.25 85.2916V84.802C279.25 86.9651 277.496 88.7187 275.333 88.7187Z" fill="black"/>
<path opacity="0.2" d="M284.146 67.6667C282.526 67.6667 281.208 68.9844 281.208 70.6042V71.0938C281.208 69.474 282.526 68.1563 284.146 68.1563C285.765 68.1563 287.083 69.474 287.083 71.0938V70.6042C287.083 68.9844 285.765 67.6667 284.146 67.6667Z" fill="white"/>
<path opacity="0.1" d="M284.146 84.802C282.526 84.802 281.208 83.4843 281.208 81.8645V82.3541C281.208 83.9739 282.526 85.2916 284.146 85.2916C285.765 85.2916 287.083 83.9739 287.083 82.3541V81.8645C287.083 83.4843 285.765 84.802 284.146 84.802Z" fill="black"/>
<path opacity="0.2" d="M267.5 54.4478C272.423 54.4478 276.636 57.3073 278.468 61.4856C276.788 57.0502 272.524 53.9583 267.5 53.9583C262.476 53.9583 258.208 57.0583 256.528 61.4938C258.361 57.3154 262.577 54.4478 267.5 54.4478Z" fill="white"/>
<path d="M262.604 61.7916C263.145 61.7916 263.583 61.3532 263.583 60.8124C263.583 60.2716 263.145 59.8333 262.604 59.8333C262.063 59.8333 261.625 60.2716 261.625 60.8124C261.625 61.3532 262.063 61.7916 262.604 61.7916Z" fill="white"/>
<path d="M272.396 61.7916C272.936 61.7916 273.375 61.3532 273.375 60.8124C273.375 60.2716 272.936 59.8333 272.396 59.8333C271.855 59.8333 271.417 60.2716 271.417 60.8124C271.417 61.3532 271.855 61.7916 272.396 61.7916Z" fill="white"/>
<path opacity="0.1" d="M255.775 65.2188C255.768 65.3824 255.75 65.543 255.75 65.7083H279.25C279.25 65.543 279.232 65.3824 279.225 65.2188H255.775Z" fill="black"/>
<path d="M250.854 67.6667C249.234 67.6667 247.917 68.9844 247.917 70.6042V82.3542C247.917 83.9741 249.234 85.2917 250.854 85.2917C252.474 85.2917 253.792 83.9741 253.792 82.3542V70.6042C253.792 68.9844 252.474 67.6667 250.854 67.6667Z" fill="#82C341"/>
<path opacity="0.2" d="M250.854 67.6667C249.234 67.6667 247.917 68.9844 247.917 70.6042V71.0938C247.917 69.474 249.234 68.1563 250.854 68.1563C252.474 68.1563 253.792 69.474 253.792 71.0938V70.6042C253.792 68.9844 252.474 67.6667 250.854 67.6667Z" fill="white"/>
<path opacity="0.1" d="M250.854 84.802C249.234 84.802 247.917 83.4843 247.917 81.8645V82.3541C247.917 83.9739 249.234 85.2916 250.854 85.2916C252.474 85.2916 253.792 83.9739 253.792 82.3541V81.8645C253.792 83.4843 252.474 84.802 250.854 84.802Z" fill="black"/>
<path d="M255.75 85.2916C255.75 87.4547 257.503 89.2083 259.667 89.2083V96.0625C259.667 97.6823 260.984 99 262.604 99C264.224 99 265.542 97.6823 265.542 96.0625V89.2083H269.458V96.0625C269.458 97.6823 270.776 99 272.396 99C274.016 99 275.333 97.6823 275.333 96.0625V89.2083C277.496 89.2083 279.25 87.4547 279.25 85.2916V67.6666H255.75V85.2916ZM284.146 67.6666C282.526 67.6666 281.208 68.9843 281.208 70.6041V82.3541C281.208 83.974 282.526 85.2916 284.146 85.2916C285.766 85.2916 287.083 83.974 287.083 82.3541V70.6041C287.083 68.9843 285.766 67.6666 284.146 67.6666ZM274.452 56.2511L276.165 53.4964C276.45 53.0375 276.309 52.4331 275.85 52.1472C275.39 51.8632 274.787 52.0019 274.501 52.4618L272.784 55.2237C271.194 54.4209 269.403 53.9583 267.5 53.9583C265.597 53.9583 263.806 54.4209 262.216 55.2237L260.498 52.4618C260.213 52.0019 259.61 51.8632 259.149 52.1472C258.69 52.4331 258.55 53.0375 258.835 53.4964L260.548 56.2511C257.643 58.3904 255.75 61.824 255.75 65.7083H279.25C279.25 61.824 277.357 58.3904 274.452 56.2511ZM250.854 67.6666C249.234 67.6666 247.917 68.9843 247.917 70.6041V82.3541C247.917 83.974 249.234 85.2916 250.854 85.2916C252.474 85.2916 253.792 83.974 253.792 82.3541V70.6041C253.792 68.9843 252.474 67.6666 250.854 67.6666Z" fill="url(#paint2_linear_8_5)"/>
<path d="M486.404 55.0002L463 78.3765L470.244 85.6119L500.892 55.0002H486.404Z" fill="#47C5FB"/>
<path d="M486.241 76.5571L473.71 89.0734L480.981 96.4445L488.211 89.2225L500.892 76.5571H486.241Z" fill="#47C5FB"/>
<path d="M480.981 96.4447L486.485 101.943H500.891L488.211 89.2227L480.981 96.4447Z" fill="#00569E"/>
<path d="M473.628 89.1547L480.872 81.9192L488.211 89.2225L480.981 96.4445L473.628 89.1547Z" fill="#00B5F8"/>
<path d="M480.981 96.4447L487.002 94.4491L487.6 89.8335L480.981 96.4447Z" fill="url(#paint3_linear_8_5)" fill-opacity="0.8"/>
<g clip-path="url(#clip0_8_5)">
<path d="M590.762 79.589C589.434 79.9281 588.337 80.1097 587.216 80.5093C586.326 80.7394 585.424 80.9816 584.388 81.248L584.315 81.2601C583.803 81.4054 583.754 81.4176 583.279 80.8726C582.706 80.2308 582.292 79.8191 581.5 79.4316C579.099 78.2691 576.783 78.6082 574.626 80.0008C572.042 81.6597 570.714 84.1179 570.75 87.1695C570.787 90.1968 572.871 92.6793 575.772 93.091C578.453 93.43 580.622 92.534 582.328 90.6086C582.584 90.2937 582.816 89.9668 583.072 89.6035C583.169 89.4824 583.255 89.3492 583.352 89.2039H576.028C575.235 89.2039 575.04 88.7195 575.308 88.0777C575.796 86.9031 576.71 84.9414 577.246 83.9605C577.356 83.7426 577.624 83.2582 578.087 83.2582H590.409C590.957 81.6355 591.847 80.0008 593.041 78.4508C595.808 74.8301 599.05 72.941 603.669 72.1539C607.544 71.4758 611.188 71.8511 614.503 74.0793C617.502 76.1136 619.354 78.8746 619.854 82.4953C620.5 87.5933 619.013 91.7347 615.381 95.2828C612.98 97.8136 609.909 99.4 606.374 100.114C605.692 100.236 605.022 100.296 604.363 100.357C604.01 100.381 603.669 100.417 603.327 100.453C599.878 100.381 596.722 99.4 594.065 97.1355C592.2 95.525 590.908 93.5511 590.275 91.2625C589.824 92.1465 589.3 93.0062 588.568 93.8176C585.936 97.4019 582.365 99.6301 577.856 100.223C574.126 100.72 570.677 100.005 567.63 97.741C564.827 95.6219 563.231 92.8367 562.816 89.3613C562.317 85.2441 563.535 81.4418 566.034 78.3054C568.739 74.7937 572.31 72.5656 576.673 71.7785C580.244 71.0277 583.657 71.5484 586.74 73.6312C588.751 74.9511 590.189 76.7554 591.14 78.9472C591.372 79.2863 591.213 79.4801 590.762 79.589ZM547.887 80.2672C547.734 80.2672 547.696 80.1945 547.772 80.0734L548.57 79.0562C548.646 78.9472 548.836 78.8746 548.988 78.8746H562.548C562.694 78.8746 562.731 78.9836 562.658 79.0926L562.012 80.0734C561.939 80.1945 561.744 80.3035 561.634 80.3035L547.887 80.2672ZM542.152 83.7426C542 83.7426 541.962 83.6578 542.038 83.5488L542.835 82.5316C542.912 82.4226 543.101 82.3379 543.253 82.3379H560.574C560.72 82.3379 560.793 82.459 560.757 82.5679L560.452 83.4761C560.415 83.6215 560.269 83.7062 560.111 83.7062L542.152 83.7426ZM551.228 86.9879C551.153 87.0968 551.191 87.2058 551.342 87.2058L559.623 87.2422C559.733 87.2422 559.891 87.1332 559.891 86.9879L559.964 86.0797C559.964 85.9222 559.891 85.8133 559.733 85.8133H552.14C551.988 85.8133 551.837 85.9222 551.76 86.0433L551.228 86.9879ZM612.346 84.8082C612.322 84.4933 612.31 84.2269 612.261 83.9605C611.578 80.2308 608.117 78.1117 604.51 78.9472C600.975 79.7343 598.696 81.9625 597.867 85.5105C597.185 88.4531 598.623 91.432 601.353 92.6429C603.449 93.5511 605.533 93.4422 607.544 92.4129C610.542 90.766 612.176 88.4531 612.371 85.2078C612.358 85.0625 612.358 84.9293 612.346 84.8082Z" fill="#00AED8"/>
</g>
<path d="M605.932 208.57C605.403 208.39 604.855 208.219 604.29 208.058C604.383 207.683 604.468 207.313 604.544 206.949C605.787 200.972 604.974 196.157 602.2 194.572C599.539 193.052 595.188 194.637 590.794 198.426C590.371 198.79 589.947 199.176 589.524 199.58C589.241 199.313 588.96 199.054 588.679 198.807C584.073 194.756 579.457 193.048 576.685 194.638C574.027 196.163 573.24 200.689 574.358 206.353C574.466 206.9 574.593 207.459 574.735 208.027C574.082 208.21 573.451 208.406 572.848 208.615C567.448 210.48 564 213.403 564 216.434C564 219.566 567.702 222.707 573.326 224.611C573.77 224.761 574.23 224.903 574.705 225.038C574.551 225.653 574.417 226.255 574.304 226.842C573.238 232.407 574.071 236.827 576.721 238.342C579.46 239.906 584.055 238.298 588.53 234.423C588.884 234.117 589.238 233.792 589.594 233.451C590.055 233.891 590.515 234.307 590.973 234.697C595.307 238.393 599.588 239.885 602.237 238.366C604.972 236.797 605.861 232.049 604.707 226.273C604.619 225.832 604.516 225.382 604.401 224.923C604.724 224.828 605.04 224.731 605.349 224.629C611.196 222.71 615 219.608 615 216.434C615 213.392 611.44 210.449 605.932 208.57ZM604.664 222.58C604.385 222.672 604.099 222.76 603.808 222.846C603.162 220.822 602.291 218.669 601.225 216.445C602.242 214.274 603.08 212.149 603.707 210.138C604.229 210.287 604.735 210.445 605.223 210.611C609.943 212.221 612.821 214.601 612.821 216.434C612.821 218.388 609.712 220.923 604.664 222.58ZM602.569 226.693C603.08 229.247 603.153 231.556 602.815 233.361C602.511 234.983 601.9 236.065 601.145 236.498C599.538 237.419 596.1 236.221 592.394 233.061C591.969 232.699 591.541 232.312 591.111 231.903C592.548 230.346 593.985 228.535 595.386 226.525C597.852 226.308 600.181 225.954 602.293 225.47C602.397 225.886 602.49 226.294 602.569 226.693ZM581.387 236.338C579.817 236.888 578.566 236.904 577.81 236.472C576.201 235.552 575.533 232.004 576.445 227.244C576.549 226.699 576.674 226.139 576.817 225.567C578.906 226.025 581.218 226.354 583.69 226.552C585.101 228.52 586.579 230.328 588.068 231.911C587.743 232.222 587.418 232.518 587.096 232.798C585.117 234.511 583.135 235.727 581.387 236.338ZM574.03 222.568C571.544 221.726 569.49 220.632 568.082 219.438C566.817 218.365 566.179 217.299 566.179 216.434C566.179 214.595 568.947 212.248 573.565 210.653C574.125 210.459 574.712 210.277 575.32 210.106C575.959 212.162 576.796 214.313 577.806 216.487C576.783 218.694 575.934 220.878 575.289 222.959C574.855 222.835 574.435 222.705 574.03 222.568ZM576.496 205.938C575.538 201.086 576.175 197.425 577.776 196.506C579.483 195.528 583.255 196.923 587.232 200.421C587.486 200.645 587.741 200.879 587.997 201.121C586.515 202.697 585.051 204.492 583.653 206.447C581.254 206.667 578.958 207.021 576.847 207.495C576.714 206.966 576.597 206.446 576.496 205.938ZM598.496 211.32C597.991 210.457 597.473 209.613 596.945 208.793C598.572 208.997 600.131 209.268 601.595 209.599C601.155 210.994 600.608 212.453 599.963 213.949C599.5 213.079 599.011 212.202 598.496 211.32ZM589.524 202.663C590.529 203.742 591.536 204.946 592.525 206.253C591.528 206.206 590.518 206.182 589.5 206.182C588.491 206.182 587.489 206.205 586.498 206.251C587.489 204.957 588.504 203.754 589.524 202.663ZM580.496 211.335C579.992 212.201 579.511 213.074 579.056 213.948C578.422 212.457 577.879 210.991 577.435 209.576C578.891 209.253 580.442 208.989 582.059 208.789C581.523 209.617 581.001 210.466 580.496 211.335V211.335ZM582.106 224.233C580.435 224.049 578.86 223.799 577.405 223.485C577.856 222.044 578.411 220.547 579.058 219.024C579.515 219.898 579.997 220.771 580.504 221.639H580.504C581.021 222.523 581.556 223.389 582.106 224.233ZM589.585 230.358C588.552 229.254 587.522 228.033 586.516 226.72C587.493 226.758 588.488 226.777 589.5 226.777C590.54 226.777 591.567 226.754 592.579 226.709C591.585 228.046 590.583 229.269 589.585 230.358ZM599.983 218.947C600.665 220.486 601.24 221.975 601.696 223.391C600.217 223.726 598.621 223.995 596.939 224.195C597.468 223.364 597.991 222.506 598.504 221.624C599.024 220.731 599.517 219.837 599.983 218.947ZM596.617 220.545C595.82 221.915 595.001 223.222 594.17 224.456C592.657 224.563 591.094 224.619 589.5 224.619C587.913 224.619 586.369 224.57 584.883 224.474C584.018 223.224 583.182 221.913 582.39 220.557H582.39C581.6 219.205 580.873 217.842 580.214 216.486C580.873 215.127 581.598 213.763 582.383 212.413L582.383 212.413C583.171 211.06 584 209.755 584.856 208.513C586.373 208.399 587.928 208.34 589.5 208.34H589.5C591.079 208.34 592.636 208.4 594.153 208.515C594.996 209.748 595.819 211.048 596.61 212.402C597.41 213.77 598.144 215.126 598.808 216.456C598.146 217.808 597.413 219.178 596.617 220.545ZM601.111 196.442C602.819 197.418 603.483 201.353 602.41 206.513C602.342 206.842 602.265 207.178 602.181 207.517C600.065 207.034 597.768 206.674 595.362 206.45C593.961 204.473 592.509 202.676 591.051 201.12C591.443 200.746 591.834 200.39 592.224 200.054C595.989 196.808 599.508 195.526 601.111 196.442ZM589.5 211.923C592.015 211.923 594.054 213.943 594.054 216.434C594.054 218.926 592.015 220.946 589.5 220.946C586.985 220.946 584.946 218.926 584.946 216.434C584.946 213.943 586.985 211.923 589.5 211.923Z" fill="#00D8FF"/>
<g clip-path="url(#clip1_8_5)">
<path d="M343.782 57.6049C343.782 58.1582 343.441 58.5675 342.854 58.5675C342.366 58.5675 342 58.1582 342 57.6049C342 57.075 342.391 56.6418 342.903 56.6418C343.441 56.6418 343.782 57.075 343.782 57.6049ZM342.431 86.5386V64.406H343.351V86.5386H342.431Z" fill="black"/>
<path d="M373.955 70.7691C373.955 81.9276 367.673 87.0001 360.796 87.0001C353.771 87.0001 348.082 81.5135 348.082 71.2306C348.082 60.6724 353.969 55.0005 361.29 55.0005C368.463 54.9997 373.955 60.5789 373.955 70.7691ZM349.014 70.9997C349.014 79.4604 353.173 86.033 360.839 86.033C368.559 86.033 372.986 79.2581 372.986 70.9034C372.986 63.1558 369.438 56.0853 361.343 56.0853C353.248 56.0853 349.014 62.7424 349.014 70.9997Z" fill="black"/>
<path d="M377.332 84.1405C378.875 85.1549 381.54 86.1345 383.831 86.1345C388.18 86.1345 392.048 83.1346 392.048 78.719C392.048 74.6213 389.471 72.4833 385.097 70.6466C381.182 69.0028 377.662 67.2187 377.662 62.8383C377.662 58.2739 381.309 55.0454 386.266 55.0454C388.932 55.0454 390.942 55.7832 391.878 56.4287L391.506 57.2247C390.711 56.6718 388.562 55.9672 386.225 55.9672C380.986 55.9672 378.704 59.8703 378.704 62.7437C378.704 66.7123 381.824 68.0394 385.846 69.9299C390.522 72.1888 393 74.1809 393 78.5156C393 83.1726 389.633 86.9528 383.648 86.9528C381.169 86.9528 378.316 86.1232 376.914 85.0623L377.332 84.1405Z" fill="black"/>
</g>
<path d="M226.996 239.104C235.604 237.615 242.713 236.382 242.795 236.365L242.944 236.335L234.817 226.869C230.347 221.663 226.69 217.383 226.69 217.358C226.69 217.312 235.082 194.683 235.129 194.603C235.145 194.576 240.855 204.23 248.972 218.006C256.571 230.903 262.836 241.537 262.894 241.636L263 241.817L237.173 241.814L211.345 241.811L226.996 239.104V239.104ZM196 236.217C196 236.204 199.829 229.694 204.51 221.752L213.019 207.311L222.936 199.162C228.39 194.68 232.867 191.007 232.885 191C232.903 190.994 232.832 191.17 232.726 191.393C232.62 191.616 227.775 201.794 221.958 214.01L211.381 236.222L203.691 236.232C199.461 236.237 196 236.23 196 236.217V236.217Z" fill="#0089D6"/>
<path d="M176.82 352.609C98.7126 379.337 109.623 487.53 119.388 538.036C122.328 553.237 135.598 564.243 151.091 564.243H367.002C382.379 564.243 395.677 553.419 398.647 538.336C401.118 525.775 402.573 508.662 400.208 487.026C394.603 435.686 353.939 427.755 353.939 427.755C353.939 427.755 302.405 419.354 281.865 392.748C261.324 366.143 228.647 334.874 176.82 352.609Z" fill="#B1B5BA"/>
<path d="M280.133 406.13L273.472 398.691C272.598 397.747 272.069 397.477 270.837 397.195L258.724 396.855L239.058 393.188L231.059 401.678L248.195 404.775L249.786 405.59C252.433 407.016 255.561 407.31 258.413 406.301L258.483 406.307L260.901 405.462C261.488 405.251 262.181 405.327 262.709 405.603L268.319 408.706C268.583 408.876 268.936 408.846 269.235 408.67C269.757 408.377 269.857 407.55 269.411 407.146L265.42 403.385L271.395 408.846C271.647 409.087 272.058 409.204 272.416 409.105C273.143 408.905 273.454 408.031 272.961 407.409L268.842 402.299L274.258 408.964C274.575 409.281 274.974 409.469 275.415 409.31C276.207 409.123 276.53 408.172 276.107 407.562L272.152 401.63L278.56 407.562C279 408.031 279.775 407.984 280.18 407.538C280.479 407.362 280.567 406.599 280.133 406.13Z" fill="#F69797"/>
<path opacity="0.15" d="M237.567 400.597L248.993 403.249C249.886 403.419 250.748 403.871 251.453 404.446C252.48 405.267 254.451 406.476 257.163 406.716C257.163 406.716 253.014 407.995 248.178 404.839L235.026 402.551L237.567 400.597Z" fill="black"/>
<path d="M318.444 563.105L345.452 563.932C345.922 563.134 347.248 560.74 345.716 560.171L327.511 552.263C324.295 551.054 320.598 549.623 319.859 547.394C319.507 546.866 320.129 545.792 319.923 545.194L318.133 518.013L304.6 521.029L302.904 545.018C303.197 547.4 302.939 551.43 302.945 553.718L302.904 557.408C302.968 560.218 305.11 562.495 307.839 562.653H307.916L318.444 563.105Z" fill="#F69797"/>
<path opacity="0.15" d="M327.875 560.647L318.286 560.207H318.21C315.481 560.048 313.333 557.766 313.274 554.962L313.315 551.272C313.309 548.984 312.634 544.953 312.341 542.571L314.013 518.94L304.606 521.035L302.91 545.024C303.203 547.405 302.945 551.436 302.951 553.724L302.91 557.414C302.974 560.224 305.116 562.5 307.845 562.659H307.922L318.444 563.099L345.452 563.926C345.763 563.392 346.456 562.148 346.426 561.21L327.875 560.647Z" fill="black"/>
<path d="M304.606 457.705H246.106C234.175 457.705 224.515 448.119 224.298 436.268L224.081 422.663H319.659C328.756 422.663 335.798 430.63 334.671 439.653L319.671 546.467L302.939 544.355L302.317 525.482C299.541 488.951 300.515 480.274 304.606 457.705Z" fill="#3F4D79"/>
<path opacity="0.2" d="M318.691 443.138C319.219 432.032 310.357 422.739 299.23 422.728C269.933 422.704 236.399 422.663 236.399 422.663H224.075L224.292 436.268C224.509 448.119 234.169 457.705 246.1 457.705H304.6C300.509 480.274 299.535 488.951 302.311 525.488L302.933 544.361L312.546 545.576L318.691 443.138Z" fill="black"/>
<path d="M349.062 564.325H375.847C376.287 563.521 377.531 561.104 375.993 560.594L357.771 552.768C354.549 551.671 352.354 550.937 350.453 548.526C350.089 548.016 349.719 547.429 349.502 546.842L335.305 514.652L317.816 523.064L332.67 548.813C333.985 550.714 334.278 553.202 334.355 555.472L334.425 559.127C334.572 561.908 336.767 564.102 339.472 564.172H339.543L349.062 564.325Z" fill="#F69797"/>
<path opacity="0.15" d="M376.357 563.151C376.14 563.662 375.917 564.102 375.77 564.395H348.986L339.396 564.249H339.326C336.544 564.178 334.349 561.908 334.278 559.203L334.208 555.548C334.138 553.278 333.768 550.72 332.524 548.89L327.183 539.674L327.477 537.116L335.599 542.971L340.722 555.407C340.722 555.407 345.623 562.066 360.259 562.647C374.896 563.157 374.896 563.157 374.896 563.157H376.357V563.151Z" fill="black"/>
<path d="M345.916 538.647L330.329 545.083L320.452 529.061C296.519 493.579 291.783 487.408 282.269 457.781H211.786C199.855 457.781 190.195 448.195 189.978 436.344L195.089 422.663L285.779 422.733C292.804 422.733 299.172 426.975 301.877 433.487L345.916 538.647Z" fill="#3F4D79"/>
<path opacity="0.2" d="M320.451 514.652C301.572 482.174 301.877 478.777 293.391 451.784C291.049 444.322 285.708 442.715 281.9 442.715L248.524 442.932C237.256 442.639 217.713 443.812 208.423 437.517L192.178 422.668H195.095L190.13 436.273C190.347 448.2 200.007 457.71 211.938 457.71H282.416C292.663 488.287 296.742 493.732 320.598 528.99L330.475 545.012L335.745 542.818C335.669 542.889 323.814 520.501 320.451 514.652Z" fill="black"/>
<path d="M231.992 334.704C232.579 335.525 233.665 336.006 234.909 336.259C240.032 337.303 243.935 338.036 246.183 333.296C249.622 325.798 254.446 308.151 251.999 296.113C247.004 296.682 245.983 297.415 245.983 297.415C245.983 297.415 240.502 293.174 240.396 293.062C240.425 292.992 225.613 325.945 231.992 334.704Z" fill="#263238"/>
<path d="M218.67 323.985L230.771 281.645C228.805 280.531 224.439 282.009 223.042 282.742C204.831 293.05 194.514 326.907 190.946 339.655C195.306 352.796 214.779 333.847 217.696 332.269C219.139 331.401 218.67 323.985 218.67 323.985Z" fill="#263238"/>
<path d="M246.775 330.843L224.843 357.577L208.499 332.843L209.931 330.303C210.078 330.25 210.219 330.268 210.365 330.215C212.185 329.652 213.382 327.821 213.317 325.92L218.024 312.11L233.6 324.248C233.852 326.314 234.404 330.062 237.907 330.15L246.775 330.843Z" fill="#F69797"/>
<path d="M204.145 331.178C204.831 331.16 209.016 331.031 211.956 333.777C224.227 345.24 236.299 343.204 239.721 330.292L242.467 330.45C242.467 330.45 244.164 337.443 248.941 348.332C249.704 350.068 252.814 357.372 252.814 357.372C257.081 368.601 251.007 376.146 251.007 376.146C250.484 376.996 250.173 377.876 250.132 378.855C250.132 378.855 249.627 399.865 253.078 410.29C254.369 414.197 259.1 425.76 259.1 425.76C259.1 425.76 229.949 426.699 218.083 432.149L199.696 440.567C193.757 443.325 187.471 437.546 189.66 431.339L190.699 428.441C194.62 417.588 202.29 406.089 201.639 394.643L200.435 368.501L187.765 359.818L186.714 352.075C188.246 335.108 201.774 331.236 204.145 331.178Z" fill="#6562CF"/>
<path d="M221.411 419.113L221.722 418.867C221.106 418.092 221.246 416.913 222.015 416.303L221.769 415.992C220.994 416.608 219.814 416.467 219.204 415.699L218.893 415.945C219.509 416.72 219.368 417.899 218.6 418.509L218.846 418.82C219.627 418.133 220.806 418.268 221.411 419.113Z" fill="#4D61FC"/>
<path opacity="0.3" d="M202.079 370.824C202.648 370.748 203.223 371.234 203.229 371.798C203.229 371.798 204.596 382.757 213.077 384.335C212.601 384.962 207.366 385.719 207.055 386.599C207.055 386.599 204.837 430.054 211.328 435.298L199.831 440.578C193.892 443.336 187.606 437.557 189.795 431.35L190.834 428.452C194.755 417.599 202.167 407.238 201.521 395.792L201.093 372.056C200.958 371.399 201.439 370.888 202.079 370.824Z" fill="black"/>
<path d="M250.39 422.445L250.701 422.198C250.085 421.424 250.226 420.245 250.995 419.635L250.748 419.324C249.974 419.94 248.794 419.799 248.184 419.03L247.873 419.277C248.489 420.051 248.348 421.23 247.579 421.84L247.826 422.151C248.606 421.471 249.715 421.594 250.39 422.445Z" fill="#4D61FC"/>
<path opacity="0.3" d="M250.936 376.14C249.686 377.794 247.99 378.991 246.094 379.607L249.615 382.505L250.067 378.85C250.067 378.844 250.179 377.243 250.936 376.14Z" fill="black"/>
<path d="M272.369 422.515L265.708 415.082C264.833 414.138 264.305 413.868 263.073 413.586L249.563 413.692L231.411 408.77L223.289 418.062L240.425 421.16L242.016 421.975C244.663 423.401 247.791 423.694 250.643 422.685L250.713 422.691L253.131 421.846C253.718 421.635 254.411 421.711 254.939 421.987L260.549 425.091C260.813 425.261 261.165 425.231 261.465 425.055C261.987 424.762 262.087 423.935 261.641 423.53L257.65 419.77L263.624 425.231C263.877 425.472 264.288 425.589 264.646 425.49C265.373 425.29 265.684 424.416 265.191 423.794L261.072 418.684L266.488 425.349C266.805 425.666 267.204 425.853 267.645 425.695C268.437 425.507 268.76 424.557 268.337 423.947L264.382 418.015L270.79 423.947C271.23 424.416 272.005 424.369 272.41 423.923C272.715 423.753 272.803 422.99 272.369 422.515Z" fill="#F69797"/>
<path opacity="0.15" d="M261.535 423.871C261.465 423.865 261.465 423.865 261.406 423.783L257.726 420.339C257.667 420.263 257.609 420.116 257.691 420.052C257.767 419.993 257.914 419.934 257.979 420.017L261.658 423.46C261.717 423.537 261.776 423.683 261.693 423.748C261.611 423.806 261.535 423.871 261.535 423.871Z" fill="black"/>
<path opacity="0.15" d="M264.945 424.124C264.874 424.118 264.804 424.106 264.816 424.036L260.942 419.237C260.884 419.161 260.895 419.02 260.972 418.961C261.048 418.903 261.189 418.914 261.248 418.991L265.121 423.789C265.18 423.866 265.168 424.007 265.092 424.065C265.086 424.141 265.015 424.13 264.945 424.124Z" fill="black"/>
<path d="M186.714 352.057L179.766 406.804C180.306 410.025 182.518 412.806 185.611 414.009L219.204 427.285L236.833 410.213L197.783 399.823L209.397 357.378L186.714 352.057Z" fill="#6562CF"/>
<path opacity="0.3" d="M208.417 402.663L208.628 402.053L248.577 413.076L248.477 413.346L208.417 402.663Z" fill="black"/>
<path opacity="0.15" d="M229.803 416.99L241.229 419.642C242.121 419.812 242.984 420.264 243.688 420.839C244.715 421.66 246.687 422.868 249.399 423.109C249.399 423.109 245.249 424.388 240.414 421.232L227.262 418.944L229.803 416.99Z" fill="black"/>
<path d="M210.864 342.976C211.422 343.041 211.886 342.671 211.944 342.119C212.009 341.562 211.639 341.099 211.087 341.04C210.536 340.975 210.066 341.345 210.008 341.897C209.937 342.448 210.307 342.911 210.864 342.976Z" fill="#F4F4F4"/>
<path d="M238.424 423.383H281.272C281.618 423.383 281.9 423.665 281.9 424.011V425.126C281.9 425.472 281.618 425.753 281.272 425.753H238.424C238.078 425.753 237.796 425.472 237.796 425.126V424.011C237.796 423.659 238.007 423.383 238.424 423.383Z" fill="#21252B"/>
<path opacity="0.6" d="M238.424 423.383H281.272C281.618 423.383 281.9 423.665 281.9 424.011V425.126C281.9 425.472 281.618 425.753 281.272 425.753H238.424C238.078 425.753 237.796 425.472 237.796 425.126V424.011C237.796 423.659 238.007 423.383 238.424 423.383Z" fill="black"/>
<path d="M267.316 423.383H344.684C345.03 423.383 345.312 423.665 345.312 424.011V425.126C345.312 425.472 345.03 425.753 344.684 425.753H267.316C266.97 425.753 266.688 425.472 266.688 425.126V424.011C266.688 423.659 266.964 423.383 267.316 423.383Z" fill="#21252B"/>
<g opacity="0.6">
<path opacity="0.6" d="M341.074 423.8H265.01C264.869 423.8 264.798 423.73 264.798 423.589C264.798 423.448 264.869 423.378 265.01 423.378H341.074C341.215 423.378 341.286 423.448 341.286 423.589C341.286 423.73 341.145 423.8 341.074 423.8Z" fill="black"/>
</g>
<path d="M269.37 425.654L280.603 425.525C281.442 425.513 282.199 424.879 282.399 424.04L291.249 374.338C291.442 373.217 290.597 372.185 289.412 372.197L278.179 372.326C277.34 372.337 276.583 372.971 276.383 373.81L267.533 423.512C267.404 424.697 268.184 425.665 269.37 425.654Z" fill="#21252B"/>
<path opacity="0.6" d="M269.37 425.654L280.603 425.525C281.442 425.513 282.199 424.879 282.399 424.04L291.249 374.338C291.442 373.217 290.597 372.185 289.412 372.197L278.179 372.326C277.34 372.337 276.583 372.971 276.383 373.81L267.533 423.512C267.404 424.697 268.184 425.665 269.37 425.654Z" fill="black"/>
<path d="M270.978 425.631L343.269 424.804C344.108 424.792 344.865 424.159 345.065 423.32L353.915 373.617C354.109 372.497 353.264 371.464 352.078 371.476L279.787 372.303C278.948 372.315 278.19 372.949 277.991 373.788L269.211 423.49C269.012 424.681 269.792 425.649 270.978 425.631Z" fill="#263238"/>
<path opacity="0.6" d="M311.895 397.189C311.49 398.169 311.989 399.072 312.963 399.06C313.033 399.06 313.104 399.06 313.104 399.06C311.93 400.398 310.199 401.325 308.591 401.272C306.425 401.225 305.428 399.494 306.384 397.388C307.264 395.218 309.759 393.581 311.924 393.557C313.251 393.61 314.166 394.297 314.46 395.341C313.479 395.429 312.37 396.139 311.895 397.189Z" fill="black"/>
<path d="M230.877 327.417L229.891 327.265C222.561 326.126 217.384 318.723 218.523 311.395L221.311 292.833C221.721 290.375 223.998 288.703 226.387 289.09L243.753 291.718C246.933 292.176 249.087 295.156 248.63 298.342L246.03 315.631C244.909 322.888 238.482 328.807 230.877 327.417Z" fill="#F69797"/>
<path d="M232.526 317.749L232.89 318.558C233.887 320.653 236.746 320.987 238.295 319.262L238.97 318.47C239.111 318.3 239.052 318.054 238.835 318.048L232.808 317.409C232.614 317.332 232.45 317.573 232.526 317.749Z" fill="white"/>
<path d="M232.027 309.43C232.808 309.729 233.618 309.36 233.917 308.579C234.216 307.799 233.847 306.989 233.066 306.69C232.285 306.391 231.476 306.761 231.176 307.541C230.877 308.321 231.247 309.131 232.027 309.43Z" fill="#21252B"/>
<path d="M232.925 309.025C233.054 309.072 233.236 308.996 233.283 308.861C233.33 308.732 233.254 308.549 233.119 308.502C232.984 308.455 232.807 308.532 232.76 308.667C232.713 308.796 232.796 308.972 232.925 309.025Z" fill="white"/>
<path d="M243.019 311.73C243.8 312.029 244.61 311.659 244.909 310.879C245.208 310.099 244.839 309.289 244.058 308.99C243.278 308.691 242.468 309.06 242.168 309.841C241.869 310.621 242.239 311.43 243.019 311.73Z" fill="#21252B"/>
<path d="M244.011 311.285C244.141 311.332 244.323 311.256 244.37 311.121C244.417 310.991 244.34 310.809 244.205 310.762C244.07 310.715 243.894 310.792 243.847 310.927C243.8 311.056 243.882 311.238 244.011 311.285Z" fill="white"/>
<g opacity="0.3">
<path opacity="0.3" d="M237.597 315.795L235.66 315.583C235.437 315.572 235.226 315.343 235.302 315.149C235.314 314.926 235.543 314.715 235.736 314.791L237.673 315.003C238.178 315.044 238.612 314.686 238.63 314.246C238.671 313.741 238.313 313.307 237.873 313.29C237.65 313.278 237.438 313.049 237.515 312.855C237.526 312.633 237.755 312.421 237.949 312.498C238.87 312.621 239.586 313.489 239.463 314.416C239.363 315.267 238.524 315.918 237.597 315.795Z" fill="black"/>
</g>
<path d="M251.91 303.833L252.626 304.103C254.047 283.828 234.357 276.512 222.948 282.783C216.058 286.585 210.571 294.951 210.571 294.951C210.853 298.934 214.145 303.24 214.62 306.109C214.814 307.376 217.907 302.953 219.004 302.624C219.157 302.607 219.808 304.05 220.254 305.036C220.536 305.663 221.393 305.769 221.71 305.141C222.901 302.982 223.664 300.583 224.045 298.195L224.357 296.001C229.275 296.224 244.41 296.065 247.714 296.2C248.53 296.212 248.765 297.567 248.688 298.359L247.057 309.154L250.69 305.083L251.91 303.833Z" fill="#263238"/>
<path d="M219.298 312.287C219.298 312.287 212.878 312.094 212.255 305.664C211.569 299.211 219.509 298.935 219.973 305.382L220.084 312.364L219.298 312.287Z" fill="#F69797"/>
<path opacity="0.3" d="M214.574 302.519C215.319 302.132 215.965 302.003 216.551 302.226C217.138 302.448 217.649 302.865 217.954 303.651C218.277 304.373 218.465 305.259 218.4 306.209L218.371 306.872C218.33 307.376 217.485 307.429 217.49 306.837C217.543 306.109 217.543 306.109 217.543 306.109C217.555 305.886 217.555 304.695 217.209 304.044C216.968 303.504 216.622 303.223 216.299 303.1C215.97 302.976 215.483 303.088 214.943 303.334C214.761 303.416 214.48 303.381 214.398 303.199C214.268 302.924 214.368 302.66 214.574 302.519Z" fill="black"/>
<path d="M245.824 304.736C244.046 304.507 242.297 305.188 241.1 306.378C239.633 305.522 238.195 305.575 237.55 305.704C236.816 303.709 234.997 302.201 232.802 301.89C229.592 301.497 226.692 303.826 226.323 306.971C225.929 310.18 228.259 313.078 231.405 313.448C234.615 313.841 237.514 311.512 237.884 308.367C237.978 307.734 237.937 307.047 237.784 306.466C238.342 306.378 239.469 306.361 240.66 306.959C240.055 307.775 239.592 308.79 239.48 309.869C239.087 313.078 241.417 315.976 244.563 316.346C247.773 316.739 250.672 314.41 251.042 311.265C251.3 308.004 249.029 305.129 245.824 304.736ZM231.452 312.714C228.658 312.404 226.645 309.846 227.021 307.082C227.332 304.29 229.891 302.278 232.655 302.653C235.449 302.964 237.462 305.522 237.086 308.285C236.798 311.013 234.245 313.031 231.452 312.714ZM244.569 315.525C241.775 315.214 239.762 312.656 240.138 309.893C240.449 307.1 243.007 305.088 245.772 305.463C248.565 305.774 250.578 308.332 250.203 311.095C249.892 313.882 247.356 315.836 244.569 315.525Z" fill="white"/>
<path d="M217.449 311.067C218.1 311.313 218.822 310.99 219.069 310.339C219.315 309.688 218.993 308.966 218.341 308.72C217.69 308.474 216.968 308.796 216.721 309.448C216.475 310.099 216.798 310.82 217.449 311.067Z" fill="#4D61FC"/>
<path opacity="0.15" d="M218.159 310.961C217.367 310.884 216.886 310.18 216.938 309.453C216.974 309.165 217.073 308.907 217.208 308.737C216.85 308.901 216.633 309.265 216.551 309.682C216.434 310.386 216.938 311.019 217.666 311.072C217.954 311.107 218.194 311.049 218.4 310.902C218.359 311.037 218.294 311.013 218.159 310.961Z" fill="black"/>
<path opacity="0.15" d="M218.024 312.105L220.219 312.415L216.75 316.845L218.024 312.105Z" fill="black"/>
<path d="M248.648 298.271C238.612 291.484 234.181 308.679 223.6 302.132C213.687 295.989 228.248 286.732 228.248 286.732L238.354 288.621L250.484 295.01L248.648 298.271Z" fill="#263238"/>
<path d="M224.697 303.37C224.697 303.37 223.365 302.942 221.78 301.223L224.697 303.37Z" fill="black"/>
<path d="M224.697 303.37C224.697 303.37 223.365 302.942 221.78 301.223" stroke="#F69797" stroke-width="1.2986" stroke-miterlimit="10" stroke-linecap="round"/>
<path opacity="0.15" d="M234.815 328.426C234.433 327.875 234.345 327.546 234.345 327.546C234.345 327.546 231.123 328.063 227.514 326.649C227.308 326.602 227.074 326.69 226.956 326.877C226.909 327.083 226.997 327.317 227.185 327.435C227.848 327.658 228.447 327.875 229.057 328.01C232.813 328.872 234.815 328.426 234.815 328.426Z" fill="black"/>
<path d="M218.024 312.106C218.024 312.106 217.273 336.704 220.219 346.25C220.219 346.25 218.077 346.543 215.189 346.607C214.82 346.613 214.192 338.482 213.804 338.482C213.388 338.482 213.206 346.613 212.771 346.602C209.274 346.502 205.324 345.956 202.8 344.272C199.86 342.331 202.883 323.587 208.135 315.045C211.844 309.02 218.024 312.106 218.024 312.106Z" fill="#263238"/>
<path d="M242.468 330.45L245.919 330.696C248.747 330.896 250.942 333.254 250.942 336.088V354.274C250.936 354.274 243.865 336.909 242.468 330.45Z" fill="#6562CF"/>
<path opacity="0.3" d="M250.936 352.978C248.377 346.982 243.295 337.525 243.295 337.525L250.936 349.03V352.978Z" fill="black"/>
<path d="M255.455 396.245L253.19 410.606C253.19 410.606 250.032 402.2 250.596 395.259L255.455 396.245Z" fill="#6562CF"/>
<path opacity="0.3" d="M253.19 410.606C249.833 402.053 250.625 395.259 250.625 395.259L252.092 395.558C252.092 395.558 251.74 398.556 251.705 402.053C251.681 404.511 253.19 410.606 253.19 410.606Z" fill="black"/>
<path opacity="0.3" d="M190.552 349.1L184.331 393.001C183.205 399.941 187.301 406.775 194.044 408.77C194.103 408.788 194.156 408.805 194.214 408.817L229.867 416.995L219.198 427.285L185.734 414.097C182.577 412.824 180.3 410.032 179.777 406.67L186.708 352.057C187.489 342.981 192.571 333.636 203.481 331.248C197.09 333.114 191.239 340.218 190.552 349.1Z" fill="black"/>
<path d="M218.587 367.627C218.869 367.85 219.016 368.12 219.133 368.402C219.233 368.689 219.298 368.994 219.221 369.346C218.94 369.123 218.793 368.853 218.675 368.572C218.582 368.278 218.517 367.979 218.587 367.627Z" fill="white"/>
<path d="M218.904 369.557C218.699 369.821 218.447 369.944 218.188 370.032C217.924 370.109 217.648 370.15 217.326 370.05C217.531 369.786 217.783 369.663 218.042 369.575C218.312 369.499 218.587 369.458 218.904 369.557Z" fill="white"/>
<path d="M219.174 371.729C218.957 371.447 218.881 371.148 218.84 370.843C218.816 370.538 218.828 370.233 218.987 369.91C219.21 370.192 219.28 370.491 219.321 370.796C219.345 371.095 219.327 371.406 219.174 371.729Z" fill="white"/>
<path d="M219.222 369.721C219.486 369.516 219.762 369.463 220.037 369.434C220.313 369.428 220.589 369.457 220.877 369.633C220.613 369.838 220.337 369.897 220.061 369.92C219.785 369.926 219.509 369.897 219.222 369.721Z" fill="white"/>
<path d="M240.332 349.031C240.613 349.253 240.76 349.523 240.877 349.805C240.977 350.092 241.042 350.397 240.965 350.749C240.684 350.527 240.537 350.257 240.42 349.975C240.326 349.682 240.261 349.383 240.332 349.031Z" fill="white"/>
<path d="M240.648 350.961C240.443 351.225 240.19 351.348 239.932 351.436C239.668 351.512 239.392 351.553 239.069 351.453C239.275 351.189 239.527 351.066 239.785 350.978C240.049 350.902 240.325 350.867 240.648 350.961Z" fill="white"/>
<path d="M240.912 353.131C240.695 352.849 240.619 352.55 240.578 352.245C240.554 351.94 240.566 351.635 240.724 351.312C240.947 351.594 241.018 351.893 241.059 352.198C241.082 352.503 241.071 352.808 240.912 353.131Z" fill="white"/>
<path d="M240.965 351.124C241.229 350.919 241.505 350.866 241.781 350.837C242.057 350.831 242.333 350.86 242.62 351.036C242.356 351.242 242.08 351.3 241.805 351.324C241.529 351.33 241.247 351.3 240.965 351.124Z" fill="white"/>
<path d="M245.619 336.499C245.977 336.452 246.271 336.54 246.552 336.657C246.828 336.792 247.086 336.956 247.286 337.256C246.928 337.302 246.634 337.214 246.353 337.097C246.077 336.962 245.819 336.798 245.619 336.499Z" fill="white"/>
<path d="M247.216 337.63C247.257 337.959 247.169 338.229 247.051 338.475C246.916 338.716 246.752 338.939 246.458 339.097C246.417 338.763 246.505 338.499 246.623 338.252C246.752 338.018 246.922 337.789 247.216 337.63Z" fill="white"/>
<path d="M248.947 338.968C248.589 338.922 248.325 338.769 248.084 338.581C247.849 338.382 247.644 338.159 247.521 337.819C247.879 337.86 248.143 338.018 248.383 338.206C248.618 338.405 248.823 338.628 248.947 338.968Z" fill="white"/>
<path d="M247.556 337.525C247.597 337.197 247.749 336.962 247.925 336.745C248.113 336.546 248.33 336.369 248.659 336.287C248.618 336.622 248.465 336.856 248.289 337.068C248.096 337.267 247.878 337.443 247.556 337.525Z" fill="white"/>
<path d="M211.169 387.369C211.451 387.592 211.598 387.862 211.715 388.144C211.815 388.431 211.88 388.736 211.803 389.088C211.522 388.865 211.375 388.595 211.257 388.314C211.164 388.02 211.099 387.721 211.169 387.369Z" fill="white"/>
<path d="M211.486 389.299C211.281 389.563 211.029 389.686 210.77 389.774C210.506 389.85 210.23 389.891 209.908 389.791C210.113 389.527 210.365 389.404 210.624 389.316C210.894 389.24 211.169 389.205 211.486 389.299Z" fill="white"/>
<path d="M211.756 391.469C211.539 391.187 211.463 390.888 211.422 390.583C211.398 390.278 211.41 389.973 211.569 389.65C211.792 389.932 211.862 390.231 211.903 390.536C211.927 390.841 211.915 391.146 211.756 391.469Z" fill="white"/>
<path d="M211.803 389.463C212.067 389.258 212.343 389.205 212.619 389.175C212.895 389.17 213.171 389.199 213.458 389.375C213.194 389.58 212.918 389.639 212.642 389.662C212.367 389.668 212.091 389.639 211.803 389.463Z" fill="white"/>
<path d="M247.468 370.654C247.749 370.877 247.896 371.147 248.014 371.429C248.113 371.716 248.178 372.021 248.102 372.373C247.82 372.15 247.673 371.88 247.556 371.599C247.462 371.305 247.397 371.006 247.468 370.654Z" fill="white"/>
<path d="M247.785 372.585C247.579 372.849 247.327 372.972 247.069 373.06C246.805 373.136 246.529 373.171 246.206 373.077C246.411 372.813 246.664 372.69 246.922 372.602C247.186 372.526 247.462 372.485 247.785 372.585Z" fill="white"/>
<path d="M248.049 374.756C247.832 374.474 247.755 374.175 247.714 373.87C247.691 373.565 247.703 373.26 247.861 372.937C248.084 373.219 248.155 373.518 248.196 373.823C248.219 374.122 248.207 374.433 248.049 374.756Z" fill="white"/>
<path d="M248.102 372.749C248.366 372.544 248.641 372.491 248.917 372.461C249.193 372.456 249.469 372.485 249.757 372.661C249.492 372.866 249.217 372.925 248.941 372.948C248.665 372.954 248.383 372.925 248.102 372.749Z" fill="white"/>
<path d="M219.134 406.189C219.415 406.412 219.562 406.682 219.679 406.964C219.779 407.251 219.844 407.556 219.767 407.908C219.486 407.685 219.339 407.416 219.222 407.134C219.122 406.841 219.057 406.536 219.134 406.189Z" fill="white"/>
<path d="M219.45 408.12C219.245 408.384 218.993 408.507 218.734 408.595C218.47 408.671 218.194 408.712 217.872 408.612C218.077 408.348 218.329 408.225 218.588 408.137C218.852 408.061 219.127 408.02 219.45 408.12Z" fill="white"/>
<path d="M219.714 410.284C219.497 410.002 219.421 409.702 219.38 409.397C219.356 409.092 219.368 408.788 219.527 408.465C219.75 408.747 219.82 409.046 219.861 409.351C219.885 409.656 219.873 409.961 219.714 410.284Z" fill="white"/>
<path d="M219.767 408.283C220.031 408.078 220.307 408.025 220.583 407.996C220.859 407.99 221.135 408.019 221.422 408.195C221.158 408.401 220.882 408.459 220.606 408.483C220.33 408.483 220.049 408.453 219.767 408.283Z" fill="white"/>
<path d="M239.592 394.631C239.874 394.854 240.02 395.124 240.138 395.405C240.237 395.693 240.302 395.998 240.226 396.35C239.944 396.127 239.797 395.857 239.68 395.575C239.586 395.282 239.521 394.983 239.592 394.631Z" fill="white"/>
<path d="M239.909 396.561C239.703 396.825 239.451 396.948 239.193 397.036C238.929 397.112 238.653 397.153 238.33 397.054C238.535 396.79 238.788 396.667 239.046 396.579C239.316 396.502 239.592 396.461 239.909 396.561Z" fill="white"/>
<path d="M240.179 398.732C239.962 398.451 239.885 398.151 239.844 397.846C239.821 397.541 239.832 397.236 239.991 396.914C240.214 397.195 240.284 397.494 240.325 397.799C240.343 398.099 240.331 398.41 240.179 398.732Z" fill="white"/>
<path d="M240.226 396.726C240.49 396.521 240.766 396.468 241.041 396.439C241.317 396.433 241.593 396.462 241.881 396.638C241.616 396.844 241.341 396.902 241.065 396.926C240.789 396.932 240.513 396.902 240.226 396.726Z" fill="white"/>
<path d="M204.485 413.833C204.767 414.056 204.913 414.326 205.031 414.607C205.13 414.895 205.195 415.2 205.119 415.552C204.837 415.329 204.69 415.059 204.573 414.778C204.479 414.484 204.414 414.179 204.485 413.833Z" fill="white"/>
<path d="M204.802 415.763C204.596 416.027 204.344 416.151 204.086 416.239C203.822 416.315 203.546 416.356 203.223 416.256C203.429 415.992 203.681 415.869 203.939 415.781C204.209 415.705 204.485 415.664 204.802 415.763Z" fill="white"/>
<path d="M205.072 417.929C204.855 417.647 204.778 417.348 204.737 417.043C204.714 416.738 204.726 416.433 204.884 416.11C205.107 416.391 205.177 416.691 205.219 416.996C205.236 417.301 205.224 417.606 205.072 417.929Z" fill="white"/>
<path d="M205.119 415.927C205.383 415.721 205.659 415.669 205.934 415.639C206.21 415.633 206.486 415.663 206.774 415.839C206.51 416.044 206.234 416.103 205.958 416.126C205.682 416.126 205.406 416.097 205.119 415.927Z" fill="white"/>
<path d="M195.782 431.48C196.063 431.703 196.21 431.973 196.328 432.254C196.427 432.542 196.492 432.847 196.416 433.199C196.134 432.976 195.987 432.706 195.87 432.425C195.776 432.131 195.711 431.832 195.782 431.48Z" fill="white"/>
<path d="M196.099 433.41C195.893 433.674 195.641 433.797 195.383 433.885C195.119 433.962 194.843 434.003 194.52 433.903C194.725 433.639 194.978 433.516 195.236 433.428C195.5 433.351 195.776 433.31 196.099 433.41Z" fill="white"/>
<path d="M196.363 435.581C196.146 435.3 196.069 435.001 196.028 434.696C196.005 434.39 196.017 434.085 196.175 433.763C196.398 434.044 196.468 434.344 196.51 434.649C196.533 434.948 196.521 435.259 196.363 435.581Z" fill="white"/>
<path d="M196.416 433.574C196.68 433.368 196.955 433.316 197.231 433.286C197.507 433.28 197.783 433.31 198.071 433.486C197.806 433.691 197.531 433.75 197.255 433.773C196.979 433.779 196.697 433.75 196.416 433.574Z" fill="white"/>
<path d="M191.879 393.693C192.237 393.687 192.524 393.804 192.789 393.951C193.047 394.115 193.287 394.309 193.452 394.626C193.094 394.631 192.806 394.514 192.542 394.367C192.284 394.203 192.043 394.01 191.879 393.693Z" fill="white"/>
<path d="M193.34 394.996C193.346 395.33 193.229 395.583 193.082 395.817C192.923 396.04 192.73 396.245 192.425 396.369C192.419 396.034 192.536 395.782 192.683 395.547C192.841 395.324 193.029 395.119 193.34 394.996Z" fill="white"/>
<path d="M194.913 396.514C194.567 396.432 194.32 396.244 194.097 396.039C193.886 395.816 193.704 395.57 193.622 395.218C193.974 395.3 194.221 395.487 194.438 395.693C194.649 395.916 194.831 396.162 194.913 396.514Z" fill="white"/>
<path d="M193.692 394.925C193.769 394.603 193.945 394.386 194.144 394.192C194.356 394.016 194.59 393.864 194.919 393.823C194.843 394.145 194.667 394.362 194.467 394.556C194.256 394.726 194.021 394.879 193.692 394.925Z" fill="white"/>
<path d="M205.248 364.03C204.943 364.218 204.638 364.259 204.333 364.271C204.027 364.259 203.722 364.218 203.417 364.024C203.722 363.837 204.027 363.79 204.333 363.784C204.638 363.802 204.943 363.843 205.248 364.03Z" fill="white"/>
<path d="M203.329 363.655C203.153 363.368 203.124 363.092 203.13 362.816C203.153 362.541 203.212 362.271 203.417 362.001C203.593 362.288 203.623 362.564 203.617 362.84C203.587 363.122 203.535 363.391 203.329 363.655Z" fill="white"/>
<path d="M201.199 363.152C201.539 363.046 201.85 363.081 202.144 363.146C202.437 363.228 202.719 363.351 202.971 363.609C202.631 363.715 202.32 363.68 202.026 363.615C201.733 363.533 201.451 363.41 201.199 363.152Z" fill="white"/>
<path d="M203.065 363.896C203.164 364.213 203.123 364.489 203.047 364.759C202.959 365.017 202.83 365.269 202.566 365.475C202.466 365.152 202.507 364.876 202.583 364.612C202.677 364.354 202.801 364.102 203.065 363.896Z" fill="white"/>
<path d="M193.241 350.168C193.522 350.391 193.669 350.661 193.786 350.942C193.886 351.23 193.951 351.535 193.874 351.887C193.593 351.664 193.446 351.394 193.329 351.112C193.229 350.825 193.164 350.52 193.241 350.168Z" fill="white"/>
<path d="M193.557 352.104C193.352 352.368 193.099 352.491 192.841 352.579C192.577 352.655 192.301 352.691 191.979 352.597C192.184 352.333 192.436 352.209 192.695 352.121C192.959 352.045 193.234 352.004 193.557 352.104Z" fill="white"/>
<path d="M193.821 354.268C193.604 353.987 193.528 353.688 193.487 353.383C193.463 353.077 193.475 352.772 193.634 352.45C193.857 352.731 193.927 353.031 193.968 353.336C193.992 353.641 193.98 353.946 193.821 354.268Z" fill="white"/>
<path d="M193.875 352.268C194.139 352.062 194.414 352.01 194.69 351.98C194.966 351.974 195.242 352.004 195.53 352.18C195.265 352.385 194.99 352.444 194.714 352.467C194.432 352.467 194.156 352.438 193.875 352.268Z" fill="white"/>
<path d="M176.82 352.609C176.82 352.609 142.364 432.337 199.972 448.206C224.609 454.994 252.298 444.604 268.061 447.016C296.36 451.339 308.074 511.473 296.454 564.243H151.766C133.491 564.243 117.974 550.808 115.438 532.722C110.943 500.625 107.645 449.796 122.346 408.084C137.992 363.703 176.82 352.609 176.82 352.609Z" fill="#858990"/>
<path d="M132.845 534.517L132.446 534.435C132.528 534.112 136.783 500.062 146.508 481.67L146.831 481.828C137.182 500.302 132.845 534.194 132.845 534.517Z" fill="#3F4249"/>
<path d="M131.319 522.308H130.92C131.965 503.594 125.374 476.208 125.298 475.891L125.697 475.809C125.697 476.05 132.364 503.517 131.319 522.308Z" fill="#3F4249"/>
<path d="M145.78 483.435C145.78 483.435 145.862 465.043 161.931 463.916C162.007 463.922 163.298 480.143 145.78 483.435Z" fill="#6562CF"/>
<path d="M107.217 479.499C107.217 479.499 102.88 461.993 83.8354 466.968C83.8413 466.891 87.4565 479.739 107.217 479.499Z" fill="#6562CF"/>
<path d="M127.863 486.651C127.863 486.651 133.567 471.714 120.309 463.923C120.392 463.923 114.611 478.619 127.863 486.651Z" fill="#6562CF"/>
<path d="M124.975 534.516H124.576C124.576 499.985 107.305 479.827 107.064 479.581L107.387 479.34C107.539 479.581 124.975 499.821 124.975 534.516Z" fill="#3F4249"/>
<path d="M130.515 534.516H130.116C132.123 499.099 133.731 492.916 136.865 480.707C137.188 479.422 137.511 478.138 137.91 476.694L138.309 476.776C137.986 478.22 137.587 479.504 137.264 480.789C134.13 492.992 132.522 499.099 130.515 534.516Z" fill="#3F4249"/>
<path d="M120.879 533.87H120.48C122.651 507.288 116.465 488.492 110.919 477.409C104.411 464.479 96.3766 457.252 92.603 455.486L92.7615 455.163C96.6173 456.929 104.734 464.239 111.242 477.251C116.859 488.333 123.126 507.206 120.879 533.87Z" fill="#3F4249"/>
<path d="M117.903 533.87H117.504C117.586 533.548 122.322 499.58 101.436 488.333L101.594 488.011C107.698 491.302 115.415 498.694 117.745 515.314C119.189 525.2 117.903 533.788 117.903 533.87Z" fill="#3F4249"/>
<path d="M133.491 529.377L133.092 529.219C133.092 529.136 135.023 523.675 140.885 519.099L141.126 519.421C135.416 523.915 133.491 529.295 133.491 529.377Z" fill="#3F4249"/>
<path d="M135.416 518.853L135.175 518.53C135.657 518.131 147.306 507.929 153.251 506.163L153.333 506.562C147.47 508.252 135.498 518.695 135.416 518.853Z" fill="#3F4249"/>
<path d="M111.072 496.847C111.072 496.847 106.33 478.86 87.6147 483.031C87.6147 483.037 90.8308 498.372 111.072 496.847Z" fill="#4D61FC"/>
<path opacity="0.4" d="M111.072 496.847C111.072 496.847 106.33 478.86 87.6147 483.031C87.6147 483.037 90.8308 498.372 111.072 496.847Z" fill="white"/>
<path d="M120.714 515.321C120.714 515.321 117.498 502.549 100.309 506.727C100.309 506.727 105.931 519.498 120.714 515.321Z" fill="#6562CF"/>
<path d="M132.364 506.966C132.364 506.966 133.972 486.89 154.941 484.397C154.859 484.479 155.903 504.074 132.364 506.966Z" fill="#6562CF"/>
<path d="M126.824 534.516H126.425C126.583 520.219 127.387 446.492 127.387 445.771H127.786C127.704 446.492 126.9 520.219 126.824 534.516Z" fill="#3F4249"/>
<path d="M130.679 501.669C130.679 501.669 112.762 502.632 112.762 482.796C112.762 482.796 130.116 483.037 130.679 501.669Z" fill="#4D61FC"/>
<path opacity="0.4" d="M130.679 501.669C130.679 501.669 112.762 502.632 112.762 482.796C112.762 482.796 130.116 483.037 130.679 501.669Z" fill="white"/>
<path d="M147.546 509.295C147.546 509.295 152.447 495.643 167.794 499.093C167.794 499.175 165.223 510.58 147.546 509.295Z" fill="#4D61FC"/>
<path opacity="0.4" d="M147.546 509.295C147.546 509.295 152.447 495.643 167.794 499.093C167.794 499.175 165.223 510.58 147.546 509.295Z" fill="white"/>
<path d="M140.398 534.111H108.742V538.124H140.398V534.111Z" fill="#3F4249"/>
<path d="M136.384 564.067H112.762L110.996 538.129H138.15L136.384 564.067Z" fill="#84888F"/>
<path d="M136.384 564.067H112.762L110.996 538.129H138.15L136.384 564.067Z" fill="#3F4249"/>
<path opacity="0.2" d="M140.398 534.111H135.339V538.129H130.597H110.996L111.072 539.25H130.597L130.679 564.067H136.384L138.15 538.129H140.398V534.111Z" fill="black"/>
<path d="M127.305 461.113C127.305 461.113 118.549 447.86 129.958 435.252C129.952 435.17 137.505 448.1 127.305 461.113Z" fill="#4D61FC"/>
<path opacity="0.4" d="M127.305 461.113C127.305 461.113 118.549 447.86 129.958 435.252C129.952 435.17 137.505 448.1 127.305 461.113Z" fill="white"/>
<path d="M135.257 487.694C135.257 487.694 125.615 467.213 142.81 454.524C142.81 454.606 154.7 473.156 135.257 487.694Z" fill="#4D61FC"/>
<path opacity="0.4" d="M135.257 487.694C135.257 487.694 125.615 467.213 142.81 454.524C142.81 454.606 154.618 473.156 135.257 487.694Z" fill="white"/>
<path d="M137.587 522.789C137.587 522.789 139.917 513.871 152.13 515.719C152.13 515.719 150.117 524.795 137.587 522.789Z" fill="#6562CF"/>
<path d="M120.879 526.884C120.879 526.884 118.226 509.537 134.054 507.53C134.054 507.53 137.828 522.549 120.879 526.884Z" fill="#4D61FC"/>
<path opacity="0.4" d="M120.879 526.884C120.879 526.884 118.226 509.537 134.054 507.53C134.054 507.53 137.828 522.549 120.879 526.884Z" fill="white"/>
<path d="M88.4189 452.676C88.4189 452.676 97.9791 451.714 99.8278 460.866C99.7456 460.866 91.1479 461.91 88.4189 452.676Z" fill="#4D61FC"/>
<path opacity="0.3" d="M88.4189 452.676C88.4189 452.676 97.9791 451.714 99.8278 460.866C99.7456 460.866 91.1479 461.91 88.4189 452.676Z" fill="white"/>
<path d="M111.635 451.714C111.635 451.714 99.7452 464.081 111.395 477.492C111.395 477.492 123.044 464.322 111.635 451.714Z" fill="#4D61FC"/>
<path opacity="0.4" d="M111.635 451.714C111.635 451.714 99.7452 464.081 111.395 477.492C111.395 477.492 123.044 464.322 111.635 451.714Z" fill="white"/>
<defs>
<linearGradient id="paint0_linear_8_5" x1="196.792" y1="116.725" x2="222.177" y2="141.917" gradientUnits="userSpaceOnUse">
<stop stop-color="#387EB8"/>
<stop offset="1" stop-color="#366994"/>
</linearGradient>
<linearGradient id="paint1_linear_8_5" x1="212.374" y1="132.906" x2="239.653" y2="158.678" gradientUnits="userSpaceOnUse">
<stop stop-color="#FFE052"/>
<stop offset="1" stop-color="#FFC331"/>
</linearGradient>
<linearGradient id="paint2_linear_8_5" x1="249.513" y1="66.5289" x2="286.684" y2="83.8617" gradientUnits="userSpaceOnUse">
<stop stop-color="white" stop-opacity="0.2"/>
<stop offset="1" stop-color="white" stop-opacity="0"/>
</linearGradient>
<linearGradient id="paint3_linear_8_5" x1="481.243" y1="91.618" x2="486.003" y2="93.3355" gradientUnits="userSpaceOnUse">
<stop/>
<stop offset="1" stop-opacity="0"/>
</linearGradient>
<clipPath id="clip0_8_5">
<rect width="78" height="62" fill="white" transform="translate(542 56)"/>
</clipPath>
<clipPath id="clip1_8_5">
<rect width="51" height="32" fill="white" transform="translate(342 55)"/>
</clipPath>
</defs>
</svg>
