<svg width="836" height="764" viewBox="0 0 836 764" fill="none" xmlns="http://www.w3.org/2000/svg">
<path d="M1.77563 385.934L88.0979 763.504H1031.28L1071.16 451.313C1072 444.569 1071.53 437.638 1069.76 431.081L986.804 130.973C981.374 111.303 964.802 96.6914 944.673 93.694L313.079 0.964015C294.822 -1.75232 276.565 5.55369 265.143 20.072L11.5126 342.566C1.86926 354.837 -1.6885 370.76 1.77563 385.934Z" fill="#F4F4F4"/>
<path d="M753.304 146.709V418.717L1064.98 414.034L991.205 146.709H753.304Z" fill="#EAEAEA"/>
<path d="M649.941 501.331H329.276C323.377 501.331 318.603 496.554 318.603 490.653V304.069H649.941C655.84 304.069 660.615 308.846 660.615 314.747V490.653C660.615 496.554 655.84 501.331 649.941 501.331Z" fill="#B2B6BB"/>
<path d="M327.965 501.331H279.093C273.195 501.331 268.42 496.554 268.42 490.653V314.654C268.42 308.753 273.195 303.976 279.093 303.976H327.965C333.864 303.976 338.639 308.753 338.639 314.654V490.653C338.639 496.554 333.864 501.331 327.965 501.331Z" fill="#868A91"/>
<path d="M654.155 763.036H811.819V464.708C811.819 458.807 807.044 454.03 801.146 454.03H664.828C658.93 454.03 654.155 458.807 654.155 464.708V763.036Z" fill="#868A91"/>
<path d="M776.616 763.036H846.835V464.708C846.835 458.807 842.06 454.03 836.162 454.03H787.289C781.391 454.03 776.616 458.807 776.616 464.708V763.036Z" fill="#B2B6BB"/>
<path d="M777.206 627.151V556.901H422.465V627.151H777.206Z" fill="#B2B6BB"/>
<path opacity="0.2" d="M439.255 627.118V556.868H429.331V627.118H439.255Z" fill="black"/>
<path d="M818.186 717.139L821.556 722.385C825.957 729.316 832.698 734.561 840.468 737.09L883.068 752.171C886.906 753.388 886.438 759.008 882.412 759.008H877.076C876.42 759.945 875.297 760.507 874.08 760.507C872.956 760.507 871.646 759.945 870.803 759.196C870.709 759.102 870.616 759.102 870.522 759.008H869.773C869.679 759.102 869.492 759.102 869.399 759.289C868.743 760.039 867.713 760.601 866.59 760.601C865.56 760.601 864.343 760.132 863.5 759.477C863.126 759.102 862.47 759.196 862.189 759.57C861.628 760.226 860.879 760.601 859.942 760.601C859.1 760.601 858.07 760.226 857.321 759.664C856.946 759.383 856.385 759.477 856.104 759.758C855.542 760.226 854.887 760.601 854.044 760.601C852.921 760.601 851.984 759.945 851.516 759.102H851.142L798.431 758.259C793.375 758.165 789.63 756.573 787.477 752.639L776.616 733.156L818.186 717.139Z" fill="#FC9D9D"/>
<path opacity="0.15" d="M776.616 733.063L817.998 717.046L793.562 733.344C792.064 734.374 791.596 736.341 792.439 737.84L798.244 748.518C800.21 751.983 803.393 753.669 807.7 754.044C808.636 754.138 809.572 754.044 810.415 753.857C816.22 752.545 822.212 751.983 828.204 752.264C837.285 745.989 842.996 737.933 842.996 737.933L850.767 739.9L859.942 757.041L850.954 757.135L856.947 759.289C856.666 759.196 856.291 759.289 856.01 759.57C855.449 760.039 854.793 760.413 853.95 760.413C852.827 760.413 851.891 759.758 851.423 758.915H851.048L798.337 758.072C793.281 757.978 789.536 756.386 787.383 752.452L776.616 733.063Z" fill="#263238"/>
<path d="M586.744 486.813L568.019 357.74C566.053 344.44 556.223 333.668 543.209 330.577L493.119 318.681L442.656 319.15L396.03 330.296C379.459 334.23 368.692 350.247 371.22 367.107L376.65 402.888L385.825 422.745C386.293 423.869 386.574 424.993 386.855 426.117L395.375 472.669C396.873 480.912 404.082 486.813 412.415 486.813H586.744Z" fill="#FFB000"/>
<path d="M557.721 356.897C557.066 356.897 556.41 356.429 556.317 355.68L555.661 351.184C555.568 350.434 556.036 349.685 556.878 349.591C557.627 349.498 558.376 349.966 558.47 350.809L559.125 355.305C559.219 356.054 558.751 356.804 557.908 356.897C557.908 356.897 557.815 356.897 557.721 356.897Z" fill="white"/>
<path d="M503.512 408.227C502.763 408.227 502.201 407.665 502.108 406.915L501.64 402.326C501.546 401.576 502.108 400.827 502.95 400.827C503.699 400.733 504.448 401.295 504.448 402.138L504.916 406.728C505.01 407.477 504.448 408.227 503.606 408.227H503.512Z" fill="white"/>
<path d="M427.957 355.586C427.208 355.586 426.646 355.024 426.553 354.275L426.084 349.685C425.991 348.936 426.553 348.186 427.395 348.186C428.144 348.093 428.893 348.655 428.893 349.498L429.361 354.087C429.455 354.837 428.893 355.586 428.051 355.586C428.051 355.492 427.957 355.586 427.957 355.586Z" fill="white"/>
<path d="M386.668 346.219C386.106 345.845 385.919 345.002 386.2 344.346L388.447 340.318C388.821 339.663 389.664 339.382 390.319 339.756C390.975 340.131 391.256 340.974 390.881 341.63L388.634 345.657C388.26 346.313 387.417 346.594 386.762 346.219C386.668 346.313 386.668 346.313 386.668 346.219Z" fill="white"/>
<path d="M459.696 418.53C459.415 418.53 459.04 418.436 458.853 418.249C458.291 417.781 458.198 416.844 458.666 416.282L461.568 412.723C462.036 412.161 462.973 412.067 463.534 412.535C464.096 413.004 464.19 413.94 463.722 414.502L460.819 418.062C460.445 418.343 460.07 418.53 459.696 418.53Z" fill="white"/>
<path d="M524.859 336.946C524.578 336.946 524.203 336.853 523.922 336.572C523.361 336.103 523.267 335.167 523.735 334.605L526.45 331.326C526.919 330.764 527.855 330.671 528.417 331.139C528.978 331.607 529.072 332.544 528.604 333.106L525.889 336.384C525.608 336.759 525.233 336.946 524.859 336.946Z" fill="white"/>
<path d="M460.257 376.567C459.789 376.567 459.321 376.286 459.04 375.912L456.793 372.259C456.419 371.603 456.606 370.76 457.262 370.292C457.917 369.917 458.76 370.104 459.228 370.76L461.475 374.413C461.849 375.069 461.662 375.912 461.007 376.38C460.726 376.474 460.445 376.567 460.257 376.567Z" fill="white"/>
<path d="M409.326 383.873C409.232 383.873 409.138 383.873 409.045 383.873L404.925 382.843C404.176 382.656 403.708 381.906 403.895 381.157C404.083 380.408 404.832 379.939 405.581 380.127L409.7 381.157C410.449 381.344 410.917 382.094 410.73 382.843C410.543 383.499 409.887 383.873 409.326 383.873Z" fill="white"/>
<path d="M533.66 433.142C533.379 433.142 533.004 433.048 532.723 432.767C532.162 432.299 532.068 431.362 532.536 430.8L535.251 427.522C535.719 426.96 536.656 426.866 537.217 427.335C537.779 427.803 537.873 428.74 537.405 429.302L534.689 432.58C534.502 433.048 534.034 433.142 533.66 433.142Z" fill="white"/>
<path d="M524.859 378.628C524.765 378.628 524.578 378.628 524.484 378.534L519.897 377.129C519.148 376.942 518.773 376.099 518.96 375.35C519.148 374.6 519.99 374.226 520.739 374.413L525.327 375.818C526.076 376.005 526.45 376.848 526.263 377.598C526.076 378.253 525.514 378.628 524.859 378.628Z" fill="white"/>
<path d="M560.249 411.973C560.155 411.88 560.061 411.786 559.968 411.692L557.253 407.665C556.785 407.009 556.972 406.166 557.627 405.698C558.283 405.229 559.125 405.417 559.593 406.072L562.308 410.1C562.777 410.756 562.589 411.599 561.934 412.067C561.372 412.442 560.717 412.348 560.249 411.973Z" fill="white"/>
<path d="M776.055 637.429C775.774 637.429 775.493 637.242 775.493 636.961V511.166C775.493 510.885 775.774 510.698 776.055 510.698C776.336 510.698 776.617 510.885 776.617 511.166V636.961C776.617 637.242 776.336 637.429 776.055 637.429Z" fill="#868A91"/>
<path d="M494.805 353.244C494.711 353.244 494.524 353.244 494.43 353.151L489.843 351.746C489.094 351.558 488.719 350.715 488.907 349.966C489.094 349.217 489.936 348.842 490.685 349.029L495.273 350.434C496.022 350.622 496.397 351.465 496.209 352.214C495.928 352.87 495.367 353.244 494.805 353.244Z" fill="white"/>
<path d="M490.873 446.443C490.779 446.443 490.592 446.443 490.498 446.349L485.911 444.944C485.162 444.757 484.787 443.914 484.974 443.164C485.162 442.415 486.004 442.04 486.753 442.228L491.341 443.633C492.09 443.82 492.464 444.663 492.277 445.412C491.996 446.068 491.435 446.443 490.873 446.443Z" fill="white"/>
<path opacity="0.2" d="M430.859 443.164L423.463 370.385C423.369 369.449 424.68 369.168 424.961 370.104L447.993 445.693L430.859 443.164Z" fill="black"/>
<path opacity="0.2" d="M534.689 472.388L534.783 472.295L534.97 472.482L534.689 472.388Z" fill="black"/>
<path d="M568.394 476.791C567.458 477.915 565.773 478.196 564.556 477.259L547.984 465.082L569.05 474.73C569.143 475.479 568.862 476.229 568.394 476.791Z" fill="#868A91"/>
<path d="M818.092 717.139L776.616 733.156L676.999 556.876H503.138V486.813H702.933C715.292 486.813 726.433 494.306 731.115 505.734L818.092 717.139Z" fill="#3F4D79"/>
<path opacity="0.2" d="M796.652 725.382L776.616 733.156L676.999 556.876H503.138V486.813H668.479C680.838 486.813 691.979 494.306 696.661 505.734L796.652 725.382Z" fill="black"/>
<path d="M713.419 717.139L671.85 733.156L572.326 556.876H398.465V486.813H598.261C610.619 486.813 621.76 494.306 626.442 505.734L713.419 717.139Z" fill="#3F4D79"/>
<path opacity="0.2" d="M599.197 541.983C592.175 528.307 584.404 524.28 569.05 524.28H449.678L453.704 486.813H429.268V556.876H439.192H572.233L671.85 733.156L690.481 725.944L599.197 541.983Z" fill="black"/>
<path d="M713.419 717.139L716.79 722.385C721.19 729.316 727.931 734.561 735.702 737.09L778.301 752.171C782.14 753.388 781.672 759.008 777.646 759.008H772.309C771.654 759.945 770.53 760.507 769.313 760.507C768.19 760.507 766.879 759.945 766.036 759.196C765.943 759.102 765.849 759.102 765.756 759.008H765.006C764.913 759.102 764.726 759.102 764.632 759.289C763.977 760.039 762.947 760.601 761.823 760.601C760.793 760.601 759.576 760.132 758.734 759.477C758.359 759.102 757.704 759.196 757.423 759.57C756.861 760.226 756.112 760.601 755.176 760.601C754.333 760.601 753.303 760.226 752.554 759.664C752.18 759.383 751.618 759.477 751.337 759.758C750.776 760.226 750.12 760.601 749.278 760.601C748.154 760.601 747.218 759.945 746.75 759.102H746.375L693.664 758.259C688.609 758.165 684.864 756.573 682.71 752.639L671.85 733.156L713.419 717.139Z" fill="#FC9D9D"/>
<path opacity="0.15" d="M685.425 727.911L713.419 717.139L690.668 737.371L695.162 745.427C697.316 749.361 701.061 750.953 706.116 751.047L758.827 751.89H759.202C759.67 752.826 760.7 753.388 761.73 753.388C762.479 753.388 763.228 753.107 763.79 752.545C764.164 752.264 764.632 752.171 765.007 752.452C765.756 753.014 766.785 753.388 767.628 753.388C768.564 753.388 769.313 753.014 769.875 752.358C770.25 751.983 770.811 751.983 771.186 752.264C772.028 753.014 773.246 753.388 774.275 753.388C775.399 753.388 776.429 752.92 777.084 752.077C777.178 751.983 777.271 751.89 777.459 751.796H777.552L778.395 752.077C778.676 752.171 778.863 752.264 779.05 752.358C779.144 752.452 779.331 752.545 779.425 752.639C782.046 754.512 781.297 759.008 777.74 759.008H772.403C771.748 759.945 770.624 760.507 769.407 760.507C768.284 760.507 766.973 759.945 766.13 759.196C766.037 759.102 765.943 759.102 765.849 759.008H765.1C765.007 759.102 764.819 759.102 764.726 759.289C764.07 760.039 763.041 760.601 761.917 760.601C760.887 760.601 759.67 760.132 758.827 759.477C758.453 759.102 757.797 759.196 757.517 759.57C756.955 760.226 756.206 760.601 755.27 760.601C754.427 760.601 753.397 760.226 752.648 759.664C752.274 759.383 751.712 759.477 751.431 759.758C750.869 760.226 750.214 760.601 749.371 760.601C748.248 760.601 747.311 759.945 746.843 759.102H746.469L693.758 758.259C688.702 758.165 684.957 756.573 682.804 752.639L671.943 733.156L685.425 727.911Z" fill="#263238"/>
<path opacity="0.15" d="M738.324 738.027C738.324 738.027 730.085 752.545 714.637 757.791H730.272L738.324 738.027Z" fill="#263238"/>
<path d="M233.685 763.036H380.676C386.575 763.036 391.35 758.259 391.35 752.358V464.708C391.35 458.807 386.575 454.03 380.676 454.03H244.358C238.46 454.03 233.685 458.807 233.685 464.708V763.036Z" fill="#868A91"/>
<path opacity="0.4" d="M155.508 299.667H143.992V344.814V757.041H147.269V304.257H155.508V299.667Z" fill="black"/>
<path d="M126.765 299.667H172.642C176.855 299.667 180.319 296.201 180.319 291.986V268.101H119.182V291.986C119.182 296.201 122.552 299.667 126.765 299.667Z" fill="#61656D"/>
<path d="M143.948 756.985H155.464V299.609H143.948V756.985Z" fill="#61656D"/>
<path d="M155.508 299.667H143.992V746.363H147.175V303.976H155.508V299.667Z" fill="#21252B"/>
<path d="M126.859 291.986V285.898H119.182V291.986C119.182 296.201 122.646 299.667 126.859 299.667H134.536C130.229 299.667 126.859 296.201 126.859 291.986Z" fill="#21252B"/>
<path d="M88.0982 762.568C85.9448 762.568 85.1958 759.57 87.162 758.634C105.325 749.829 126.765 744.677 149.703 744.677C172.642 744.677 194.082 749.735 212.245 758.634C214.211 759.57 213.556 762.568 211.309 762.568H88.0982Z" fill="#61656D"/>
<path d="M156.819 744.865C154.478 744.771 152.137 744.677 149.797 744.677C126.859 744.677 105.418 749.735 87.2552 758.634C85.2891 759.57 85.9445 762.568 88.1915 762.568H109.07C114.594 755.074 135.004 746.27 156.819 744.865Z" fill="#21252B"/>
<path d="M1058.9 763.504H45.6859C45.405 763.504 45.2178 763.317 45.2178 763.036C45.2178 762.755 45.405 762.568 45.6859 762.568H1058.9C1059.18 762.568 1059.36 762.755 1059.36 763.036C1059.36 763.317 1059.18 763.504 1058.9 763.504Z" fill="#B2B6BB"/>
<path d="M198.295 446.162C198.014 446.162 197.827 445.974 197.827 445.693V286.46C197.827 286.179 198.014 285.992 198.295 285.992C198.576 285.992 198.763 286.179 198.763 286.46V445.693C198.763 445.974 198.482 446.162 198.295 446.162Z" fill="#21252B"/>
<path d="M378.055 455.247H272.82C272.539 455.247 272.352 454.966 272.352 454.592C272.352 454.217 272.539 453.936 272.82 453.936H378.148C378.429 453.936 378.616 454.217 378.616 454.592C378.616 454.966 378.336 455.247 378.055 455.247Z" fill="#B2B6BB"/>
<path opacity="0.2" d="M830.17 152.61L932.034 412.816H964.147L860.504 152.61H830.17Z" fill="white"/>
<path d="M1064.61 412.816H916.492V152.61H992.796L989.519 140.808H747.312V424.618H1067.79L1064.61 412.816ZM759.202 152.61H904.695V412.816H759.202V152.61Z" fill="white"/>
<path d="M341.822 454.123H317.666C313.921 454.123 310.925 451.126 310.925 447.379V407.665H348.656V447.379C348.563 451.126 345.567 454.123 341.822 454.123Z" fill="#263238"/>
<path d="M354.461 440.542H348.562V437.638H354.461C355.959 437.638 357.176 436.42 357.176 434.922V418.717C357.176 417.219 355.959 416.001 354.461 416.001H348.562V413.097H354.461C357.55 413.097 359.985 415.626 359.985 418.624V434.828C360.078 438.013 357.55 440.542 354.461 440.542Z" fill="#21252B"/>
<path opacity="0.6" d="M351.184 416.001V413.097H348.563V407.571H340.324V446.63C340.324 450.002 337.609 452.718 334.238 452.718H313.36C314.483 453.655 315.981 454.217 317.573 454.217H341.728C345.473 454.217 348.469 451.22 348.469 447.473V440.635H351.091V437.732H348.469V416.095H351.184V416.001Z" fill="black"/>
<path d="M323.752 404.761C323.471 404.761 323.284 404.574 323.284 404.293C323.284 400.733 320.382 397.736 316.73 397.736H313.547C310.738 397.736 308.491 395.488 308.491 392.678C308.491 389.868 310.738 387.62 313.547 387.62H331.523C333.77 387.62 335.642 385.747 335.642 383.499C335.642 381.251 333.77 379.377 331.523 379.377H327.216C324.314 379.377 322.067 377.036 322.067 374.226C322.067 373.945 322.254 373.757 322.535 373.757C322.816 373.757 323.003 373.945 323.003 374.226C323.003 376.567 324.876 378.441 327.216 378.441H331.523C334.332 378.441 336.579 380.689 336.579 383.499C336.579 386.309 334.332 388.557 331.523 388.557H313.547C311.3 388.557 309.427 390.43 309.427 392.678C309.427 394.926 311.3 396.799 313.547 396.799H316.73C320.85 396.799 324.22 400.171 324.22 404.293C324.22 404.574 324.033 404.761 323.752 404.761Z" fill="white"/>
<path d="M334.145 407.665C333.864 407.665 333.676 407.477 333.676 407.196V406.072C333.676 405.229 333.021 404.574 332.178 404.574C330.774 404.574 329.744 403.45 329.744 402.138V400.171C329.744 398.766 330.868 397.736 332.178 397.736H335.174C339.2 397.736 342.571 394.458 342.571 390.336V386.683C342.571 386.402 342.758 386.215 343.039 386.215C343.32 386.215 343.507 386.402 343.507 386.683V390.243C343.507 394.832 339.762 398.579 335.174 398.579H332.178C331.336 398.579 330.68 399.235 330.68 400.078V402.045C330.68 402.888 331.336 403.543 332.178 403.543C333.583 403.543 334.613 404.667 334.613 405.979V407.103C334.613 407.384 334.425 407.665 334.145 407.665Z" fill="white"/>
<path opacity="0.6" d="M485.349 423.401C486.383 423.401 487.222 422.562 487.222 421.527C487.222 420.493 486.383 419.654 485.349 419.654C484.315 419.654 483.477 420.493 483.477 421.527C483.477 422.562 484.315 423.401 485.349 423.401Z" fill="black"/>
<path opacity="0.6" d="M563.432 389.774C564.466 389.774 565.305 388.936 565.305 387.901C565.305 386.867 564.466 386.028 563.432 386.028C562.398 386.028 561.56 386.867 561.56 387.901C561.56 388.936 562.398 389.774 563.432 389.774Z" fill="black"/>
<path opacity="0.6" d="M527.293 353.9C528.327 353.9 529.165 353.062 529.165 352.027C529.165 350.992 528.327 350.153 527.293 350.153C526.259 350.153 525.42 350.992 525.42 352.027C525.42 353.062 526.259 353.9 527.293 353.9Z" fill="black"/>
<path opacity="0.6" d="M487.783 379.565C488.818 379.565 489.656 378.726 489.656 377.691C489.656 376.657 488.818 375.818 487.783 375.818C486.749 375.818 485.911 376.657 485.911 377.691C485.911 378.726 486.749 379.565 487.783 379.565Z" fill="black"/>
<path opacity="0.6" d="M535.064 447.567C536.098 447.567 536.936 446.728 536.936 445.693C536.936 444.658 536.098 443.82 535.064 443.82C534.029 443.82 533.191 444.658 533.191 445.693C533.191 446.728 534.029 447.567 535.064 447.567Z" fill="black"/>
<path opacity="0.6" d="M528.136 405.885C529.17 405.885 530.008 405.047 530.008 404.012C530.008 402.977 529.17 402.138 528.136 402.138C527.102 402.138 526.263 402.977 526.263 404.012C526.263 405.047 527.102 405.885 528.136 405.885Z" fill="black"/>
<path opacity="0.6" d="M454.733 343.128C455.768 343.128 456.606 342.29 456.606 341.255C456.606 340.22 455.768 339.382 454.733 339.382C453.7 339.382 452.861 340.22 452.861 341.255C452.861 342.29 453.7 343.128 454.733 343.128Z" fill="black"/>
<path opacity="0.6" d="M410.168 337.602C411.202 337.602 412.04 336.764 412.04 335.729C412.04 334.695 411.202 333.855 410.168 333.855C409.134 333.855 408.295 334.695 408.295 335.729C408.295 336.764 409.134 337.602 410.168 337.602Z" fill="black"/>
<path opacity="0.6" d="M444.435 390.805C445.47 390.805 446.308 389.966 446.308 388.931C446.308 387.897 445.47 387.058 444.435 387.058C443.401 387.058 442.562 387.897 442.562 388.931C442.562 389.966 443.401 390.805 444.435 390.805Z" fill="black"/>
<path opacity="0.6" d="M446.307 440.729C447.342 440.729 448.18 439.891 448.18 438.856C448.18 437.822 447.342 436.982 446.307 436.982C445.273 436.982 444.435 437.822 444.435 438.856C444.435 439.891 445.273 440.729 446.307 440.729Z" fill="black"/>
<path opacity="0.6" d="M384.608 371.041C385.642 371.041 386.481 370.203 386.481 369.168C386.481 368.134 385.642 367.294 384.608 367.294C383.574 367.294 382.736 368.134 382.736 369.168C382.736 370.203 383.574 371.041 384.608 371.041Z" fill="black"/>
<path d="M884.941 763.036H788.32C786.915 763.036 785.698 761.912 785.698 760.413C785.698 759.008 786.822 757.791 788.32 757.791H887.469V760.413C887.469 761.818 886.345 763.036 884.941 763.036Z" fill="#4D61FC"/>
<path d="M887.469 757.791C887.281 752.264 883.724 747.487 878.481 745.614L846.461 734.468C845.057 733.999 843.652 734.749 843.278 736.154C841.873 740.837 838.409 750.859 831.574 757.791H788.32C786.915 757.791 785.698 758.915 785.698 760.413C785.698 761.912 786.822 763.036 788.32 763.036H884.941C886.345 763.036 887.469 761.912 887.469 760.507V757.791Z" fill="#4D61FC"/>
<path d="M887.469 757.791C887.281 752.264 883.724 747.487 878.481 745.614L846.461 734.468C845.057 733.999 843.652 734.749 843.278 736.154C841.873 740.837 838.409 750.859 831.574 757.791H788.32C786.915 757.791 785.698 758.915 785.698 760.413C785.698 761.912 786.822 763.036 788.32 763.036H884.941C886.345 763.036 887.469 761.912 887.469 760.507V757.791Z" fill="#21252B"/>
<path opacity="0.4" d="M887.469 757.791C887.281 753.388 885.034 749.454 881.477 747.113C886.064 750.391 885.222 753.669 878.668 753.388C844.869 751.796 840.469 751.796 836.537 751.421C836.63 751.328 836.63 751.234 836.63 751.14C835.132 753.482 833.447 755.824 831.481 757.791H788.226C786.822 757.791 785.604 758.915 785.604 760.413C785.604 761.912 786.728 763.036 788.226 763.036H884.847C886.251 763.036 887.375 761.912 887.375 760.507V757.791H887.469Z" fill="#263238"/>
<path opacity="0.4" d="M887.375 756.948H832.323L831.48 757.791H887.375V756.948Z" fill="black"/>
<path d="M780.549 763.036H683.928C682.523 763.036 681.306 761.912 681.306 760.413C681.306 759.008 682.43 757.791 683.928 757.791H783.077V760.413C783.077 761.818 781.953 763.036 780.549 763.036Z" fill="#4D61FC"/>
<path d="M783.077 757.791C782.889 752.264 779.332 747.487 774.089 745.614L742.069 734.468C740.664 733.999 739.26 734.749 738.886 736.154C737.481 740.837 734.017 750.859 727.182 757.791H683.928C682.523 757.791 681.306 758.915 681.306 760.413C681.306 761.912 682.43 763.036 683.928 763.036H780.549C781.953 763.036 783.077 761.912 783.077 760.507V757.791Z" fill="#4D61FC"/>
<path d="M783.077 757.791C782.889 752.264 779.332 747.487 774.089 745.614L742.069 734.468C740.664 733.999 739.26 734.749 738.886 736.154C737.481 740.837 734.017 750.859 727.182 757.791H683.928C682.523 757.791 681.306 758.915 681.306 760.413C681.306 761.912 682.43 763.036 683.928 763.036H780.549C781.953 763.036 783.077 761.912 783.077 760.507V757.791Z" fill="#21252B"/>
<path opacity="0.4" d="M783.077 757.791C782.889 753.388 780.642 749.454 777.085 747.113C781.672 750.391 780.83 753.669 774.276 753.388C740.477 751.796 736.077 751.796 732.145 751.421C732.238 751.328 732.238 751.234 732.238 751.14C730.74 753.482 729.055 755.824 727.089 757.791H683.928C682.523 757.791 681.306 758.915 681.306 760.413C681.306 761.912 682.43 763.036 683.928 763.036H780.549C781.953 763.036 783.077 761.912 783.077 760.507V757.791Z" fill="#263238"/>
<path opacity="0.4" d="M783.076 756.948H727.931L727.182 757.791H783.076V756.948Z" fill="black"/>
<path d="M443.779 104.466C443.779 82.6414 427.301 64.6574 406.048 62.3157V62.0347H401.367C377.961 62.0347 358.955 81.049 358.955 104.466C358.955 127.882 377.961 146.897 401.367 146.897H406.048V146.616C427.301 144.274 443.779 126.29 443.779 104.466Z" fill="#B2B6BB"/>
<path d="M406.048 146.897C429.471 146.897 448.46 127.9 448.46 104.466C448.46 81.0322 429.471 62.0347 406.048 62.0347C382.624 62.0347 363.636 81.0322 363.636 104.466C363.636 127.9 382.624 146.897 406.048 146.897Z" fill="#868A91"/>
<path d="M406.048 142.213C426.886 142.213 443.779 125.313 443.779 104.466C443.779 83.6183 426.886 66.718 406.048 66.718C385.21 66.718 368.317 83.6183 368.317 104.466C368.317 125.313 385.21 142.213 406.048 142.213Z" fill="white"/>
<path d="M406.048 142.213C426.886 142.213 443.779 125.313 443.779 104.466C443.779 83.6183 426.886 66.718 406.048 66.718C385.21 66.718 368.317 83.6183 368.317 104.466C368.317 125.313 385.21 142.213 406.048 142.213Z" fill="#868A91"/>
<path opacity="0.9" d="M406.048 142.213C426.886 142.213 443.779 125.313 443.779 104.466C443.779 83.6183 426.886 66.718 406.048 66.718C385.21 66.718 368.317 83.6183 368.317 104.466C368.317 125.313 385.21 142.213 406.048 142.213Z" fill="white"/>
<path d="M406.049 66.718C405.393 66.718 404.738 66.718 403.989 66.8117C423.837 67.842 439.66 84.3273 439.66 104.466C439.66 124.604 423.837 141.089 403.989 142.12C404.644 142.12 405.3 142.213 406.049 142.213C426.927 142.213 443.779 125.353 443.779 104.466C443.779 83.578 426.927 66.718 406.049 66.718Z" fill="#B2B6BB"/>
<path d="M406.423 107.369L393.877 82.454C393.409 81.5173 393.784 80.2997 394.72 79.8313C395.656 79.363 396.873 79.7377 397.341 80.6743L408.108 102.124L422.433 95.099C423.369 94.6307 424.586 95.0053 425.054 96.0357C425.523 96.9723 425.148 98.19 424.118 98.6583L406.423 107.369Z" fill="#4D61FC"/>
<path d="M994.856 160.197H759.202V155.889H993.733L994.856 160.197Z" fill="white"/>
<path d="M997.01 167.784H759.202V163.476H995.792L997.01 167.784Z" fill="white"/>
<path d="M999.069 175.371H759.202V171.063H997.852L999.069 175.371Z" fill="white"/>
<path d="M1001.22 182.958H759.202V178.65H1000.01L1001.22 182.958Z" fill="white"/>
<path d="M1003.28 190.545H759.202V186.237H1002.07L1003.28 190.545Z" fill="white"/>
<path d="M1005.34 198.132H759.202V193.73H1004.13L1005.34 198.132Z" fill="white"/>
<path d="M764.726 273.534H764.538V152.704H763.508V273.534H763.321C762.479 273.534 761.729 274.19 761.729 275.126V291.986C761.729 292.829 762.385 293.579 763.321 293.579H764.726C765.568 293.579 766.317 292.923 766.317 291.986V275.126C766.317 274.19 765.662 273.534 764.726 273.534Z" fill="white"/>
<path opacity="0.2" d="M539.09 370.011L547.984 457.776L555.755 465.457L562.871 460.774L547.329 376.474C545.737 369.542 539.09 368.98 539.09 370.011Z" fill="black"/>
<path opacity="0.2" d="M761.543 155.889H759.202V160.197H761.543V155.889Z" fill="black"/>
<path opacity="0.2" d="M761.543 163.476H759.202V167.784H761.543V163.476Z" fill="black"/>
<path opacity="0.2" d="M761.543 171.063H759.202V175.371H761.543V171.063Z" fill="black"/>
<path opacity="0.2" d="M761.543 178.65H759.202V182.958H761.543V178.65Z" fill="black"/>
<path opacity="0.2" d="M761.543 186.143H759.202V190.452H761.543V186.143Z" fill="black"/>
<path opacity="0.2" d="M761.543 193.73H759.202V198.039H761.543V193.73Z" fill="black"/>
<path d="M110.474 157.387H189.868L234.059 283.556H65.3472L110.474 157.387Z" fill="#FFB000"/>
<path d="M110.474 157.387H135.566L118.245 283.556H65.3472L110.474 157.387Z" fill="#FFF5DF"/>
<path d="M110.417 157.416H189.905V151.703H110.417V157.416Z" fill="#FFB000"/>
<path d="M65.3965 289.206H234.109V283.493H65.3965V289.206Z" fill="#FFB000"/>
<path opacity="0.4" d="M110.127 157H189.521L233.712 283.169H65L110.127 157Z" fill="white"/>
<path opacity="0.4" d="M130.006 157H189.739L233.93 283.169H111L130.006 157Z" fill="white"/>
<path opacity="0.6" d="M442.563 319.15C442.563 319.15 441.626 322.99 444.622 324.863C447.993 326.83 461.007 335.541 479.357 330.015C479.357 330.015 485.162 328.423 490.686 324.395C491.903 323.458 492.839 322.147 493.026 320.555C493.026 320.367 493.026 320.274 493.026 320.086V318.775C493.026 318.775 493.026 318.775 498.176 319.993C498.176 321.585 497.708 324.582 495.086 327.205C493.588 328.704 471.399 345.845 443.124 330.015C443.124 330.015 436.945 327.58 437.6 320.367C442.563 319.15 442.563 319.15 442.563 319.15Z" fill="black"/>
<path opacity="0.5" d="M438.349 123.855C441.813 118.141 443.779 111.491 443.779 104.372C443.779 83.4843 426.927 66.6243 406.049 66.6243C405.019 66.6243 403.989 66.718 402.959 66.718L438.349 123.855Z" fill="white"/>
<path opacity="0.5" d="M397.248 67.7483C395.375 68.2167 393.596 68.7786 391.911 69.4343L430.953 132.753C432.451 131.442 433.855 129.944 435.166 128.352L397.248 67.7483Z" fill="white"/>
<path d="M513.53 455.247L526.825 457.027L555.193 454.498C558.189 454.779 559.5 455.341 561.747 457.308L579.255 472.95C580.378 473.981 580.472 475.667 579.536 476.791C578.599 477.915 576.914 478.196 575.697 477.259L559.125 465.082L569.892 477.821C571.109 479.226 570.548 481.474 568.769 482.13C567.739 482.504 566.709 482.223 565.96 481.568L551.542 467.424L562.496 478.196C563.807 479.507 563.339 481.661 561.653 482.317C560.811 482.692 559.874 482.504 559.219 482.036L543.865 470.796L554.257 478.477C555.474 479.32 555.474 481.193 554.257 482.036C553.601 482.504 552.759 482.598 552.104 482.317L538.153 476.51C536.843 475.948 535.251 475.948 533.94 476.603L528.604 479.226C524.297 481.38 519.428 482.504 514.654 482.504H505.946C493.494 482.504 513.53 455.247 513.53 455.247Z" fill="#FC9D9D"/>
<path opacity="0.15" d="M430.953 444.663L426.271 444.288C424.867 444.195 424.118 442.696 424.68 441.478L429.642 431.456L430.953 444.663Z" fill="black"/>
<path opacity="0.15" d="M554.257 478.945C554.163 478.945 554.07 478.945 553.976 478.851L544.426 471.826C544.239 471.639 544.145 471.358 544.333 471.171C544.52 470.983 544.801 470.89 544.988 471.077L554.538 478.102C554.725 478.289 554.819 478.57 554.631 478.758C554.538 478.851 554.35 478.945 554.257 478.945Z" fill="black"/>
<path opacity="0.15" d="M562.402 478.664C562.309 478.664 562.121 478.664 562.121 478.57L551.823 468.454C551.635 468.267 551.635 467.986 551.823 467.799C552.01 467.611 552.291 467.611 552.478 467.799L562.777 477.915C562.964 478.102 562.964 478.383 562.777 478.57C562.683 478.664 562.496 478.664 562.402 478.664Z" fill="black"/>
<path opacity="0.15" d="M541.243 474.824C544.426 476.416 549.763 479.132 551.635 480.163C554.257 481.661 555.006 479.694 555.006 479.694C555.193 480.537 554.912 481.474 554.163 482.036C553.508 482.504 552.665 482.598 552.01 482.317L538.06 476.51C536.749 475.948 535.157 475.948 533.847 476.603L536.562 475.011C538.06 474.168 539.745 474.168 541.243 474.824Z" fill="black"/>
<path d="M511.377 456.371L430.953 444.569L425.71 393.615L375.527 396.144L385.732 461.242C387.698 473.512 398.184 482.504 410.543 482.504H502.014L511.377 456.371Z" fill="#4D61FC"/>
<path d="M522.331 456.371L430.953 444.663L425.71 393.708L375.527 396.237L385.732 461.336C387.698 473.606 398.184 482.598 410.543 482.598H513.249L522.331 456.371Z" fill="#FFB000"/>
<path d="M550.512 468.08L546.86 465.457L550.512 468.08Z" fill="#9A73EF"/>
<path opacity="0.6" d="M405.581 407.758C406.615 407.758 407.453 406.92 407.453 405.885C407.453 404.85 406.615 404.012 405.581 404.012C404.547 404.012 403.708 404.85 403.708 405.885C403.708 406.92 404.547 407.758 405.581 407.758Z" fill="black"/>
<path opacity="0.6" d="M513.249 455.247L522.331 456.371L513.343 482.504H502.108L513.249 455.247Z" fill="black"/>
<g opacity="0.2">
<path opacity="0.2" d="M514.185 454.592C514.092 454.966 513.811 455.154 513.53 455.154H513.436L430.859 443.164L430.672 441.666L513.624 453.749C513.998 453.842 514.279 454.217 514.185 454.592Z" fill="black"/>
</g>
<path d="M423.275 420.965C422.526 420.965 421.964 420.403 421.871 419.654L421.403 415.064C421.309 414.315 421.871 413.566 422.714 413.566C423.463 413.472 424.211 414.034 424.211 414.877L424.68 419.467C424.773 420.216 424.212 420.965 423.369 420.965C423.369 420.965 423.369 420.965 423.275 420.965Z" fill="white"/>
<path d="M388.353 436.233C388.073 436.233 387.698 436.139 387.417 435.858C386.855 435.39 386.762 434.453 387.23 433.891L389.945 430.613C390.413 430.051 391.349 429.957 391.911 430.426C392.473 430.894 392.567 431.831 392.098 432.393L389.383 435.671C389.102 436.046 388.728 436.233 388.353 436.233Z" fill="white"/>
<path d="M430.016 467.237C429.923 467.237 429.736 467.237 429.642 467.143L425.054 465.738C424.305 465.551 423.931 464.708 424.118 463.958C424.305 463.209 425.148 462.834 425.897 463.022L430.485 464.427C431.234 464.614 431.608 465.457 431.421 466.206C431.234 466.862 430.672 467.237 430.016 467.237Z" fill="white"/>
<path d="M469.995 468.642C469.714 468.642 469.339 468.548 469.152 468.361C468.59 467.892 468.497 466.956 468.965 466.394L471.867 462.834C472.335 462.272 473.271 462.179 473.833 462.647C474.395 463.115 474.489 464.052 474.021 464.614L471.118 468.173C470.744 468.454 470.369 468.642 469.995 468.642Z" fill="white"/>
<path opacity="0.6" d="M451.363 458.245C452.397 458.245 453.235 457.406 453.235 456.371C453.235 455.337 452.397 454.498 451.363 454.498C450.329 454.498 449.49 455.337 449.49 456.371C449.49 457.406 450.329 458.245 451.363 458.245Z" fill="black"/>
<path opacity="0.6" d="M485.349 478.851C486.383 478.851 487.222 478.013 487.222 476.978C487.222 475.944 486.383 475.105 485.349 475.105C484.315 475.105 483.477 475.944 483.477 476.978C483.477 478.013 484.315 478.851 485.349 478.851Z" fill="black"/>
<path opacity="0.6" d="M411.572 442.602C412.607 442.602 413.445 441.764 413.445 440.729C413.445 439.695 412.607 438.856 411.572 438.856C410.539 438.856 409.7 439.695 409.7 440.729C409.7 441.764 410.539 442.602 411.572 442.602Z" fill="black"/>
<path opacity="0.15" d="M514.841 477.821L513.343 482.411H410.636C398.278 482.411 387.698 473.419 385.826 461.148L371.126 367.013C368.599 350.153 379.365 334.136 395.937 330.202L404.644 328.142C391.349 334.043 383.298 348.186 385.545 362.986L399.12 449.721C401.086 461.991 411.572 470.983 423.931 470.983L514.841 477.821Z" fill="black"/>
<path opacity="0.15" d="M523.922 477.915C521.769 477.915 520.084 475.948 520.271 473.793L522.331 456.371L513.249 482.504H514.56C519.428 482.504 524.203 481.38 528.51 479.226L534.876 476.229C533.378 476.416 529.446 477.915 523.922 477.915Z" fill="black"/>
<path d="M500.797 481.755H593.111C593.86 481.755 594.516 482.411 594.516 483.16V485.502C594.516 486.251 593.86 486.907 593.111 486.907H500.797C500.048 486.907 499.393 486.251 499.393 485.502V483.16C499.393 482.411 499.954 481.755 500.797 481.755Z" fill="#21252B"/>
<path opacity="0.6" d="M500.797 481.755H593.111C593.86 481.755 594.516 482.411 594.516 483.16V485.502C594.516 486.251 593.86 486.907 593.111 486.907H500.797C500.048 486.907 499.393 486.251 499.393 485.502V483.16C499.393 482.411 499.954 481.755 500.797 481.755Z" fill="black"/>
<path d="M563.058 481.755H723.999C724.748 481.755 725.403 482.411 725.403 483.16V485.502C725.403 486.251 724.748 486.907 723.999 486.907H563.058C562.309 486.907 561.653 486.251 561.653 485.502V483.16C561.747 482.411 562.309 481.755 563.058 481.755Z" fill="#21252B"/>
<g opacity="0.6">
<path opacity="0.6" d="M721.939 482.692H558.096C557.815 482.692 557.627 482.504 557.627 482.223C557.627 481.942 557.815 481.755 558.096 481.755H721.939C722.22 481.755 722.407 481.942 722.407 482.223C722.407 482.504 722.127 482.692 721.939 482.692Z" fill="black"/>
</g>
<path d="M562.683 481.755H586.932C588.805 481.755 590.396 480.444 590.771 478.57L611.088 371.697C611.556 369.261 609.683 367.107 607.249 367.107H583C581.128 367.107 579.536 368.418 579.161 370.292L558.845 477.165C558.47 479.601 560.249 481.755 562.683 481.755Z" fill="#21252B"/>
<path opacity="0.6" d="M562.683 481.755H586.932C588.805 481.755 590.396 480.444 590.771 478.57L611.088 371.697C611.556 369.261 609.683 367.107 607.249 367.107H583C581.128 367.107 579.536 368.418 579.161 370.292L558.845 477.165C558.47 479.601 560.249 481.755 562.683 481.755Z" fill="black"/>
<path d="M566.147 481.755H721.846C723.718 481.755 725.31 480.444 725.684 478.57L746.001 371.697C746.469 369.261 744.596 367.107 742.162 367.107H586.557C584.685 367.107 583.093 368.418 582.719 370.292L562.402 477.165C561.934 479.601 563.713 481.755 566.147 481.755Z" fill="#263238"/>
<path opacity="0.6" d="M655.091 421.434C654.155 423.588 655.185 425.461 657.338 425.461C657.432 425.461 657.619 425.461 657.712 425.461C655.185 428.271 651.346 430.238 647.975 430.145C643.388 430.051 641.234 426.304 643.294 421.715C645.26 417.125 650.691 413.566 655.278 413.659C658.181 413.753 660.147 415.252 660.615 417.593C658.461 417.687 656.027 419.279 655.091 421.434Z" fill="black"/>
<path d="M497.239 263.418C497.239 263.418 454.359 231.946 450.146 266.228L448.929 275.22L442.562 319.151V319.243L442.469 320.18C442.281 321.491 442.656 322.71 443.405 323.647V323.739L443.499 323.834C443.779 324.209 444.154 324.582 444.622 324.863C448.086 327.018 450.333 328.142 453.142 329.172C465.875 334.043 480.574 332.169 491.809 323.552C492.652 322.522 493.12 321.21 493.026 319.805L492.277 296.951C493.026 294.609 493.494 291.986 493.775 289.083C495.18 275.595 497.239 263.418 497.239 263.418Z" fill="#FC9D9D"/>
<path d="M502.108 265.853C510.536 265.853 517.368 259.018 517.368 250.586C517.368 242.154 510.536 235.318 502.108 235.318C493.679 235.318 486.847 242.154 486.847 250.586C486.847 259.018 493.679 265.853 502.108 265.853Z" fill="#263238"/>
<path d="M504.074 239.533C504.074 239.533 515.122 307.629 480.387 309.596C450.333 311.375 450.521 264.823 450.521 264.823L454.172 234.85L504.074 239.533Z" fill="#FC9D9D"/>
<path d="M501.827 243.561H471.305C467.467 243.561 464.377 246.652 464.377 250.492C464.377 254.332 461.287 257.423 457.449 257.423C456.419 257.423 455.576 258.266 455.576 259.297V266.041C455.576 266.884 454.921 267.633 453.985 267.633C453.236 267.633 452.58 267.071 452.486 266.322L451.55 259.859L450.333 257.611L442.843 261.545C442.843 261.545 432.544 242.811 439.285 226.982C443.124 217.896 452.58 215.367 456.887 215.086C458.291 214.992 459.602 214.243 460.445 213.119C462.411 210.215 467.092 205.345 476.642 206.469C483.944 207.312 487.783 211.527 489.562 214.992C490.686 216.959 493.12 217.896 495.273 217.147C498.456 216.023 503.044 215.461 508.006 219.02C517.743 225.764 512.5 242.718 501.827 243.561Z" fill="#263238"/>
<path opacity="0.15" d="M448.554 277.468C448.554 277.468 451.363 277.936 452.955 276.812L447.618 283.931L448.554 277.468Z" fill="black"/>
<path d="M451.55 259.765C451.55 259.765 449.771 253.302 443.03 255.737C435.353 258.454 435.54 275.595 448.18 277.468C454.827 278.498 453.704 274.564 452.955 269.319C451.55 259.765 451.55 259.765 451.55 259.765Z" fill="#FC9D9D"/>
<path opacity="0.3" d="M442.375 260.046C443.686 259.297 444.996 259.016 446.12 259.39C447.243 259.765 448.18 260.608 448.835 261.919C449.491 263.324 449.865 264.917 449.771 266.603V268.101C449.771 268.57 449.397 268.851 448.929 268.851C448.461 268.851 448.18 268.476 448.18 268.008V266.509C448.273 266.134 448.086 263.886 447.431 262.575C446.963 261.638 446.307 260.983 445.652 260.795C444.996 260.608 444.154 260.795 443.124 261.357C442.749 261.545 442.281 261.451 442.094 261.076C441.907 260.795 442 260.327 442.375 260.046Z" fill="black"/>
<path d="M501.92 244.967L498.363 245.06C497.988 245.06 497.614 244.779 497.614 244.405C497.614 244.03 497.895 243.655 498.269 243.655L501.827 243.562C502.295 243.562 502.763 243.468 503.138 243.374C503.98 243.187 505.666 242.625 507.351 241.688C507.725 241.501 508.1 241.595 508.287 241.969C508.474 242.344 508.381 242.719 508.006 242.906C506.227 243.936 504.355 244.498 503.419 244.686C503.044 244.873 502.482 244.967 501.92 244.967Z" fill="#FC9D9D"/>
<path opacity="0.15" d="M493.026 315.965L492.652 305.1C489.562 307.91 480.948 311.563 471.867 308.659C471.867 308.659 471.773 308.565 471.867 308.659C466.249 306.786 462.598 303.32 460.445 300.323C460.257 300.042 459.789 299.948 459.508 300.135C459.227 300.323 459.134 300.791 459.321 301.072C462.036 304.725 466.811 309.127 474.488 310.72C483.57 317.838 493.026 315.965 493.026 315.965Z" fill="black"/>
<g opacity="0.3">
<path opacity="0.3" d="M484.038 296.201H483.944C481.229 296.201 479.825 296.201 479.825 296.201C479.357 296.201 478.889 295.827 478.889 295.265C478.889 294.796 479.263 294.328 479.825 294.328C479.825 294.328 481.229 294.328 483.944 294.328C484.413 294.328 484.881 294.703 484.881 295.265C484.787 295.733 484.413 296.108 484.038 296.201Z" fill="black"/>
</g>
<g opacity="0.3">
<path opacity="0.3" d="M485.723 292.361C478.14 292.923 475.05 288.614 474.02 286.46C473.833 285.992 474.02 285.523 474.395 285.336C474.863 285.149 475.331 285.336 475.518 285.711C476.548 287.771 479.919 292.361 489.187 290.019C489.656 289.926 490.124 290.207 490.217 290.675C490.311 291.143 490.03 291.612 489.562 291.705C488.251 292.08 486.94 292.267 485.723 292.361Z" fill="black"/>
</g>
<path d="M477.016 273.628C478.516 273.628 479.732 272.412 479.732 270.911C479.732 269.412 478.516 268.195 477.016 268.195C475.517 268.195 474.301 269.412 474.301 270.911C474.301 272.412 475.517 273.628 477.016 273.628Z" fill="#21252B"/>
<path d="M478.327 272.13C478.638 272.13 478.889 271.878 478.889 271.567C478.889 271.257 478.638 271.005 478.327 271.005C478.017 271.005 477.765 271.257 477.765 271.567C477.765 271.878 478.017 272.13 478.327 272.13Z" fill="white"/>
<path d="M498.737 275.314C500.236 275.314 501.452 274.098 501.452 272.597C501.452 271.098 500.236 269.881 498.737 269.881C497.237 269.881 496.022 271.098 496.022 272.597C496.022 274.098 497.237 275.314 498.737 275.314Z" fill="#21252B"/>
<path d="M500.048 273.721C500.358 273.721 500.61 273.47 500.61 273.159C500.61 272.849 500.358 272.597 500.048 272.597C499.738 272.597 499.486 272.849 499.486 273.159C499.486 273.47 499.738 273.721 500.048 273.721Z" fill="white"/>
<g opacity="0.3">
<path opacity="0.3" d="M488.251 285.805H484.506C484.038 285.805 483.664 285.431 483.664 284.962C483.664 284.494 484.038 284.119 484.506 284.119H488.251C489.187 284.119 489.936 283.37 489.936 282.433C489.936 281.497 489.187 280.747 488.251 280.747C487.783 280.747 487.409 280.373 487.409 279.904C487.409 279.436 487.783 279.061 488.251 279.061C490.03 279.061 491.528 280.56 491.528 282.34C491.528 284.307 490.124 285.805 488.251 285.805Z" fill="black"/>
</g>
<path d="M507.163 265.947L495.179 265.104L493.588 265.01L483.102 264.261H483.008L469.526 263.324C467.373 263.137 465.407 264.823 465.313 266.977L465.126 270.068C464.751 275.969 469.152 281.215 475.144 281.589C481.042 281.964 486.285 277.562 486.659 271.567L486.847 268.476C486.94 267.539 486.659 266.696 486.191 266.041L490.404 266.322C489.843 266.977 489.468 267.727 489.375 268.663L489.187 271.754C488.813 277.655 493.213 282.901 499.205 283.275C505.104 283.65 510.347 279.248 510.721 273.253L510.908 270.162C511.002 268.101 509.317 266.134 507.163 265.947ZM485.162 268.476L484.974 271.567C484.6 276.625 480.199 280.465 475.144 280.091C470.088 279.716 466.249 275.314 466.624 270.256L466.811 267.165C466.905 265.853 468.028 264.823 469.339 264.917L482.821 265.853H482.914C484.225 265.947 485.255 267.165 485.162 268.476ZM509.036 273.159C508.661 278.217 504.261 282.058 499.205 281.683C494.15 281.308 490.311 276.906 490.685 271.848L490.873 268.757C490.966 267.446 492.09 266.415 493.401 266.509L494.992 266.603L506.976 267.446C508.287 267.539 509.317 268.663 509.223 269.975L509.036 273.159Z" fill="#21252B"/>
<path d="M359.143 763.036H429.361V464.708C429.361 458.807 424.586 454.03 418.688 454.03H369.816C363.917 454.03 359.143 458.807 359.143 464.708V763.036Z" fill="#B2B6BB"/>
</svg>
