<svg width="83" height="128" viewBox="0 0 83 128" fill="none" xmlns="http://www.w3.org/2000/svg">
<path d="M17.4522 85.0622H52.8819V98.6001H0V30.9687H17.4522V85.0622Z" fill="#6562CF"/>
<path d="M78.5054 123.584C75.5286 126.547 70.9759 128 64.7888 128C58.6018 128 52.0645 127.651 45.1187 127.012V113.997C50.1383 114.346 55.3331 114.462 60.6447 114.462C62.1039 114.462 63.3296 114.055 64.2051 113.184C65.0807 112.312 65.4893 111.15 65.4893 109.64V72.9187H52.8817V59.3808H82.9414V109.64C82.9998 115.973 81.4822 120.621 78.5054 123.584Z" fill="#6562CF"/>
<path d="M66.9489 28.5865L32.5698 14.7581V0L83.0002 22.3114V34.8616L32.5698 57.1729V42.4149L66.9489 28.5865Z" fill="#6562CF"/>
</svg>
